<svg width="1468" height="1116" viewBox="0 0 1468 1116" fill="none" xmlns="http://www.w3.org/2000/svg">
<mask id="mask0_121_822" style="mask-type:luminance" maskUnits="userSpaceOnUse" x="0" y="1" width="1236" height="1114">
<path d="M9.92297 11.0093L1235.6 1.81075L1226.68 1104.9L0.999418 1114.1L9.92297 11.0093Z" fill="white"/>
</mask>
<g mask="url(#mask0_121_822)">
<mask id="mask1_121_822" style="mask-type:luminance" maskUnits="userSpaceOnUse" x="10" y="12" width="1222" height="1101">
<path d="M96.3601 1069.42C94.4811 1060.38 99.2922 1054.83 102.332 1048.92C131.504 992.853 169.23 944.077 217.177 903.466C277.125 852.689 344.586 819.179 419.984 803.05C440.838 798.585 442.812 801.074 434.529 821.995C428.936 836.127 422.481 850.199 414.52 862.986C359.1 951.962 279.242 1008.49 185.458 1045.5C156.783 1056.83 127.825 1068.96 96.3601 1069.42ZM10.8583 12.1123C12.0693 47.3535 14.2948 79.6042 20.978 111.225C59.2963 293.059 159.447 424.61 319.659 508.138C409.148 554.781 454.759 630.309 453.272 735.761C453.012 754.641 446.322 762.601 428.29 766.228C253.697 801.168 130.118 904.304 54.5053 1070.25C49.0727 1082.17 37.1993 1097.68 46.0148 1107.91C53.8773 1117.06 71.4425 1110.41 84.2683 1108.4C187.173 1092.36 278.591 1049.32 359.192 980.178C413.378 933.709 452.797 877.23 475.246 808.483C479.184 796.426 485.608 789.602 497.707 785.836C616.301 748.517 699.32 670.117 744.946 551.016C790.789 431.465 869.578 348.493 989.288 309.7C1060.8 286.537 1132.67 292.14 1204.42 305.913C1212.13 307.401 1219.64 311.764 1231.56 306.851C1212.67 288.822 1191.5 279.303 1169.41 272.774C1122.13 258.781 1073.77 253.068 1024.99 265.284C988.79 274.35 955.376 270.108 921.324 255.758C845.602 223.765 772.271 235.356 702.242 278.084C684.043 289.18 669.108 304.487 662.279 326.097C659.983 333.398 657.807 342.503 665.137 347.088C672.679 351.812 676.629 342.583 681.152 338.284C744.67 277.729 817.238 259.338 899.206 284.516C906.803 286.846 915.157 288.035 922.134 296.593C912.683 307.594 898.843 311.778 887.399 319.038C808.484 369.154 751.305 437.83 718.52 527.447C697.953 583.703 668.051 633.267 624.377 673.993C591.277 704.889 554.147 728.42 512.703 744.551C490.498 753.181 489.119 751.865 488.463 727.329C485.807 632.978 449.879 556.354 375.913 500.984C343.226 476.511 304.586 462.078 271.259 438.229C198.089 385.91 139.317 321.124 100.64 237.376C81.9936 197.154 63.3157 157.272 62.0373 108.346C79.27 120.797 94.9325 132.714 111.179 143.736C193.433 199.669 285.225 224.921 383.074 235.883C512.604 250.4 602.42 361.354 600.471 496.655C600.378 503.719 595.237 514.864 603.51 517.232C613.312 520.031 618.206 508.549 622.393 500.902C636.704 474.743 632.225 447.113 626.536 420.368C601.059 300.586 492.423 206.919 373.454 198.208C242.993 188.625 131.966 135.228 41.2138 38.6721C32.8154 29.72 25.7506 18.8429 10.858 12.1491" fill="white"/>
</mask>
<g mask="url(#mask1_121_822)">
<mask id="mask2_121_822" style="mask-type:luminance" maskUnits="userSpaceOnUse" x="0" y="1" width="1236" height="1114">
<path d="M1235.6 1.79603L9.92297 10.9946L0.999471 1114.09L1226.68 1104.89L1235.6 1.79603Z" fill="white"/>
</mask>
<g mask="url(#mask2_121_822)">
<mask id="mask3_121_822" style="mask-type:luminance" maskUnits="userSpaceOnUse" x="1" y="2" width="1234" height="1113">
<path d="M10.6439 11.835L1234.14 2.65278L1225.22 1104.91L1.72715 1114.1L10.6439 11.835Z" fill="white"/>
</mask>
<g mask="url(#mask3_121_822)">
<mask id="mask4_121_822" style="mask-type:luminance" maskUnits="userSpaceOnUse" x="10" y="12" width="1222" height="1101">
<path d="M96.3596 1069.42C94.4806 1060.38 99.2917 1054.83 102.332 1048.92C131.503 992.851 169.229 944.075 217.176 903.464C277.125 852.687 344.585 819.176 419.984 803.048C440.837 798.583 442.812 801.072 434.528 821.993C428.935 836.124 422.481 850.196 414.519 862.983C359.099 951.96 279.242 1008.48 185.457 1045.5C156.783 1056.83 127.824 1068.96 96.3596 1069.42ZM10.8578 12.1099C12.0688 47.3511 14.2943 79.6017 20.9776 111.222C59.2958 293.056 159.446 424.608 319.659 508.136C409.147 554.779 454.759 630.306 453.272 735.759C453.012 754.638 446.322 762.599 428.29 766.225C253.697 801.165 130.118 904.301 54.5048 1070.25C49.0722 1082.17 37.1989 1097.67 46.0143 1107.91C53.8768 1117.05 71.4421 1110.41 84.2678 1108.4C187.173 1092.36 278.591 1049.32 359.191 980.175C413.377 933.706 452.797 877.228 475.246 808.481C479.183 796.424 485.608 789.6 497.707 785.834C616.3 748.515 699.32 670.114 744.946 551.014C790.789 431.462 869.578 348.49 989.288 309.697C1060.8 286.535 1132.67 292.138 1204.41 305.91C1212.13 307.399 1219.63 311.762 1231.56 306.848C1212.67 288.82 1191.5 279.301 1169.41 272.771C1122.13 258.779 1073.77 253.065 1024.99 265.282C988.79 274.348 955.376 270.106 921.324 255.756C845.602 223.762 772.27 235.353 702.242 278.082C684.042 289.178 669.107 304.485 662.278 326.094C659.982 333.396 657.807 342.501 665.136 347.086C672.678 351.809 676.628 342.58 681.152 338.282C744.67 277.727 817.237 259.336 899.205 284.514C906.802 286.843 915.156 288.033 922.133 296.59C912.683 307.591 898.842 311.776 887.399 319.035C808.484 369.152 751.304 437.828 718.52 527.444C697.953 583.7 668.05 633.265 624.377 673.991C591.277 704.886 554.147 728.417 512.703 744.549C490.498 753.178 489.119 751.863 488.462 727.327C485.806 632.975 449.878 556.351 375.913 500.982C343.225 476.509 304.586 462.076 271.259 438.227C198.088 385.908 139.317 321.122 100.64 237.374C81.9931 197.152 63.3152 157.269 62.0368 108.344C79.2695 120.794 94.932 132.712 111.179 143.733C193.432 199.667 285.224 224.919 383.073 235.88C512.603 250.397 602.42 361.352 600.47 496.652C600.377 503.716 595.236 514.862 603.51 517.23C613.311 520.029 618.206 508.547 622.393 500.899C636.703 474.741 632.225 447.111 626.535 420.366C601.059 300.584 492.423 206.917 373.454 198.205C242.993 188.623 131.965 135.225 41.2133 38.6696C32.8149 29.7175 25.7501 18.8405 10.8575 12.1467" fill="white"/>
</mask>
<g mask="url(#mask4_121_822)">
<path d="M1235.6 1.80775L9.92249 11.0063L0.998983 1114.1L1226.68 1104.9L1235.6 1.80775Z" fill="#FF0066"/>
</g>
</g>
</g>
</g>
</g>
<mask id="mask5_121_822" style="mask-type:luminance" maskUnits="userSpaceOnUse" x="-1" y="0" width="1239" height="1116">
<path d="M8.95312 9.21973L1237.44 6.90465e-05L1228.49 1106.78L-0.000165443 1116L8.95312 9.21973Z" fill="white"/>
</mask>
<g mask="url(#mask5_121_822)">
<mask id="mask6_121_822" style="mask-type:luminance" maskUnits="userSpaceOnUse" x="9" y="9" width="1226" height="1106">
<path d="M94.6295 1069.84C92.9503 1061.65 96.266 1055.99 99.0478 1051.18C99.662 1050.11 100.24 1049.12 100.783 1048.09C130.063 991.794 167.933 942.832 216.059 902.073C276.223 851.11 343.97 817.45 419.653 801.283C430.951 798.878 439.431 797.636 440.694 804.513C441.411 808.367 439.439 814.377 436.137 822.68C430.501 836.849 424.017 851.032 415.94 864.004C360.275 953.387 280.059 1010.13 185.982 1047.26C184.488 1047.86 182.951 1048.46 181.45 1049.06C179.949 1049.66 178.413 1050.26 176.883 1050.86C151.175 1060.99 124.764 1070.86 96.2847 1071.3L94.8669 1071.31L94.5579 1069.87M98.0485 1069.04L96.2996 1069.46L96.3145 1067.62C124.081 1067.19 149.921 1057.57 175.664 1047.41C177.201 1046.81 178.695 1046.21 180.231 1045.61C181.768 1045.01 183.269 1044.41 184.77 1043.81C278.304 1006.91 357.804 950.57 412.971 862.038C420.867 849.362 427.278 835.408 432.835 821.343C436.289 812.67 437.647 807.806 437.168 805.268C436.725 802.849 433.775 801.987 420.266 804.88C345.153 820.933 277.942 854.33 218.238 904.929C170.513 945.354 132.931 993.945 103.825 1049.82C103.246 1050.93 102.632 1052 102.025 1053.08C99.2071 1057.92 96.6415 1062.43 98.0482 1069.08L98.0485 1069.04ZM12.644 12.0229C13.8551 47.2641 16.0892 79.3306 22.7023 110.812C60.9182 292.087 160.709 423.199 320.467 506.517C410.516 553.487 456.557 629.593 455.021 735.783C454.754 755.583 447.424 764.285 428.571 768.065C254.549 802.89 131.473 905.617 56.0772 1071.05C54.953 1073.52 53.5425 1076.14 52.1677 1078.77C50.6845 1081.57 49.1728 1084.38 47.9034 1087.19C44.3494 1094.98 42.9772 1101.68 47.3179 1106.72C52.7103 1112.97 63.6559 1110.87 75.3459 1108.36C78.3077 1107.71 81.2621 1107.1 84.0084 1106.67C186.556 1090.71 277.688 1047.83 358.074 978.858C412.009 932.575 451.255 876.392 473.587 808.015C477.707 795.404 484.562 788.142 497.233 784.143C615.327 746.983 697.88 668.991 743.323 550.437C789.348 430.369 868.533 346.959 988.814 308.007C1060.75 284.694 1132.95 290.376 1204.8 304.184C1206.53 304.539 1208.27 305.005 1209.98 305.471C1211.79 305.965 1213.57 306.431 1215.41 306.785C1219.86 307.636 1224.73 307.746 1230.98 305.203L1231.6 306.922L1230.38 308.293C1211.77 290.513 1190.89 281.11 1168.92 274.616C1121.8 260.652 1073.8 255.017 1025.37 267.121C988.75 276.256 954.944 271.987 920.644 257.492C845.526 225.752 772.765 237.228 703.131 279.688C685.175 290.643 670.641 305.652 663.959 326.671C661.546 334.305 660.104 341.784 666.051 345.532C670.332 348.225 672.92 345.334 676.619 340.71C677.663 339.413 678.743 338.042 679.927 336.929C743.947 276.001 817.157 257.385 899.765 282.779C900.866 283.102 902.004 283.425 903.177 283.748C904.342 284.07 905.551 284.43 906.759 284.781C912.402 286.507 918.366 289.04 923.543 295.438L924.531 296.646L923.488 297.832C916.807 305.609 908.051 310.049 899.795 314.31C895.831 316.357 891.933 318.339 888.323 320.649C809.73 370.579 752.803 438.921 720.193 528.132C699.524 584.609 669.477 634.432 625.588 675.418C592.308 706.462 554.999 730.105 513.341 746.349C499.698 751.636 491.632 754.422 488.574 745.725C487.216 741.905 486.909 735.875 486.691 727.524C484.073 633.688 448.383 557.615 374.878 502.61C358.003 490.009 339.582 480.064 320.94 470.011C303.725 460.764 286.396 451.4 270.26 439.891C196.912 387.426 137.9 322.414 99.0407 238.307C98.8306 237.866 98.6207 237.389 98.4105 236.949C98.2004 236.508 97.9905 236.031 97.7803 235.598C79.5896 196.257 61.5498 156.767 60.2663 108.468L60.1536 104.786L63.0574 106.9C68.5749 110.902 73.9504 114.839 79.2624 118.695C84.3544 122.45 89.3757 126.132 94.3692 129.733C100.312 134.027 106.22 138.217 112.164 142.253C194.134 198.005 285.57 223.148 383.277 234.111C513.768 248.732 604.219 360.528 602.262 496.712C602.245 498.767 601.799 501.091 601.425 503.303C601.014 505.663 600.605 507.869 600.589 509.82C600.528 512.914 601.332 514.779 604.033 515.532C611.241 517.614 615.388 510.409 619.621 502.43C620.055 501.617 620.453 500.84 620.886 500.064C634.828 474.571 630.522 447.602 624.833 420.82C599.535 301.884 491.565 208.728 373.343 200.048C242.456 190.394 131.038 136.816 39.9679 39.9312C38.1666 38.0297 36.4374 36.0173 34.7151 34.0416C32.9149 32.0001 31.1507 29.9143 29.2434 27.9031C24.1998 22.5717 18.4058 17.5331 10.1432 13.8094L10.8694 12.1099L12.644 12.0229ZM9.08761 12.1969L9.00452 9.25879L11.6312 10.4102C20.4544 14.3949 26.6089 19.7916 31.8292 25.3059C33.7715 27.3904 35.5995 29.5126 37.3996 31.5614C39.1289 33.5665 40.823 35.5056 42.5537 37.3339C133.016 133.568 243.625 186.784 373.658 196.326C493.34 205.106 602.683 299.319 628.331 419.91C634.021 446.655 638.701 474.91 624 501.771C623.602 502.511 623.204 503.287 622.77 504.064C619.124 510.97 613.556 521.972 603.079 519.001C598.218 517.601 597.038 513.677 597.106 509.736C597.124 507.416 597.608 504.879 597.983 502.593C598.357 500.307 598.73 498.315 598.743 496.628C600.679 362.212 511.461 252.1 382.892 237.686C284.829 226.719 192.76 201.44 110.18 145.288C104.165 141.216 98.2574 136.988 92.2792 132.695C87.2929 129.086 82.2647 125.375 77.1368 121.657C71.8675 117.801 66.4849 113.864 60.9674 109.862L62.0127 108.344L63.7945 108.257C65.0424 155.673 82.7385 194.502 100.964 233.917C101.174 234.358 101.384 234.835 101.594 235.275C101.797 235.715 102.007 236.185 102.218 236.626C140.762 320.043 199.314 384.61 272.279 436.79C288.203 448.183 305.348 457.4 322.606 466.691C341.176 476.701 359.882 486.754 376.969 499.545C451.43 555.272 487.568 632.41 490.22 727.277C490.471 735.848 490.784 741.222 491.891 744.337C493.493 748.855 496.628 748.868 512.087 742.823C553.317 726.766 590.232 703.385 623.188 672.637C666.61 632.134 696.375 582.836 716.862 526.831C749.799 436.808 807.223 367.836 886.496 317.495C890.285 315.081 894.291 313.025 898.254 311.007C906.617 306.716 914.694 302.531 920.836 295.385L922.144 296.59L920.781 297.779C916.238 292.186 911.028 289.905 905.662 288.288C904.489 287.929 903.324 287.606 902.151 287.283C900.978 286.961 899.84 286.638 898.668 286.278C817.304 261.287 745.372 279.519 682.327 339.636C681.358 340.527 680.423 341.705 679.343 343.039C676.177 346.966 671.431 353.218 664.173 348.677C655.497 343.255 658.362 332.531 660.556 325.555C667.567 303.392 682.89 287.75 701.304 276.505C771.726 233.553 845.665 221.817 921.99 254.057C955.722 268.306 988.781 272.47 1024.55 263.518C1073.76 251.231 1122.44 256.972 1169.9 271.037C1192.16 277.639 1213.62 287.229 1232.76 305.55L1234.84 307.523L1232.2 308.611C1225.23 311.462 1219.61 311.357 1214.67 310.4C1212.69 310.01 1210.77 309.472 1208.99 309.006C1207.25 308.541 1205.66 308.074 1204.05 307.791C1132.42 294.018 1060.9 288.486 989.783 311.535C870.645 350.103 792.251 432.63 746.59 551.738C700.711 671.356 617.296 750.165 498.167 787.635C486.674 791.249 480.646 797.584 476.884 809.095C454.332 878.174 414.654 934.949 360.26 981.64C279.408 1051.01 187.668 1094.2 84.4423 1110.28C81.8029 1110.7 78.9553 1111.31 75.9938 1111.92C65.2604 1114.21 51.6417 1117.36 44.6264 1109.18C38.705 1102.27 41.1276 1093.42 44.6744 1085.63C46.016 1082.71 47.5713 1079.79 49.0545 1076.98C50.4582 1074.32 51.7962 1071.85 52.8483 1069.49C128.715 903.023 252.76 799.479 427.924 764.431C445.142 760.987 451.178 753.768 451.431 735.773C452.919 631.02 407.687 556.115 318.773 509.8C158.164 426.017 57.6966 294.026 19.2474 111.641C12.5585 79.8358 10.298 47.5118 9.08761 12.1969Z" fill="white"/>
</mask>
<g mask="url(#mask6_121_822)">
<mask id="mask7_121_822" style="mask-type:luminance" maskUnits="userSpaceOnUse" x="-1" y="-1" width="1239" height="1117">
<path d="M1237.44 -0.0902294L8.11267 9.13574L-0.841339 1116L1228.49 1106.77L1237.44 -0.0902294Z" fill="white"/>
</mask>
<g mask="url(#mask7_121_822)">
<mask id="mask8_121_822" style="mask-type:luminance" maskUnits="userSpaceOnUse" x="-1" y="0" width="1239" height="1116">
<path d="M8.95288 9.21973L1237.44 6.33257e-05L1228.49 1106.78L-0.000415769 1116L8.95288 9.21973Z" fill="white"/>
</mask>
<g mask="url(#mask8_121_822)">
<mask id="mask9_121_822" style="mask-type:luminance" maskUnits="userSpaceOnUse" x="9" y="9" width="1226" height="1106">
<path d="M94.6302 1069.84C92.951 1061.65 96.2668 1055.99 99.0485 1051.18C99.6628 1050.11 100.241 1049.12 100.783 1048.09C130.064 991.794 167.934 942.832 216.06 902.073C276.224 851.11 343.97 817.45 419.654 801.283C430.951 798.878 439.432 797.636 440.695 804.513C441.411 808.367 439.439 814.377 436.138 822.68C430.502 836.849 424.018 851.032 415.941 864.004C360.275 953.387 280.06 1010.13 185.982 1047.26C184.489 1047.86 182.952 1048.46 181.451 1049.06C179.95 1049.66 178.414 1050.26 176.884 1050.86C151.176 1060.99 124.765 1070.86 96.2854 1071.3L94.8676 1071.31L94.5586 1069.87M98.0492 1069.04L96.3003 1069.46L96.3152 1067.62C124.082 1067.19 149.921 1057.57 175.665 1047.41C177.202 1046.81 178.696 1046.21 180.232 1045.61C181.769 1045.01 183.27 1044.41 184.771 1043.81C278.305 1006.91 357.805 950.57 412.972 862.038C420.868 849.362 427.279 835.408 432.836 821.343C436.29 812.67 437.647 807.806 437.169 805.268C436.726 802.849 433.776 801.987 420.266 804.88C345.153 820.933 277.943 854.33 218.238 904.929C170.513 945.354 132.932 993.945 103.826 1049.82C103.247 1050.93 102.633 1052 102.025 1053.08C99.2078 1057.92 96.6422 1062.43 98.0489 1069.08L98.0492 1069.04ZM12.6448 12.0229C13.8558 47.2641 16.0899 79.3306 22.703 110.812C60.9189 292.087 160.71 423.199 320.468 506.517C410.516 553.487 456.558 629.593 455.022 735.783C454.755 755.583 447.425 764.285 428.572 768.065C254.55 802.89 131.473 905.617 56.078 1071.05C54.9537 1073.52 53.5433 1076.14 52.1684 1078.77C50.6853 1081.57 49.1736 1084.38 47.9041 1087.19C44.3502 1094.98 42.9779 1101.68 47.3186 1106.72C52.711 1112.97 63.6566 1110.87 75.3466 1108.36C78.3084 1107.71 81.2628 1107.1 84.0091 1106.67C186.557 1090.71 277.689 1047.83 358.074 978.858C412.009 932.575 451.256 876.392 473.588 808.015C477.708 795.404 484.563 788.142 497.234 784.143C615.328 746.983 697.881 668.991 743.324 550.437C789.349 430.369 868.534 346.959 988.815 308.007C1060.75 284.694 1132.95 290.376 1204.8 304.184C1206.53 304.539 1208.27 305.005 1209.98 305.471C1211.79 305.965 1213.57 306.431 1215.41 306.785C1219.86 307.636 1224.73 307.746 1230.98 305.203L1231.6 306.922L1230.38 308.293C1211.78 290.513 1190.89 281.11 1168.92 274.616C1121.8 260.652 1073.8 255.017 1025.37 267.121C988.751 276.256 954.945 271.987 920.645 257.492C845.527 225.752 772.766 237.228 703.132 279.688C685.175 290.643 670.641 305.652 663.96 326.671C661.547 334.305 660.104 341.784 666.051 345.532C670.333 348.225 672.921 345.334 676.62 340.71C677.664 339.413 678.743 338.042 679.928 336.929C743.948 276.001 817.158 257.385 899.766 282.779C900.867 283.102 902.004 283.425 903.177 283.748C904.343 284.07 905.551 284.43 906.76 284.781C912.402 286.507 918.366 289.04 923.544 295.438L924.531 296.646L923.489 297.832C916.807 305.609 908.051 310.049 899.795 314.31C895.832 316.357 891.933 318.339 888.324 320.649C809.731 370.579 752.804 438.921 720.194 528.132C699.525 584.609 669.478 634.432 625.588 675.418C592.309 706.462 555 730.105 513.341 746.349C499.698 751.636 491.632 754.422 488.575 745.725C487.217 741.905 486.909 735.875 486.692 727.524C484.074 633.688 448.384 557.615 374.879 502.61C358.004 490.009 339.582 480.064 320.941 470.011C303.725 460.764 286.396 451.4 270.26 439.891C196.913 387.426 137.901 322.414 99.0415 238.307C98.8313 237.866 98.6214 237.389 98.4113 236.949C98.2011 236.508 97.9912 236.031 97.781 235.598C79.5904 196.257 61.5505 156.767 60.267 108.468L60.1543 104.786L63.0582 106.9C68.5756 110.902 73.9511 114.839 79.2631 118.695C84.3551 122.45 89.3765 126.132 94.37 129.733C100.313 134.027 106.22 138.217 112.165 142.253C194.135 198.005 285.571 223.148 383.278 234.111C513.769 248.732 604.219 360.528 602.263 496.712C602.246 498.767 601.8 501.091 601.426 503.303C601.015 505.663 600.605 507.869 600.589 509.82C600.529 512.914 601.333 514.779 604.034 515.532C611.241 517.614 615.389 510.409 619.621 502.43C620.055 501.617 620.453 500.84 620.887 500.064C634.829 474.571 630.523 447.602 624.834 420.82C599.536 301.884 491.566 208.728 373.344 200.048C242.456 190.394 131.038 136.816 39.9686 39.9312C38.1673 38.0297 36.4382 36.0173 34.7158 34.0416C32.9156 32.0001 31.1514 29.9143 29.2441 27.9031C24.2005 22.5717 18.4065 17.5331 10.1439 13.8094L10.8701 12.1099L12.6448 12.0229ZM9.08835 12.1969L9.00525 9.25879L11.6319 10.4102C20.4552 14.3949 26.6097 19.7916 31.8299 25.3059C33.7722 27.3904 35.6002 29.5126 37.4004 31.5614C39.1296 33.5665 40.8237 35.5056 42.5544 37.3339C133.017 133.568 243.625 186.784 373.659 196.326C493.34 205.106 602.684 299.319 628.332 419.91C634.022 446.655 638.702 474.91 624.001 501.771C623.603 502.511 623.205 503.287 622.771 504.064C619.125 510.97 613.557 521.972 603.08 519.001C598.218 517.601 597.039 513.677 597.106 509.736C597.125 507.416 597.609 504.879 597.983 502.593C598.358 500.307 598.73 498.315 598.744 496.628C600.679 362.212 511.462 252.1 382.893 237.686C284.83 226.719 192.761 201.44 110.181 145.288C104.166 141.216 98.2581 136.988 92.28 132.695C87.2936 129.086 82.2654 125.375 77.1375 121.657C71.8682 117.801 66.4856 113.864 60.9682 109.862L62.0135 108.344L63.7952 108.257C65.0431 155.673 82.7392 194.502 100.965 233.917C101.175 234.358 101.385 234.835 101.595 235.275C101.798 235.715 102.008 236.185 102.218 236.626C140.763 320.043 199.315 384.61 272.28 436.79C288.203 448.183 305.348 457.4 322.607 466.691C341.177 476.701 359.882 486.754 376.97 499.545C451.431 555.272 487.568 632.41 490.221 727.277C490.472 735.848 490.785 741.222 491.892 744.337C493.494 748.855 496.629 748.868 512.087 742.823C553.317 726.766 590.232 703.385 623.189 672.637C666.611 632.134 696.376 582.836 716.863 526.831C749.8 436.808 807.224 367.836 886.497 317.495C890.285 315.081 894.292 313.025 898.255 311.007C906.618 306.716 914.695 302.531 920.837 295.385L922.145 296.59L920.782 297.779C916.239 292.186 911.028 289.905 905.663 288.288C904.49 287.929 903.324 287.606 902.151 287.283C900.978 286.961 899.841 286.638 898.669 286.278C817.305 261.287 745.373 279.519 682.328 339.636C681.359 340.527 680.424 341.705 679.344 343.039C676.178 346.966 671.432 353.218 664.174 348.677C655.497 343.255 658.363 332.531 660.556 325.555C667.568 303.392 682.89 287.75 701.305 276.505C771.727 233.553 845.665 221.817 921.991 254.057C955.723 268.306 988.781 272.47 1024.55 263.518C1073.76 251.231 1122.44 256.972 1169.9 271.037C1192.16 277.639 1213.62 287.229 1232.76 305.55L1234.84 307.523L1232.2 308.611C1225.23 311.462 1219.61 311.357 1214.67 310.4C1212.69 310.01 1210.77 309.472 1208.99 309.006C1207.25 308.541 1205.66 308.074 1204.06 307.791C1132.42 294.018 1060.9 288.486 989.783 311.535C870.645 350.103 792.252 432.63 746.59 551.738C700.711 671.356 617.297 750.165 498.167 787.635C486.675 791.249 480.647 797.584 476.885 809.095C454.333 878.174 414.655 934.949 360.26 981.64C279.409 1051.01 187.669 1094.2 84.443 1110.28C81.8036 1110.7 78.9561 1111.31 75.9945 1111.92C65.2611 1114.21 51.6424 1117.36 44.6271 1109.18C38.7058 1102.27 41.1284 1093.42 44.6751 1085.63C46.0168 1082.71 47.572 1079.79 49.0553 1076.98C50.4589 1074.32 51.7969 1071.85 52.849 1069.49C128.716 903.023 252.761 799.479 427.924 764.431C445.143 760.987 451.179 753.768 451.431 735.773C452.92 631.02 407.688 556.115 318.774 509.8C158.165 426.017 57.6973 294.026 19.2482 111.641C12.5593 79.8358 10.2988 47.5118 9.08835 12.1969Z" fill="white"/>
</mask>
<g mask="url(#mask9_121_822)">
<path d="M1237.44 -0.0926703L8.11267 9.1333L-0.841338 1116L1228.49 1106.77L1237.44 -0.0926703Z" fill="#FF0066"/>
</g>
</g>
</g>
</g>
</g>
<mask id="mask10_121_822" style="mask-type:luminance" maskUnits="userSpaceOnUse" x="939" y="341" width="526" height="474">
<path d="M943.386 345.293L1464.31 341.384L1460.51 810.906L939.588 814.815L943.386 345.293Z" fill="white"/>
</mask>
<g mask="url(#mask10_121_822)">
<mask id="mask11_121_822" style="mask-type:luminance" maskUnits="userSpaceOnUse" x="942" y="342" width="522" height="469">
<path d="M1419.64 792.43C1420.49 788.601 1418.51 786.259 1417.25 783.764C1405.24 760.123 1389.53 739.64 1369.41 722.682C1344.29 701.496 1315.82 687.657 1283.88 681.268C1275.03 679.5 1274.2 680.575 1277.59 689.41C1279.85 695.395 1282.51 701.334 1285.81 706.715C1308.74 744.18 1342.33 767.696 1381.92 782.814C1394.05 787.437 1406.26 792.42 1419.64 792.43ZM1463.28 342.436C1462.52 357.416 1461.34 371.146 1458.31 384.633C1440.78 462.173 1397.3 518.756 1328.64 555.295C1290.28 575.705 1270.34 608.085 1270.27 652.896C1270.24 660.917 1273.02 664.284 1280.66 665.692C1354.64 679.455 1406.47 722.477 1437.46 792.554C1439.7 797.575 1444.63 804.093 1440.82 808.534C1437.41 812.463 1429.99 809.756 1424.56 808.987C1380.94 802.84 1342.36 785.136 1308.58 756.253C1285.85 736.846 1269.5 713.091 1260.4 684.022C1258.81 678.922 1256.13 676.07 1251.01 674.525C1200.85 659.412 1166.09 626.603 1147.54 576.297C1128.87 525.771 1095.95 490.997 1045.33 475.298C1015.08 465.921 984.491 468.728 953.905 475.063C950.623 475.751 947.373 477.653 942.366 475.629C950.544 467.841 959.583 463.656 969.039 460.75C989.23 454.492 1009.82 451.76 1030.5 456.643C1045.84 460.247 1060.06 458.262 1074.63 451.936C1107.05 437.861 1138.12 442.297 1167.62 460.033C1175.27 464.645 1181.52 471.035 1184.29 480.177C1185.23 483.263 1186.09 487.116 1182.94 489.128C1179.72 491.178 1178.08 487.287 1176.21 485.504C1149.62 460.168 1118.89 452.819 1083.88 464.042C1080.64 465.097 1077.08 465.64 1074.06 469.345C1078.01 473.948 1083.86 475.635 1088.68 478.655C1121.89 499.449 1145.72 528.297 1159.04 566.165C1167.39 589.943 1179.79 610.827 1198.04 627.866C1211.89 640.791 1227.5 650.565 1245.03 657.136C1254.4 660.667 1255.01 660.111 1255.45 649.663C1257.23 609.546 1273.01 576.755 1304.85 552.748C1318.92 542.118 1335.41 535.741 1349.77 525.403C1381.23 502.688 1406.66 474.796 1423.67 438.939C1431.86 421.694 1440.07 404.641 1440.95 383.805C1433.54 389.201 1426.77 394.363 1419.83 399.159C1384.47 423.449 1345.3 434.784 1303.62 440.061C1248.44 447.06 1209.51 494.814 1209.41 552.286C1209.42 555.269 1211.52 559.996 1207.98 561.054C1203.81 562.301 1201.82 557.454 1200.06 554.234C1194.18 543.201 1196.27 531.416 1198.85 520.024C1210.51 468.947 1257.31 428.418 1307.95 423.95C1363.48 419.048 1411.03 395.66 1450.3 354.009C1453.93 350.159 1457.02 345.496 1463.39 342.546" fill="white"/>
</mask>
<g mask="url(#mask11_121_822)">
<mask id="mask12_121_822" style="mask-type:luminance" maskUnits="userSpaceOnUse" x="938" y="341" width="527" height="474">
<path d="M1464.31 341.386L942.669 345.301L938.871 814.823L1460.51 810.908L1464.31 341.386Z" fill="white"/>
</mask>
<g mask="url(#mask12_121_822)">
<mask id="mask13_121_822" style="mask-type:luminance" maskUnits="userSpaceOnUse" x="939" y="342" width="525" height="473">
<path d="M943.38 346.034L1463.65 342.13L1459.86 810.9L939.588 814.805L943.38 346.034Z" fill="white"/>
</mask>
<g mask="url(#mask13_121_822)">
<mask id="mask14_121_822" style="mask-type:luminance" maskUnits="userSpaceOnUse" x="942" y="342" width="522" height="469">
<path d="M1419.64 792.417C1420.49 788.588 1418.51 786.246 1417.25 783.751C1405.24 760.11 1389.53 739.627 1369.41 722.669C1344.29 701.483 1315.82 687.644 1283.88 681.255C1275.03 679.487 1274.2 680.561 1277.59 689.396C1279.85 695.382 1282.51 701.321 1285.81 706.702C1308.74 744.167 1342.33 767.682 1381.92 782.801C1394.05 787.424 1406.26 792.407 1419.64 792.417ZM1463.28 342.423C1462.52 357.403 1461.34 371.133 1458.31 384.619C1440.78 462.16 1397.3 518.743 1328.64 555.282C1290.28 575.691 1270.34 608.072 1270.27 652.883C1270.24 660.904 1273.02 664.271 1280.66 665.679C1354.64 679.442 1406.47 722.464 1437.46 792.541C1439.7 797.562 1444.63 804.08 1440.82 808.52C1437.41 812.45 1429.99 809.743 1424.56 808.974C1380.94 802.827 1342.36 785.123 1308.58 756.24C1285.85 736.833 1269.5 713.078 1260.4 684.009C1258.81 678.909 1256.13 676.057 1251.01 674.512C1200.85 659.399 1166.09 626.59 1147.54 576.284C1128.87 525.758 1095.95 490.983 1045.33 475.285C1015.08 465.907 984.491 468.715 953.905 475.05C950.623 475.738 947.373 477.64 942.366 475.616C950.544 467.828 959.583 463.643 969.039 460.736C989.23 454.479 1009.82 451.747 1030.5 456.629C1045.84 460.234 1060.06 458.249 1074.63 451.923C1107.05 437.848 1138.12 442.284 1167.62 460.019C1175.27 464.632 1181.52 471.022 1184.29 480.164C1185.23 483.25 1186.09 487.103 1182.94 489.115C1179.72 491.165 1178.08 487.274 1176.21 485.49C1149.62 460.155 1118.89 452.806 1083.88 464.029C1080.64 465.084 1077.08 465.626 1074.06 469.332C1078.01 473.935 1083.86 475.622 1088.68 478.642C1121.89 499.436 1145.72 528.283 1159.04 566.151C1167.39 589.93 1179.79 610.814 1198.04 627.852C1211.89 640.778 1227.5 650.552 1245.03 657.123C1254.4 660.654 1255.01 660.097 1255.45 649.65C1257.23 609.533 1273.01 576.742 1304.85 552.735C1318.92 542.104 1335.41 535.728 1349.77 525.389C1381.23 502.674 1406.66 474.783 1423.67 438.926C1431.86 421.681 1440.07 404.628 1440.95 383.792C1433.54 389.188 1426.77 394.35 1419.83 399.145C1384.47 423.436 1345.3 434.771 1303.62 440.048C1248.44 447.047 1209.51 494.801 1209.41 552.273C1209.42 555.256 1211.52 559.983 1207.98 561.041C1203.81 562.287 1201.82 557.441 1200.06 554.221C1194.18 543.188 1196.27 531.402 1198.85 520.011C1210.51 468.934 1257.31 428.405 1307.95 423.937C1363.48 419.035 1411.03 395.647 1450.3 353.996C1453.93 350.146 1457.02 345.483 1463.39 342.533" fill="white"/>
</mask>
<g mask="url(#mask14_121_822)">
<path d="M1464.31 341.383L942.669 345.298L938.871 814.82L1460.51 810.905L1464.31 341.383Z" fill="#FF0066"/>
</g>
</g>
</g>
</g>
</g>
<mask id="mask15_121_822" style="mask-type:luminance" maskUnits="userSpaceOnUse" x="932" y="335" width="537" height="484">
<path d="M936.325 339.968L1468 335.978L1464.13 814.656L932.452 818.646L936.325 339.968Z" fill="white"/>
</mask>
<g mask="url(#mask15_121_822)">
<mask id="mask16_121_822" style="mask-type:luminance" maskUnits="userSpaceOnUse" x="935" y="336" width="532" height="479">
<path d="M1416.19 791.644C1416.56 790.021 1416.07 789.038 1414.91 786.984C1414.67 786.544 1414.39 786.031 1414.11 785.517C1402.3 762.28 1386.88 742.163 1367.16 725.533C1342.45 704.705 1314.55 691.156 1283.18 684.881C1279.83 684.206 1278.52 684.179 1278.1 684.256C1278.35 684.181 1279.13 683.733 1279.31 682.848C1279.31 682.774 1279.31 682.737 1279.31 682.737C1279.31 683.179 1279.58 684.613 1280.91 687.991C1283.14 693.859 1285.7 699.541 1288.85 704.702C1311.3 741.331 1344.14 764.447 1383.24 779.385C1383.88 779.638 1384.51 779.891 1385.15 780.107C1385.79 780.324 1386.43 780.613 1387.06 780.83C1397.96 784.975 1408.46 788.727 1419.67 788.716L1419.61 792.392L1416.12 791.608M1423.05 793.139L1422.38 796.054L1419.51 796.038C1406.83 796.023 1395.27 791.801 1384.44 787.692C1383.81 787.439 1383.17 787.186 1382.5 786.933C1381.82 786.68 1381.22 786.427 1380.58 786.211C1340.45 770.875 1306.16 746.923 1282.74 708.652C1279.26 702.977 1276.53 696.811 1274.2 690.723C1273.05 687.719 1272 684.781 1272.13 682.423C1272.13 682.091 1272.17 681.723 1272.24 681.391C1272.72 678.927 1274.52 677.514 1276.52 677.02C1278.69 676.489 1281.6 676.982 1284.55 677.586C1317.06 684.074 1346.06 698.167 1371.61 719.718C1392.11 737.005 1408.1 757.898 1420.33 781.935C1420.51 782.302 1420.72 782.669 1421 783.109C1422.15 785.125 1424.12 788.425 1423.05 793.103L1423.05 793.139ZM1466.77 342.482C1466.01 357.535 1464.82 371.524 1461.69 385.342C1443.9 463.953 1399.74 521.425 1330.11 558.479C1292.94 578.261 1273.79 609.383 1273.72 652.795C1273.7 659.011 1275.26 660.878 1281.26 662.011C1356.42 675.979 1409.16 719.804 1440.61 790.908C1441 791.789 1441.53 792.78 1442.12 793.917C1442.72 795.054 1443.42 796.375 1444.01 797.725C1445.48 801.029 1447.25 806.422 1443.41 810.906C1439.02 815.977 1431.17 813.974 1427.41 813.192C1426.13 812.944 1424.99 812.702 1424 812.562C1379.71 806.302 1340.52 788.316 1306.24 759.023C1283.06 739.223 1266.28 714.881 1256.98 685.114C1255.74 681.109 1253.9 679.179 1249.92 677.993C1198.73 662.557 1163.13 628.973 1144.15 577.573C1125.83 527.966 1093.68 494.106 1044.2 478.73C1014.77 469.604 984.893 472.288 954.486 478.556C953.915 478.671 953.344 478.823 952.594 479.049C951.844 479.276 950.916 479.54 949.953 479.732C947.455 480.259 944.505 480.355 940.954 478.952L935.67 476.856L939.87 472.847C948.579 464.54 958.19 460.13 967.932 457.111C988.48 450.74 1009.75 447.9 1031.2 452.961C1045.7 456.38 1059.17 454.518 1073.16 448.447C1106.77 433.848 1139.04 438.577 1169.29 456.741C1177.44 461.652 1184.42 468.699 1187.51 478.936C1188.24 481.361 1190.42 488.408 1184.59 492.134C1182.3 493.588 1179.96 493.605 1177.93 492.479C1176.34 491.57 1175.14 489.996 1174.55 489.264C1174.09 488.678 1173.81 488.349 1173.56 488.129L1176 485.43L1173.56 488.166C1147.88 463.707 1118.47 456.644 1084.68 467.496C1084.14 467.647 1083.62 467.835 1083.15 467.949C1082.69 468.063 1082.19 468.251 1081.72 468.365C1079.65 469.044 1078.04 469.792 1076.57 471.6L1073.89 469.271L1076.57 466.82C1078.72 469.308 1081.6 470.834 1085.21 472.64C1086.84 473.475 1088.65 474.382 1090.39 475.437C1124.23 496.631 1148.59 526.101 1162.19 564.814C1170.4 588.152 1182.47 608.485 1200.28 625.056C1213.81 637.682 1229.03 647.209 1246.13 653.628C1250.03 655.109 1251.42 655.43 1251.92 655.352C1251.63 655.391 1251.2 655.689 1251.06 655.948C1251.06 655.948 1251.06 655.911 1251.1 655.874C1251.39 655.062 1251.58 653.329 1251.75 649.505C1253.58 608.32 1269.87 574.457 1302.64 549.707C1310.19 544.023 1318.37 539.513 1326.31 535.182C1333.74 531.119 1340.93 527.161 1347.59 522.331C1378.63 499.914 1403.62 472.46 1420.31 437.269C1420.38 437.092 1420.49 436.907 1420.56 436.722C1420.63 436.537 1420.74 436.352 1420.81 436.168C1428.85 419.219 1436.39 403.121 1437.22 383.611L1440.77 383.732L1442.78 386.736C1440.38 388.485 1438.09 390.189 1435.8 391.863C1433.58 393.5 1431.4 395.1 1429.21 396.7C1426.67 398.553 1424.13 400.377 1421.55 402.127C1385.59 426.865 1345.81 438.307 1303.77 443.631C1250.52 450.394 1212.85 496.445 1212.75 552.149C1212.75 552.591 1212.85 553.179 1212.98 554.21C1213.12 555.129 1213.36 556.446 1213.35 557.735C1213.34 558.361 1213.3 559.024 1213.12 559.762C1212.6 561.939 1211.17 563.791 1208.67 564.539C1201.61 566.654 1198.25 559.027 1197.2 556.935C1197.02 556.605 1196.85 556.282 1196.71 555.989C1190.08 543.599 1192.57 530.521 1195.16 519.167C1207.18 466.466 1255.35 424.822 1307.49 420.24C1362.16 415.411 1408.89 392.397 1447.55 351.413C1448.27 350.679 1448.95 349.864 1449.7 349.011C1450.46 348.158 1451.29 347.195 1452.18 346.23C1454.59 343.671 1457.53 341.079 1461.75 339.132L1466.99 336.699L1466.7 342.63M1459.58 342.352L1463.14 342.473L1464.53 345.843C1461.43 347.266 1459.24 349.197 1457.19 351.341C1456.4 352.157 1455.68 353.01 1454.9 353.899C1454.15 354.752 1453.35 355.642 1452.56 356.532C1412.72 398.805 1364.34 422.605 1307.93 427.595C1258.78 431.933 1213.3 471.348 1202.05 520.772C1199.43 532.238 1197.74 542.694 1202.9 552.37C1203.07 552.7 1203.25 553.067 1203.42 553.397C1205.59 557.572 1206.23 557.641 1206.73 557.49C1206.55 557.528 1206.19 557.899 1206.16 558.194C1206.16 558.194 1206.19 558.083 1206.19 557.862C1206.2 557.31 1206.1 556.611 1205.93 555.588C1205.79 554.742 1205.59 553.492 1205.6 552.313C1205.69 493.044 1245.91 443.623 1302.98 436.389C1344.3 431.144 1382.9 419.969 1417.65 396.087C1420.16 394.375 1422.63 392.588 1425.13 390.765C1427.28 389.21 1429.46 387.61 1431.65 385.973C1433.94 384.262 1436.27 382.55 1438.67 380.809L1444.57 376.529L1444.26 383.926C1443.34 405.167 1435.12 422.626 1427.12 439.427C1427.05 439.612 1426.94 439.797 1426.87 439.982C1426.8 440.166 1426.69 440.351 1426.61 440.536C1409.27 477.051 1383.39 505.432 1351.53 528.445C1344.44 533.572 1336.82 537.717 1329.46 541.779C1321.45 546.185 1313.7 550.434 1306.64 555.746C1275.78 579.053 1260.47 610.728 1258.73 649.814C1258.59 653.203 1258.42 656.298 1257.62 658.469C1257.51 658.801 1257.37 659.097 1257.19 659.43C1256.18 661.389 1254.5 662.543 1252.39 662.78C1249.9 663.057 1246.71 661.865 1243.48 660.638C1225.53 653.893 1209.52 643.856 1195.36 630.646C1176.57 613.162 1163.93 591.736 1155.41 567.516C1142.36 530.456 1119.1 502.26 1086.52 481.867C1085.14 480.993 1083.62 480.231 1081.92 479.36C1078.51 477.662 1074.3 475.595 1071.09 471.826L1069.08 469.454L1071.09 467.009C1073.86 463.637 1077 462.295 1079.64 461.465C1080.18 461.277 1080.75 461.125 1081.25 460.974C1081.75 460.823 1082.21 460.709 1082.64 460.558C1118.89 448.951 1150.93 456.621 1178.4 482.797C1179.04 483.419 1179.64 484.151 1180.03 484.663C1180.87 485.725 1181.19 486.047 1181.37 486.156C1181.09 486.011 1180.73 486.161 1180.87 486.049C1181.3 485.795 1181.8 485.166 1180.66 481.381C1178.23 473.342 1172.73 467.572 1165.57 463.28C1136.89 446.062 1106.95 441.83 1075.74 455.388C1060.6 461.976 1045.6 464.107 1029.44 460.295C1009.58 455.627 989.631 458.2 969.797 464.344C960.662 467.175 952.159 471.142 944.556 478.41L942.155 475.739L943.466 472.305C945.49 473.1 947.022 473.051 948.513 472.746C949.191 472.593 949.834 472.404 950.619 472.177C951.333 471.988 952.19 471.731 953.047 471.54C983.847 465.159 1015.12 462.207 1046.17 471.865C1097.94 487.924 1131.63 523.584 1150.65 575.057C1168.82 624.335 1202.73 656.311 1251.86 671.136C1258.15 673.041 1261.68 676.764 1263.62 683.002C1272.46 711.381 1288.43 734.55 1310.7 753.584C1344 782.037 1381.97 799.48 1424.94 805.521C1426.19 805.696 1427.54 805.98 1428.75 806.229C1434.47 807.364 1437.03 807.456 1438.03 806.307L1440.68 808.754L1438.03 806.343C1438.61 805.676 1438.9 804.466 1437.43 801.2C1436.95 800.098 1436.39 798.998 1435.76 797.824C1435.2 796.731 1434.56 795.557 1434.07 794.419C1403.53 725.407 1352.63 683.144 1279.81 669.601C1270.54 667.866 1266.52 663.079 1266.53 653.254C1266.62 607.007 1287.32 573.332 1326.85 552.324C1394.58 516.271 1437.38 460.614 1454.66 384.18C1457.64 371.025 1458.78 357.59 1459.54 342.647L1459.58 342.352Z" fill="white"/>
</mask>
<g mask="url(#mask16_121_822)">
<mask id="mask17_121_822" style="mask-type:luminance" maskUnits="userSpaceOnUse" x="931" y="335" width="538" height="484">
<path d="M1468 335.701L935.414 339.698L931.539 818.648L1464.13 814.651L1468 335.701Z" fill="white"/>
</mask>
<g mask="url(#mask17_121_822)">
<mask id="mask18_121_822" style="mask-type:luminance" maskUnits="userSpaceOnUse" x="932" y="336" width="536" height="483">
<path d="M936.649 340.667L1467.19 336.685L1463.32 814.656L932.782 818.637L936.649 340.667Z" fill="white"/>
</mask>
<g mask="url(#mask18_121_822)">
<mask id="mask19_121_822" style="mask-type:luminance" maskUnits="userSpaceOnUse" x="935" y="336" width="532" height="479">
<path d="M1416.19 791.644C1416.56 790.021 1416.07 789.038 1414.91 786.984C1414.66 786.544 1414.39 786.031 1414.11 785.517C1402.3 762.28 1386.88 742.163 1367.15 725.533C1342.45 704.705 1314.55 691.156 1283.17 684.881C1279.83 684.206 1278.52 684.179 1278.09 684.256C1278.34 684.181 1279.12 683.733 1279.31 682.848C1279.31 682.774 1279.31 682.737 1279.31 682.737C1279.31 683.179 1279.58 684.613 1280.91 687.991C1283.14 693.859 1285.69 699.541 1288.85 704.702C1311.29 741.331 1344.14 764.447 1383.23 779.385C1383.87 779.638 1384.5 779.891 1385.14 780.107C1385.78 780.324 1386.42 780.613 1387.06 780.83C1397.96 784.975 1408.46 788.727 1419.67 788.716L1419.6 792.392L1416.12 791.608M1423.05 793.139L1422.38 796.054L1419.5 796.038C1406.83 796.023 1395.27 791.801 1384.44 787.692C1383.81 787.439 1383.17 787.186 1382.5 786.933C1381.82 786.68 1381.22 786.427 1380.58 786.211C1340.45 770.875 1306.16 746.923 1282.73 708.652C1279.25 702.977 1276.53 696.811 1274.19 690.723C1273.04 687.719 1272 684.781 1272.12 682.423C1272.13 682.091 1272.16 681.723 1272.24 681.391C1272.72 678.927 1274.51 677.514 1276.51 677.02C1278.69 676.489 1281.6 676.982 1284.55 677.586C1317.06 684.074 1346.06 698.167 1371.61 719.718C1392.11 737.005 1408.1 757.898 1420.33 781.935C1420.51 782.302 1420.72 782.669 1421 783.109C1422.15 785.125 1424.12 788.425 1423.05 793.103L1423.05 793.139ZM1466.77 342.482C1466 357.535 1464.82 371.524 1461.69 385.342C1443.9 463.953 1399.73 521.424 1330.11 558.479C1292.94 578.261 1273.78 609.383 1273.72 652.795C1273.7 659.011 1275.25 660.878 1281.26 662.011C1356.41 675.979 1409.16 719.804 1440.61 790.908C1441 791.789 1441.52 792.78 1442.12 793.917C1442.72 795.054 1443.42 796.375 1444.01 797.725C1445.47 801.029 1447.25 806.422 1443.41 810.906C1439.02 815.977 1431.17 813.974 1427.41 813.192C1426.13 812.944 1424.99 812.702 1423.99 812.562C1379.7 806.302 1340.52 788.316 1306.24 759.023C1283.06 739.223 1266.28 714.881 1256.98 685.114C1255.73 681.109 1253.9 679.179 1249.92 677.993C1198.73 662.557 1163.13 628.973 1144.14 577.573C1125.83 527.966 1093.68 494.106 1044.2 478.73C1014.77 469.604 984.891 472.288 954.483 478.556C953.913 478.671 953.341 478.823 952.592 479.049C951.842 479.276 950.913 479.54 949.95 479.732C947.452 480.259 944.502 480.355 940.951 478.952L935.668 476.856L939.868 472.847C948.577 464.54 958.188 460.13 967.929 457.111C988.478 450.74 1009.75 447.9 1031.2 452.961C1045.7 456.38 1059.16 454.518 1073.16 448.447C1106.77 433.848 1139.04 438.577 1169.29 456.741C1177.43 461.652 1184.42 468.699 1187.51 478.936C1188.24 481.361 1190.42 488.408 1184.59 492.134C1182.3 493.588 1179.95 493.605 1177.93 492.479C1176.34 491.57 1175.14 489.996 1174.54 489.264C1174.09 488.678 1173.8 488.349 1173.56 488.129L1175.99 485.43L1173.56 488.166C1147.88 463.707 1118.47 456.644 1084.68 467.496C1084.14 467.647 1083.61 467.835 1083.15 467.949C1082.68 468.063 1082.18 468.251 1081.72 468.365C1079.65 469.044 1078.04 469.792 1076.56 471.6L1073.88 469.271L1076.57 466.82C1078.72 469.308 1081.59 470.834 1085.21 472.64C1086.84 473.475 1088.65 474.382 1090.38 475.437C1124.23 496.631 1148.58 526.101 1162.19 564.814C1170.4 588.152 1182.47 608.485 1200.28 625.056C1213.8 637.682 1229.03 647.209 1246.13 653.628C1250.03 655.109 1251.42 655.43 1251.92 655.352C1251.63 655.391 1251.2 655.689 1251.06 655.948C1251.06 655.948 1251.06 655.911 1251.09 655.874C1251.39 655.062 1251.58 653.329 1251.75 649.505C1253.58 608.32 1269.87 574.457 1302.63 549.707C1310.19 544.023 1318.37 539.513 1326.31 535.182C1333.74 531.119 1340.93 527.161 1347.59 522.331C1378.63 499.914 1403.61 472.46 1420.3 437.269C1420.38 437.092 1420.49 436.907 1420.56 436.722C1420.63 436.537 1420.74 436.352 1420.81 436.168C1428.85 419.219 1436.38 403.121 1437.22 383.611L1440.77 383.732L1442.78 386.736C1440.38 388.485 1438.09 390.189 1435.8 391.863C1433.57 393.5 1431.4 395.1 1429.21 396.7C1426.67 398.553 1424.13 400.377 1421.55 402.127C1385.59 426.865 1345.81 438.307 1303.77 443.631C1250.52 450.394 1212.84 496.445 1212.75 552.149C1212.75 552.591 1212.85 553.179 1212.98 554.21C1213.12 555.129 1213.36 556.446 1213.35 557.735C1213.34 558.361 1213.3 559.024 1213.12 559.762C1212.6 561.939 1211.17 563.791 1208.67 564.539C1201.6 566.654 1198.25 559.027 1197.19 556.935C1197.02 556.605 1196.84 556.282 1196.71 555.989C1190.08 543.599 1192.57 530.521 1195.16 519.167C1207.18 466.466 1255.35 424.822 1307.49 420.24C1362.15 415.411 1408.89 392.397 1447.55 351.413C1448.26 350.679 1448.95 349.864 1449.7 349.011C1450.46 348.158 1451.28 347.195 1452.18 346.23C1454.59 343.671 1457.52 341.079 1461.74 339.132L1466.99 336.699L1466.69 342.63M1459.58 342.352L1463.14 342.473L1464.53 345.843C1461.43 347.266 1459.24 349.197 1457.19 351.341C1456.4 352.157 1455.68 353.01 1454.9 353.899C1454.14 354.752 1453.35 355.642 1452.56 356.532C1412.71 398.805 1364.34 422.605 1307.93 427.595C1258.78 431.933 1213.3 471.348 1202.05 520.772C1199.42 532.238 1197.74 542.694 1202.89 552.37C1203.07 552.7 1203.25 553.067 1203.42 553.397C1205.59 557.572 1206.23 557.641 1206.73 557.49C1206.55 557.528 1206.19 557.899 1206.15 558.194C1206.15 558.194 1206.19 558.083 1206.19 557.862C1206.2 557.31 1206.09 556.611 1205.92 555.588C1205.79 554.742 1205.59 553.492 1205.6 552.313C1205.68 493.044 1245.91 443.623 1302.98 436.389C1344.3 431.144 1382.9 419.969 1417.65 396.087C1420.15 394.375 1422.63 392.588 1425.13 390.765C1427.28 389.21 1429.46 387.61 1431.65 385.973C1433.93 384.262 1436.26 382.55 1438.66 380.809L1444.57 376.529L1444.26 383.926C1443.34 405.167 1435.12 422.626 1427.12 439.427C1427.05 439.612 1426.94 439.797 1426.87 439.982C1426.79 440.166 1426.68 440.351 1426.61 440.536C1409.27 477.051 1383.38 505.432 1351.52 528.445C1344.44 533.572 1336.82 537.717 1329.46 541.779C1321.45 546.185 1313.69 550.434 1306.64 555.746C1275.77 579.053 1260.46 610.728 1258.72 649.814C1258.59 653.203 1258.42 656.298 1257.62 658.469C1257.51 658.801 1257.37 659.097 1257.18 659.43C1256.18 661.389 1254.5 662.543 1252.39 662.78C1249.9 663.057 1246.71 661.865 1243.48 660.638C1225.53 653.893 1209.52 643.856 1195.36 630.646C1176.56 613.162 1163.93 591.736 1155.4 567.516C1142.36 530.456 1119.1 502.26 1086.52 481.867C1085.14 480.993 1083.62 480.231 1081.92 479.36C1078.51 477.662 1074.3 475.595 1071.08 471.826L1069.07 469.454L1071.09 467.009C1073.86 463.637 1077 462.295 1079.64 461.465C1080.17 461.277 1080.75 461.125 1081.25 460.974C1081.75 460.823 1082.21 460.709 1082.64 460.558C1118.89 448.951 1150.93 456.621 1178.4 482.797C1179.04 483.419 1179.64 484.151 1180.02 484.663C1180.87 485.725 1181.19 486.047 1181.37 486.156C1181.08 486.011 1180.73 486.161 1180.87 486.049C1181.3 485.795 1181.8 485.166 1180.66 481.381C1178.23 473.342 1172.73 467.572 1165.57 463.28C1136.89 446.062 1106.95 441.83 1075.74 455.388C1060.6 461.976 1045.6 464.107 1029.44 460.295C1009.58 455.627 989.628 458.2 969.795 464.344C960.66 467.175 952.157 471.142 944.553 478.41L942.153 475.739L943.463 472.305C945.487 473.1 947.019 473.051 948.51 472.746C949.188 472.593 949.831 472.404 950.617 472.177C951.331 471.988 952.188 471.731 953.044 471.54C983.844 465.159 1015.12 462.207 1046.17 471.865C1097.93 487.924 1131.63 523.584 1150.65 575.057C1168.82 624.335 1202.73 656.311 1251.86 671.136C1258.14 673.041 1261.68 676.764 1263.62 683.002C1272.46 711.381 1288.43 734.55 1310.7 753.584C1343.99 782.037 1381.97 799.48 1424.94 805.521C1426.19 805.696 1427.54 805.98 1428.75 806.229C1434.47 807.364 1437.02 807.456 1438.03 806.307L1440.68 808.754L1438.03 806.343C1438.6 805.676 1438.9 804.466 1437.43 801.2C1436.95 800.098 1436.39 798.998 1435.75 797.824C1435.19 796.731 1434.56 795.557 1434.07 794.419C1403.53 725.407 1352.62 683.144 1279.81 669.601C1270.54 667.866 1266.52 663.079 1266.52 653.254C1266.61 607.007 1287.32 573.332 1326.84 552.324C1394.57 516.271 1437.38 460.614 1454.65 384.18C1457.64 371.025 1458.78 357.59 1459.54 342.647L1459.58 342.352Z" fill="white"/>
</mask>
<g mask="url(#mask19_121_822)">
<path d="M1468 335.701L935.414 339.698L931.539 818.648L1464.13 814.651L1468 335.701Z" fill="#FF0066"/>
</g>
</g>
</g>
</g>
</g>
</svg>
