<svg width="760" height="600" viewBox="0 0 760 600" fill="none" xmlns="http://www.w3.org/2000/svg">
<mask id="mask0_200_573" style="mask-type:luminance" maskUnits="userSpaceOnUse" x="0" y="0" width="638" height="599">
<path d="M0.511017 0.97406H637.685V598.699H0.511017V0.97406Z" fill="white"/>
</mask>
<g mask="url(#mask0_200_573)">
<mask id="mask1_200_573" style="mask-type:luminance" maskUnits="userSpaceOnUse" x="1" y="1" width="636" height="598">
<path d="M49.9015 574.875C48.8867 569.97 51.3645 566.981 52.9201 563.792C67.8502 533.526 87.2582 507.248 112.014 485.436C142.967 458.164 177.898 440.279 217.029 431.846C227.851 429.511 228.888 430.868 224.67 442.171C221.821 449.806 218.525 457.406 214.44 464.303C186.002 512.293 144.723 542.598 96.1214 562.275C81.2617 568.298 66.2576 574.756 49.9015 574.875ZM1.00381 1.57642C1.78162 20.6784 3.07425 38.1639 6.68176 55.3262C27.3675 154.017 79.9876 225.711 163.631 271.626C210.351 297.266 234.381 338.38 234.051 395.518C233.996 405.747 230.551 410.034 221.192 411.926C130.571 430.15 66.7576 485.536 28.1453 575.155C25.3712 581.593 19.2636 589.946 23.8897 595.53C28.0157 600.515 37.1197 596.987 43.7791 595.949C97.2103 587.675 144.556 564.726 186.168 527.583C214.143 502.622 234.399 472.177 245.781 435.015C247.778 428.497 251.089 424.825 257.363 422.834C318.861 403.093 361.692 360.946 384.911 296.591C408.242 231.994 448.854 187.352 510.926 166.817C548.005 154.556 585.395 157.885 622.751 165.64C626.766 166.478 630.689 168.872 636.867 166.258C626.97 156.412 615.925 151.167 604.414 147.539C579.772 139.764 554.609 136.472 529.301 142.894C510.519 147.659 493.129 145.224 475.366 137.31C435.865 119.665 397.789 125.647 361.562 148.517C352.147 154.456 344.447 162.69 340.988 174.372C339.825 178.32 338.732 183.245 342.562 185.759C346.503 188.35 348.518 183.365 350.851 181.054C383.619 148.497 421.268 138.826 463.988 152.804C467.947 154.097 472.295 154.775 475.958 159.441C471.092 165.364 463.914 167.575 457.995 171.463C417.179 198.3 387.741 235.282 371.074 283.712C360.618 314.113 345.28 340.85 322.746 362.742C305.668 379.349 286.464 391.95 264.986 400.523C253.478 405.109 252.756 404.39 252.311 391.092C250.533 339.952 231.533 298.284 192.846 267.978C175.75 254.584 155.601 246.605 138.174 233.546C99.9141 204.897 69.0873 169.551 48.6274 124.011C38.7642 102.139 28.8861 80.4509 28.0157 53.9332C37.0271 60.7502 45.2199 67.2719 53.7128 73.3106C96.7103 103.955 144.538 118.012 195.454 124.35C262.856 132.744 310.016 193.235 309.572 266.546C309.554 270.373 306.928 276.392 311.239 277.709C316.346 279.266 318.843 273.063 320.987 268.936C328.317 254.819 325.873 239.828 322.802 225.312C309.053 160.299 252.181 109.1 190.294 103.895C122.43 98.1719 64.4834 68.7846 16.8969 16.0925C12.493 11.2072 8.77441 5.28426 1.00381 1.59637" fill="white"/>
</mask>
<g mask="url(#mask1_200_573)">
<mask id="mask2_200_573" style="mask-type:luminance" maskUnits="userSpaceOnUse" x="0" y="0" width="638" height="599">
<path d="M637.685 0.973389H0.510834V598.698H637.685V0.973389Z" fill="white"/>
</mask>
<g mask="url(#mask2_200_573)">
<mask id="mask3_200_573" style="mask-type:luminance" maskUnits="userSpaceOnUse" x="0" y="1" width="637" height="598">
<path d="M0.888824 1.42499H636.926V598.699H0.888824V1.42499Z" fill="white"/>
</mask>
<g mask="url(#mask3_200_573)">
<mask id="mask4_200_573" style="mask-type:luminance" maskUnits="userSpaceOnUse" x="1" y="1" width="636" height="598">
<path d="M49.9012 574.875C48.8863 569.97 51.3642 566.98 52.9198 563.791C67.8499 533.526 87.2578 507.248 112.014 485.436C142.967 458.164 177.898 440.279 217.028 431.846C227.851 429.511 228.888 430.868 224.669 442.171C221.821 449.806 218.525 457.405 214.439 464.302C186.001 512.293 144.722 542.598 96.1211 562.275C81.2614 568.297 66.2572 574.755 49.9012 574.875ZM1.00348 1.57605C1.78128 20.678 3.07391 38.1636 6.68142 55.3258C27.3672 154.017 79.9873 225.711 163.63 271.626C210.35 297.266 234.381 338.379 234.051 395.517C233.995 405.747 230.551 410.034 221.191 411.925C130.57 430.149 66.7572 485.535 28.145 575.154C25.3709 581.592 19.2633 589.946 23.8893 595.529C28.0154 600.515 37.1193 596.986 43.7788 595.949C97.21 587.675 144.556 564.725 186.168 527.583C214.143 502.622 234.399 472.177 245.781 435.015C247.777 428.497 251.089 424.825 257.363 422.833C318.861 403.093 361.692 360.946 384.911 296.591C408.241 231.993 448.854 187.351 510.926 166.817C548.005 154.556 585.395 157.884 622.751 165.639C626.766 166.477 630.688 168.872 636.866 166.258C626.97 156.411 615.925 151.167 604.414 147.539C579.772 139.764 554.608 136.471 529.3 142.893C510.518 147.659 493.129 145.224 475.365 137.309C435.864 119.664 397.789 125.647 361.562 148.517C352.147 154.456 344.447 162.69 340.987 174.372C339.824 178.319 338.732 183.244 342.562 185.759C346.502 188.349 348.517 183.364 350.851 181.053C383.618 148.497 421.268 138.826 463.987 152.803C467.947 154.097 472.295 154.775 475.958 159.441C471.091 165.364 463.913 167.575 457.995 171.462C417.179 198.299 387.741 235.282 371.073 283.711C360.618 314.113 345.28 340.85 322.746 362.742C305.668 379.349 286.464 391.949 264.985 400.522C253.477 405.108 252.755 404.39 252.311 391.091C250.533 339.952 231.532 298.283 192.846 267.978C175.749 254.583 155.601 246.605 138.174 233.546C99.9138 204.897 69.0869 169.551 48.6271 124.011C38.7638 102.139 28.8858 80.4505 28.0154 53.9329C37.0267 60.7499 45.2196 67.2715 53.7124 73.3102C96.71 103.955 144.537 118.012 195.454 124.35C262.856 132.744 310.016 193.234 309.572 266.545C309.553 270.373 306.927 276.392 311.238 277.709C316.346 279.265 318.842 273.063 320.987 268.936C328.317 254.819 325.872 239.828 322.802 225.312C309.053 160.299 252.181 109.1 190.294 103.895C122.429 98.1716 64.4831 68.7842 16.8965 16.0921C12.4927 11.2069 8.77408 5.28389 1.00348 1.59601" fill="white"/>
</mask>
<g mask="url(#mask4_200_573)">
<path d="M637.685 0.973389H0.510742V598.698H637.685V0.973389Z" fill="#FFF4DE"/>
</g>
</g>
</g>
</g>
</g>
<mask id="mask5_200_573" style="mask-type:luminance" maskUnits="userSpaceOnUse" x="0" y="0" width="639" height="600">
<path d="M0 0H638.633V599.721H0V0Z" fill="white"/>
</mask>
<g mask="url(#mask5_200_573)">
<mask id="mask6_200_573" style="mask-type:luminance" maskUnits="userSpaceOnUse" x="0" y="0" width="639" height="600">
<path d="M48.9975 575.095C48.0901 570.648 49.7901 567.599 51.2161 565.005C51.5309 564.426 51.8272 563.891 52.105 563.333C67.0906 532.947 86.5727 506.569 111.422 484.678C142.485 457.306 177.564 439.341 216.843 430.888C222.706 429.631 227.11 428.992 227.795 432.724C228.184 434.815 227.184 438.064 225.503 442.55C222.632 450.205 219.321 457.865 215.176 464.861C186.613 513.071 145.148 543.492 96.3952 563.233C95.6211 563.552 94.8247 563.871 94.0469 564.191C93.2691 564.506 92.4728 564.825 91.6802 565.145C78.3576 570.529 64.6683 575.773 49.8642 575.893H49.1271L48.9605 575.115M50.7716 574.676L49.8642 574.895V573.897C64.2979 573.778 77.6909 568.673 91.032 563.273C91.8284 562.953 92.6025 562.634 93.3988 562.315C94.1951 561.996 94.9729 561.676 95.7507 561.357C144.222 541.74 185.316 511.535 213.624 463.784C217.676 456.947 220.951 449.411 223.78 441.812C225.54 437.126 226.225 434.496 225.966 433.119C225.725 431.806 224.188 431.327 217.176 432.84C178.194 441.233 143.393 459.058 112.566 486.234C87.9245 507.946 68.5907 534.125 53.6939 564.286C53.3976 564.885 53.0828 565.464 52.7717 566.043C51.3272 568.653 50.0123 571.088 50.7716 574.696V574.676ZM1.92576 1.53642C2.70356 20.6384 3.9999 38.0241 7.57037 55.1106C28.2006 153.498 80.6317 224.953 164.038 270.752C211.05 296.571 235.307 338 234.955 395.538C234.899 406.266 231.125 410.952 221.34 412.923C131.015 431.087 67.461 486.254 28.9599 575.594C28.3858 576.931 27.6635 578.344 26.9598 579.76C26.2005 581.273 25.4264 582.79 24.7783 584.306C22.9634 588.513 22.2782 592.141 24.556 594.891C27.3858 598.3 33.0674 597.206 39.1342 595.889C40.6713 595.55 42.2047 595.23 43.6307 595.011C96.8767 586.777 144.074 563.911 185.576 526.865C213.421 502.003 233.588 471.718 244.911 434.755C247 427.938 250.533 424.031 257.104 421.916C318.342 402.259 360.932 360.331 384.059 296.272C407.482 231.395 448.298 186.517 510.666 165.899C547.967 153.558 585.524 156.931 622.936 164.705C623.84 164.905 624.747 165.164 625.636 165.424C626.581 165.699 627.507 165.959 628.466 166.158C630.781 166.637 633.314 166.717 636.552 165.364L636.885 166.298L636.255 167.036C626.507 157.326 615.61 152.145 604.158 148.537C579.605 140.778 554.627 137.529 529.5 143.891C510.5 148.693 492.907 146.242 475.014 138.248C435.827 120.742 398.048 126.665 362.025 149.391C352.736 155.254 345.243 163.329 341.858 174.692C340.636 178.818 339.917 182.866 343.025 184.921C345.262 186.398 346.595 184.841 348.499 182.351C349.036 181.652 349.591 180.914 350.202 180.315C383.229 147.559 421.212 137.769 464.265 151.866C464.839 152.045 465.432 152.225 466.043 152.405C466.65 152.584 467.28 152.784 467.91 152.979C470.85 153.937 473.962 155.334 476.68 158.822L477.199 159.481L476.662 160.12C473.221 164.306 468.687 166.677 464.413 168.952C462.361 170.046 460.343 171.103 458.476 172.341C417.827 199.078 388.518 235.881 371.94 284.091C361.432 314.612 346.021 341.489 323.376 363.52C306.205 380.207 286.908 392.868 265.319 401.501C258.248 404.31 254.066 405.787 252.44 401.062C251.718 398.986 251.533 395.717 251.385 391.191C249.629 340.331 230.755 298.962 192.309 268.856C183.483 261.96 173.864 256.496 164.13 250.972C155.141 245.891 146.093 240.746 137.656 234.444C99.3027 205.715 68.3499 170.245 47.7938 124.51C47.6826 124.27 47.5715 124.011 47.4604 123.772C47.3493 123.532 47.2382 123.273 47.1271 123.037C37.5046 101.644 27.9598 80.1714 27.0895 53.993L27.0154 51.9974L28.5339 53.1549C31.4192 55.346 34.2304 57.5013 37.0083 59.6127C39.6713 61.6681 42.2973 63.6837 44.9085 65.6554C48.016 68.0062 51.105 70.3011 54.2125 72.5123C97.0618 103.057 144.704 117.054 195.546 123.392C263.448 131.846 310.942 192.796 310.498 266.585C310.498 267.699 310.275 268.956 310.09 270.154C309.887 271.431 309.683 272.624 309.683 273.682C309.664 275.358 310.09 276.372 311.498 276.791C315.253 277.948 317.379 274.061 319.546 269.754C319.768 269.315 319.972 268.896 320.194 268.477C327.335 254.719 324.983 240.088 321.913 225.552C308.261 160.998 251.737 110.078 190.239 104.893C122.151 99.1297 64.0016 69.6426 16.2484 16.7709C15.3039 15.7332 14.3965 14.6356 13.4928 13.558C12.5483 12.4444 11.6223 11.3069 10.6223 10.2093C7.97779 7.29974 4.94437 4.5458 0.633132 2.49431L1.00351 1.57633L1.92576 1.53642ZM0.0775603 1.61624L0.0220032 0.0237427L1.39241 0.658347C5.99625 2.85352 9.21857 5.80303 11.9557 8.81241C12.9742 9.94991 13.9335 11.1074 14.878 12.2249C15.7854 13.3185 16.6743 14.3762 17.5818 15.374C65.0165 67.8905 122.744 97.178 190.387 102.877C252.644 108.122 309.887 159.621 323.728 225.073C326.798 239.589 329.35 254.919 321.82 269.415C321.616 269.814 321.413 270.233 321.191 270.652C319.324 274.38 316.476 280.319 311.016 278.667C308.483 277.888 307.853 275.757 307.872 273.622C307.872 272.365 308.112 270.992 308.298 269.754C308.483 268.517 308.668 267.439 308.668 266.525C309.109 193.694 262.263 133.662 195.361 125.328C144.334 118.986 96.3618 104.913 53.1939 74.1487C50.0494 71.9176 46.9604 69.6027 43.8344 67.2519C41.2269 65.2762 38.5972 63.2447 35.9156 61.2091C33.16 59.0978 30.3451 56.9425 27.4598 54.7514L27.9969 53.9332L28.9228 53.8932C29.771 79.5927 39.1342 100.706 48.7753 122.139C48.8864 122.379 48.9975 122.638 49.1086 122.877C49.216 123.117 49.3271 123.372 49.4382 123.612C69.8277 168.972 100.54 204.199 138.693 232.772C147.019 239.01 155.971 244.075 164.982 249.18C174.679 254.68 184.446 260.203 193.383 267.204C232.329 297.705 251.44 339.653 253.218 391.072C253.385 395.717 253.57 398.631 254.159 400.323C255.011 402.778 256.641 402.798 264.652 399.585C286.019 391.052 305.112 378.531 322.116 362.003C344.521 340.231 359.788 313.638 370.203 283.372C386.948 234.723 416.512 197.581 457.513 170.624C459.472 169.331 461.546 168.234 463.598 167.156C467.928 164.865 472.11 162.63 475.273 158.783L475.958 159.441L475.254 160.08C472.869 157.03 470.15 155.773 467.354 154.875C466.743 154.676 466.135 154.496 465.524 154.316C464.913 154.137 464.321 153.957 463.709 153.758C421.305 139.884 383.985 149.471 351.462 181.792C350.962 182.271 350.48 182.905 349.925 183.624C348.295 185.739 345.854 189.108 342.062 186.617C337.528 183.644 338.973 177.845 340.084 174.073C343.636 162.091 351.536 153.678 361.062 147.659C397.493 124.67 435.883 118.611 475.699 136.392C493.296 144.25 510.5 146.641 529.06 141.936C554.59 135.478 579.92 138.786 604.654 146.601C616.255 150.269 627.451 155.554 637.477 165.56L638.57 166.637L637.2 167.216C633.592 168.733 630.67 168.653 628.096 168.114C627.062 167.894 626.062 167.595 625.136 167.336C624.229 167.076 623.399 166.817 622.566 166.657C585.265 158.902 548.06 155.613 511.185 167.815C449.409 188.23 409 232.632 385.763 296.99C362.414 361.624 319.379 403.991 257.604 423.811C251.644 425.723 248.537 429.132 246.629 435.354C235.195 472.696 214.806 503.301 186.724 528.381C144.982 565.643 97.4693 588.673 43.8714 596.967C42.501 597.186 41.0232 597.505 39.4861 597.825C33.9156 599.018 26.8487 600.674 23.1671 596.208C20.0596 592.441 21.2819 587.655 23.093 583.448C23.7782 581.872 24.5746 580.299 25.3338 578.783C26.0524 577.346 26.7376 576.013 27.2746 574.735C66.0165 484.837 130.07 429.232 220.988 410.952C229.925 409.156 233.032 405.268 233.088 395.518C233.421 338.759 209.591 297.984 163.171 272.524C79.3206 226.47 26.5339 154.536 5.77773 55.5456C2.16651 38.2836 0.85536 20.7581 0.0775603 1.61624Z" fill="white"/>
</mask>
<g mask="url(#mask6_200_573)">
<mask id="mask7_200_573" style="mask-type:luminance" maskUnits="userSpaceOnUse" x="-1" y="-1" width="640" height="601">
<path d="M638.633 -0.0479736H-0.437347V599.721H638.633V-0.0479736Z" fill="white"/>
</mask>
<g mask="url(#mask7_200_573)">
<mask id="mask8_200_573" style="mask-type:luminance" maskUnits="userSpaceOnUse" x="-1" y="0" width="640" height="600">
<path d="M-0.00012207 0H638.633V599.721H-0.00012207V0Z" fill="white"/>
</mask>
<g mask="url(#mask8_200_573)">
<mask id="mask9_200_573" style="mask-type:luminance" maskUnits="userSpaceOnUse" x="0" y="0" width="639" height="600">
<path d="M48.9974 575.095C48.09 570.648 49.79 567.599 51.216 565.005C51.5308 564.426 51.8271 563.891 52.1049 563.333C67.0905 532.947 86.5726 506.569 111.421 484.678C142.485 457.306 177.564 439.341 216.843 430.888C222.706 429.631 227.11 428.992 227.795 432.724C228.184 434.815 227.184 438.064 225.503 442.55C222.632 450.205 219.321 457.865 215.176 464.861C186.612 513.071 145.148 543.492 96.3951 563.233C95.621 563.552 94.8247 563.871 94.0469 564.191C93.2691 564.506 92.4727 564.825 91.6801 565.145C78.3575 570.529 64.6682 575.773 49.8641 575.893H49.127L48.9604 575.115M50.7715 574.676L49.8641 574.895V573.897C64.2978 573.778 77.6908 568.673 91.0319 563.273C91.8283 562.953 92.6024 562.634 93.3987 562.315C94.195 561.995 94.9728 561.676 95.7506 561.357C144.222 541.74 185.316 511.534 213.624 463.784C217.676 456.947 220.951 449.411 223.78 441.812C225.54 437.126 226.225 434.496 225.965 433.119C225.725 431.806 224.188 431.327 217.176 432.84C178.194 441.233 143.393 459.058 112.566 486.234C87.9245 507.946 68.5906 534.125 53.6938 564.286C53.3975 564.885 53.0827 565.464 52.7716 566.043C51.3271 568.653 50.0122 571.087 50.7715 574.696V574.676ZM1.92567 1.53635C2.70347 20.6383 3.9998 38.0241 7.57028 55.1105C28.2005 153.498 80.6316 224.953 164.038 270.752C211.05 296.571 235.306 338 234.955 395.538C234.899 406.266 231.125 410.952 221.339 412.923C131.015 431.087 67.4609 486.254 28.9598 575.594C28.3857 576.931 27.6635 578.343 26.9597 579.76C26.2004 581.273 25.4263 582.79 24.7782 584.306C22.9633 588.513 22.2781 592.141 24.556 594.891C27.3857 598.3 33.0673 597.206 39.1342 595.889C40.6712 595.55 42.2046 595.23 43.6306 595.011C96.8766 586.777 144.074 563.911 185.575 526.865C213.421 502.003 233.588 471.718 244.91 434.755C246.999 427.938 250.533 424.031 257.103 421.916C318.342 402.259 360.932 360.331 384.059 296.272C407.482 231.395 448.298 186.517 510.666 165.899C547.967 153.558 585.524 156.931 622.936 164.705C623.84 164.905 624.747 165.164 625.636 165.424C626.581 165.699 627.507 165.959 628.466 166.158C630.781 166.637 633.314 166.717 636.551 165.364L636.885 166.298L636.255 167.036C626.507 157.326 615.61 152.145 604.158 148.537C579.605 140.778 554.627 137.529 529.5 143.891C510.5 148.693 492.907 146.242 475.013 138.248C435.827 120.742 398.048 126.665 362.025 149.391C352.736 155.254 345.243 163.328 341.858 174.691C340.635 178.818 339.917 182.865 343.024 184.921C345.262 186.398 346.595 184.841 348.499 182.351C349.036 181.652 349.591 180.914 350.202 180.315C383.229 147.559 421.212 137.769 464.265 151.866C464.839 152.045 465.432 152.225 466.043 152.404C466.65 152.584 467.28 152.784 467.91 152.979C470.85 153.937 473.962 155.334 476.68 158.822L477.199 159.481L476.662 160.12C473.221 164.306 468.687 166.677 464.413 168.952C462.361 170.046 460.343 171.103 458.476 172.341C417.827 199.078 388.518 235.881 371.94 284.091C361.432 314.612 346.021 341.489 323.376 363.52C306.205 380.207 286.908 392.868 265.318 401.501C258.248 404.31 254.066 405.787 252.44 401.061C251.718 398.986 251.533 395.717 251.385 391.191C249.629 340.331 230.755 298.962 192.309 268.856C183.483 261.959 173.864 256.495 164.13 250.972C155.141 245.891 146.093 240.746 137.656 234.444C99.3026 205.715 68.3498 170.245 47.7937 124.51C47.6825 124.27 47.5714 124.011 47.4603 123.771C47.3492 123.532 47.2381 123.273 47.127 123.037C37.5045 101.644 27.9598 80.1714 27.0894 53.993L27.0153 51.9974L28.5338 53.1548C31.4191 55.346 34.2303 57.5012 37.0082 59.6126C39.6712 61.6681 42.2972 63.6836 44.9084 65.6553C48.0159 68.0061 51.1049 70.3011 54.2124 72.5122C97.0618 103.057 144.704 117.054 195.546 123.392C263.448 131.846 310.942 192.796 310.498 266.585C310.498 267.699 310.275 268.956 310.09 270.153C309.886 271.431 309.683 272.624 309.683 273.682C309.664 275.358 310.09 276.372 311.498 276.791C315.253 277.948 317.379 274.061 319.546 269.754C319.768 269.315 319.972 268.896 320.194 268.477C327.335 254.719 324.983 240.088 321.913 225.552C308.26 160.998 251.737 110.078 190.239 104.893C122.151 99.1297 64.0015 69.6425 16.2483 16.7708C15.3038 15.7331 14.3964 14.6355 13.4927 13.5579C12.5482 12.4444 11.6222 11.3069 10.6222 10.2093C7.9777 7.29968 4.94428 4.54573 0.63304 2.49425L1.00342 1.57627L1.92567 1.53635ZM0.077469 1.61618L0.0219116 0.0236816L1.39232 0.658285C5.99616 2.85346 9.21847 5.80297 11.9556 8.81235C12.9741 9.94985 13.9334 11.1073 14.8779 12.2248C15.7853 13.3184 16.6742 14.3761 17.5817 15.3739C65.0164 67.8904 122.744 97.178 190.387 102.877C252.644 108.122 309.886 159.621 323.728 225.073C326.798 239.589 329.35 254.919 321.82 269.415C321.616 269.814 321.413 270.233 321.19 270.652C319.324 274.38 316.476 280.319 311.016 278.667C308.483 277.888 307.853 275.757 307.872 273.622C307.872 272.365 308.112 270.992 308.297 269.754C308.483 268.517 308.668 267.439 308.668 266.525C309.109 193.694 262.263 133.662 195.361 125.328C144.333 118.986 96.3617 104.913 53.1938 74.1486C50.0493 71.9175 46.9603 69.6026 43.8343 67.2518C41.2268 65.2761 38.5971 63.2446 35.9155 61.2091C33.1599 59.0977 30.345 56.9425 27.4597 54.7513L27.9968 53.9331L28.9227 53.8932C29.7709 79.5926 39.1342 100.706 48.7752 122.139C48.8863 122.379 48.9974 122.638 49.1085 122.877C49.2159 123.117 49.327 123.372 49.4382 123.612C69.8276 168.972 100.54 204.199 138.693 232.772C147.019 239.01 155.971 244.075 164.982 249.18C174.679 254.679 184.446 260.203 193.383 267.204C232.329 297.705 251.44 339.653 253.218 391.071C253.385 395.717 253.57 398.631 254.159 400.323C255.011 402.778 256.64 402.798 264.652 399.585C286.019 391.052 305.112 378.531 322.116 362.003C344.521 340.231 359.788 313.638 370.203 283.372C386.948 234.723 416.512 197.581 457.513 170.624C459.472 169.331 461.546 168.234 463.598 167.156C467.928 164.865 472.11 162.63 475.273 158.782L475.958 159.441L475.254 160.08C472.869 157.03 470.15 155.773 467.354 154.875C466.743 154.675 466.135 154.496 465.524 154.316C464.913 154.137 464.321 153.957 463.709 153.757C421.304 139.884 383.985 149.471 351.462 181.792C350.962 182.271 350.48 182.905 349.925 183.624C348.295 185.739 345.854 189.108 342.061 186.617C337.528 183.644 338.972 177.845 340.084 174.073C343.636 162.091 351.536 153.678 361.062 147.659C397.493 124.669 435.883 118.611 475.699 136.392C493.295 144.25 510.5 146.641 529.059 141.936C554.59 135.478 579.92 138.786 604.654 146.601C616.255 150.269 627.451 155.554 637.477 165.56L638.57 166.637L637.2 167.216C633.592 168.733 630.67 168.653 628.096 168.114C627.062 167.894 626.062 167.595 625.136 167.336C624.229 167.076 623.399 166.817 622.566 166.657C585.265 158.902 548.06 155.613 511.185 167.815C449.409 188.23 409 232.632 385.763 296.99C362.414 361.624 319.379 403.991 257.603 423.811C251.644 425.723 248.537 429.132 246.629 435.354C235.195 472.696 214.806 503.301 186.724 528.381C144.982 565.643 97.4692 588.673 43.8713 596.967C42.5009 597.186 41.0231 597.505 39.486 597.825C33.9155 599.018 26.8486 600.674 23.167 596.208C20.0595 592.44 21.2818 587.655 23.0929 583.448C23.7782 581.872 24.5745 580.299 25.3338 578.783C26.0523 577.346 26.7375 576.013 27.2746 574.735C66.0164 484.837 130.07 429.232 220.988 410.952C229.925 409.156 233.032 405.268 233.088 395.518C233.421 338.759 209.591 297.984 163.171 272.524C79.3205 226.47 26.5338 154.536 5.77763 55.5455C2.16642 38.2835 0.855269 20.7581 0.077469 1.61618Z" fill="white"/>
</mask>
<g mask="url(#mask9_200_573)">
<path d="M638.633 -0.0478516H-0.437439V599.721H638.633V-0.0478516Z" fill="#FFF4DE"/>
</g>
</g>
</g>
</g>
</g>
<mask id="mask10_200_573" style="mask-type:luminance" maskUnits="userSpaceOnUse" x="487" y="185" width="272" height="256">
<path d="M487.299 185.911H758.103V440.327H487.299V185.911Z" fill="white"/>
</mask>
<g mask="url(#mask10_200_573)">
<mask id="mask11_200_573" style="mask-type:luminance" maskUnits="userSpaceOnUse" x="487" y="186" width="271" height="255">
<path d="M736.777 430.15C737.203 428.078 736.166 426.801 735.499 425.444C729.154 412.584 720.902 401.421 710.372 392.149C697.22 380.567 682.364 372.952 665.73 369.36C661.123 368.366 660.697 368.944 662.493 373.746C663.693 376.999 665.101 380.228 666.841 383.157C678.919 403.552 696.479 416.432 717.128 424.786C723.454 427.34 729.821 430.09 736.777 430.15ZM757.574 186.478C757.24 194.592 756.685 202.028 755.166 209.324C746.377 251.271 724.01 281.756 688.468 301.277C668.615 312.181 658.385 329.647 658.534 353.929C658.552 358.276 660.011 360.112 663.989 360.906C702.509 368.665 729.636 392.189 746.044 430.29C747.229 433.02 749.818 436.572 747.858 438.962C746.099 441.078 742.232 439.581 739.403 439.142C716.702 435.634 696.572 425.883 678.886 410.094C666.989 399.485 658.385 386.546 653.537 370.756C652.685 367.987 651.282 366.43 648.615 365.572C622.473 357.178 604.265 339.258 594.406 311.922C584.487 284.466 567.227 265.488 540.845 256.775C525.082 251.571 509.189 252.968 493.314 256.276C491.61 256.636 489.929 257.653 487.318 256.536C491.536 252.349 496.218 250.118 501.122 248.581C511.592 245.273 522.285 243.876 533.056 246.606C541.049 248.621 548.43 247.603 555.979 244.235C572.776 236.739 588.946 239.27 604.358 249C608.354 251.531 611.632 255.019 613.11 259.984C613.61 261.66 614.073 263.752 612.443 264.829C610.78 265.927 609.91 263.812 608.929 262.838C594.998 249 578.994 244.893 560.842 250.832C559.16 251.391 557.308 251.67 555.757 253.666C557.827 256.177 560.879 257.114 563.398 258.771C580.75 270.174 593.258 285.903 600.343 306.478C604.784 319.397 611.317 330.764 620.881 340.072C628.133 347.132 636.292 352.493 645.433 356.125C650.319 358.076 650.633 357.777 650.819 352.117C651.574 330.385 659.641 312.68 676.09 299.801C683.36 294.097 691.909 290.709 699.327 285.165C715.591 272.984 728.691 257.973 737.388 238.611C741.569 229.3 745.77 220.092 746.136 208.805C742.306 211.698 738.81 214.468 735.221 217.039C716.943 230.058 696.627 236.041 674.979 238.731C646.322 242.299 626.285 268.018 626.47 299.162C626.488 300.778 627.599 303.349 625.766 303.908C623.603 304.566 622.547 301.932 621.621 300.18C618.514 294.177 619.551 287.799 620.844 281.637C626.692 254.005 650.856 232.233 677.164 230.018C706.009 227.587 730.632 215.107 750.873 192.696C752.744 190.625 754.333 188.11 757.629 186.538" fill="white"/>
</mask>
<g mask="url(#mask11_200_573)">
<mask id="mask12_200_573" style="mask-type:luminance" maskUnits="userSpaceOnUse" x="486" y="185" width="273" height="256">
<path d="M758.103 185.911H486.925V440.327H758.103V185.911Z" fill="white"/>
</mask>
<g mask="url(#mask12_200_573)">
<mask id="mask13_200_573" style="mask-type:luminance" maskUnits="userSpaceOnUse" x="487" y="186" width="271" height="255">
<path d="M487.3 186.318H757.763V440.328H487.3V186.318Z" fill="white"/>
</mask>
<g mask="url(#mask13_200_573)">
<mask id="mask14_200_573" style="mask-type:luminance" maskUnits="userSpaceOnUse" x="487" y="186" width="271" height="255">
<path d="M736.777 430.149C737.203 428.078 736.166 426.801 735.499 425.444C729.155 412.584 720.903 401.421 710.373 392.149C697.22 380.566 682.364 372.951 665.731 369.359C661.123 368.365 660.697 368.944 662.493 373.745C663.693 376.998 665.101 380.227 666.842 383.157C678.92 403.552 696.48 416.432 717.128 424.785C723.454 427.34 729.821 430.089 736.777 430.149ZM757.574 186.477C757.241 194.592 756.685 202.027 755.167 209.323C746.377 251.271 724.01 281.756 688.468 301.277C668.616 312.181 658.386 329.646 658.534 353.929C658.553 358.275 660.012 360.111 663.99 360.906C702.509 368.665 729.636 392.189 746.044 430.289C747.229 433.019 749.818 436.571 747.859 438.962C746.1 441.077 742.233 439.581 739.403 439.142C716.702 435.633 696.572 425.883 678.887 410.093C666.99 399.485 658.386 386.545 653.538 370.756C652.686 367.986 651.282 366.429 648.615 365.571C622.474 357.178 604.266 339.257 594.406 311.921C584.487 284.466 567.228 265.488 540.845 256.775C525.082 251.57 509.189 252.967 493.314 256.276C491.611 256.635 489.929 257.653 487.318 256.535C491.537 252.348 496.218 250.117 501.122 248.581C511.593 245.272 522.286 243.875 533.056 246.605C541.049 248.621 548.431 247.603 555.979 244.234C572.776 236.739 588.947 239.269 604.358 249C608.355 251.53 611.633 255.019 613.111 259.984C613.611 261.66 614.074 263.751 612.444 264.829C610.781 265.927 609.91 263.811 608.929 262.837C594.999 249 578.995 244.893 560.842 250.832C559.161 251.391 557.309 251.67 555.757 253.666C557.827 256.176 560.879 257.114 563.398 258.77C580.75 270.173 593.258 285.903 600.343 306.477C604.784 319.397 611.318 330.764 620.881 340.071C628.133 347.132 636.293 352.492 645.434 356.124C650.319 358.076 650.634 357.777 650.819 352.117C651.575 330.385 659.642 312.68 676.09 299.8C683.361 294.097 691.909 290.708 699.328 285.164C715.591 272.983 728.692 257.972 737.388 238.611C741.57 229.299 745.77 220.091 746.137 208.804C742.307 211.698 738.81 214.468 735.221 217.038C716.943 230.057 696.628 236.04 674.979 238.73C646.323 242.299 626.285 268.018 626.47 299.161C626.489 300.778 627.6 303.348 625.766 303.907C623.603 304.566 622.548 301.931 621.622 300.179C618.514 294.176 619.551 287.798 620.844 281.636C626.692 254.005 650.856 232.233 677.164 230.018C706.01 227.587 730.632 215.106 750.874 192.696C752.744 190.624 754.333 188.11 757.63 186.537" fill="white"/>
</mask>
<g mask="url(#mask14_200_573)">
<path d="M758.104 185.911H486.926V440.327H758.104V185.911Z" fill="#FFF4DE"/>
</g>
</g>
</g>
</g>
</g>
<mask id="mask15_200_573" style="mask-type:luminance" maskUnits="userSpaceOnUse" x="483" y="182" width="277" height="261">
<path d="M483.607 182.993H760V442.371H483.607V182.993Z" fill="white"/>
</mask>
<g mask="url(#mask15_200_573)">
<mask id="mask16_200_573" style="mask-type:luminance" maskUnits="userSpaceOnUse" x="483" y="183" width="277" height="260">
<path d="M734.981 429.711C735.166 428.833 734.907 428.298 734.296 427.181C734.166 426.941 734.022 426.662 733.874 426.382C727.636 413.742 719.532 402.778 709.21 393.686C696.276 382.299 681.717 374.844 665.379 371.315C663.638 370.936 662.957 370.916 662.734 370.956C662.864 370.916 663.268 370.677 663.36 370.198C663.36 370.158 663.36 370.138 663.36 370.138C663.36 370.378 663.509 371.156 664.212 372.992C665.398 376.181 666.749 379.27 668.412 382.08C680.235 402.02 697.406 414.68 717.795 422.934C718.129 423.074 718.458 423.213 718.792 423.333C719.125 423.453 719.458 423.612 719.792 423.732C725.473 426.023 730.948 428.099 736.777 428.138L736.759 430.13L734.944 429.691M738.551 430.549L738.218 432.126L736.722 432.106C730.133 432.046 724.103 429.711 718.458 427.44C718.129 427.3 717.795 427.161 717.443 427.021C717.092 426.881 716.777 426.742 716.443 426.622C695.517 418.148 677.59 405.029 665.249 384.195C663.416 381.106 661.975 377.753 660.734 374.445C660.123 372.812 659.568 371.216 659.623 369.939C659.623 369.759 659.642 369.559 659.679 369.38C659.92 368.047 660.846 367.288 661.883 367.029C663.012 366.75 664.527 367.029 666.064 367.368C682.991 371.016 698.128 378.771 711.503 390.553C722.232 400.004 730.633 411.391 737.092 424.467C737.185 424.666 737.296 424.866 737.444 425.105C738.051 426.203 739.089 427.999 738.551 430.529V430.549ZM759.385 186.518C759.052 194.672 758.497 202.247 756.926 209.723C748.007 252.249 725.288 283.213 689.246 303.01C670.005 313.578 660.179 330.366 660.327 353.89C660.346 357.258 661.16 358.276 664.286 358.915C703.417 366.789 731.022 390.753 747.674 429.412C747.878 429.891 748.155 430.429 748.47 431.048C748.785 431.667 749.156 432.385 749.47 433.12C750.244 434.916 751.189 437.845 749.211 440.26C746.952 442.99 742.863 441.872 740.903 441.433C740.237 441.294 739.644 441.158 739.126 441.078C716.073 437.506 695.628 427.6 677.683 411.587C665.546 400.763 656.719 387.504 651.76 371.335C651.097 369.16 650.134 368.107 648.06 367.448C621.381 358.875 602.733 340.531 592.647 312.601C582.917 285.644 566.061 267.165 540.272 258.631C524.934 253.567 509.412 254.9 493.63 258.172C493.333 258.232 493.037 258.312 492.648 258.432C492.259 258.552 491.778 258.691 491.278 258.791C489.981 259.066 488.448 259.106 486.596 258.332L483.84 257.175L486.007 255.019C490.5 250.553 495.478 248.202 500.53 246.606C511.186 243.237 522.23 241.784 533.405 244.614C540.957 246.526 547.95 245.572 555.202 242.339C572.613 234.564 589.41 237.258 605.211 247.224C609.466 249.919 613.129 253.766 614.778 259.326C615.166 260.643 616.329 264.471 613.315 266.466C612.129 267.244 610.911 267.244 609.855 266.626C609.022 266.127 608.392 265.269 608.081 264.87C607.84 264.55 607.692 264.371 607.563 264.251L608.818 262.798L607.563 264.271C594.11 250.912 578.791 246.965 561.269 252.708C560.991 252.788 560.717 252.888 560.476 252.948C560.235 253.008 559.976 253.108 559.735 253.167C558.661 253.527 557.828 253.926 557.068 254.9L555.665 253.626L557.05 252.309C558.18 253.666 559.68 254.504 561.565 255.498C562.417 255.957 563.361 256.456 564.269 257.035C581.954 268.657 594.74 284.726 601.973 305.76C606.34 318.44 612.703 329.507 622.03 338.56C629.115 345.456 637.071 350.681 645.99 354.229C648.023 355.047 648.745 355.227 649.004 355.187C648.856 355.207 648.634 355.367 648.56 355.506C648.56 355.506 648.56 355.486 648.579 355.466C648.727 355.027 648.819 354.089 648.893 352.018C649.671 329.707 657.997 311.423 674.927 298.144C678.831 295.095 683.065 292.684 687.172 290.37C691.02 288.198 694.739 286.083 698.184 283.493C714.225 271.471 727.099 256.696 735.629 237.693C735.666 237.598 735.722 237.498 735.759 237.398C735.796 237.298 735.851 237.199 735.888 237.099C739.996 227.947 743.844 219.254 744.196 208.685L746.044 208.765L747.1 210.401C745.859 211.339 744.678 212.253 743.492 213.151C742.344 214.029 741.218 214.888 740.089 215.746C738.774 216.74 737.463 217.717 736.129 218.655C717.536 231.914 696.906 237.953 675.072 240.667C647.416 244.115 628.022 268.917 628.208 299.102C628.208 299.342 628.263 299.661 628.337 300.22C628.411 300.719 628.541 301.433 628.541 302.132C628.541 302.471 628.522 302.83 628.43 303.229C628.171 304.407 627.433 305.404 626.137 305.8C622.474 306.917 620.696 302.77 620.141 301.633C620.048 301.453 619.955 301.278 619.885 301.118C616.385 294.377 617.626 287.3 618.922 281.158C624.952 252.649 649.819 230.278 676.905 228.007C705.306 225.612 729.507 213.331 749.433 191.28C749.8 190.884 750.152 190.445 750.541 189.986C750.93 189.527 751.356 189.009 751.819 188.49C753.059 187.113 754.574 185.72 756.759 184.682L759.478 183.385L759.348 186.598M755.648 186.418L757.5 186.498L758.237 188.33C756.63 189.088 755.5 190.126 754.445 191.28C754.037 191.719 753.667 192.178 753.263 192.656C752.874 193.115 752.467 193.594 752.059 194.073C731.522 216.819 706.473 229.519 677.165 231.994C651.63 234.145 628.152 255.319 622.511 282.056C621.196 288.258 620.363 293.918 623.085 299.182C623.178 299.362 623.27 299.561 623.363 299.741C624.507 302.012 624.841 302.052 625.1 301.972C625.007 301.992 624.822 302.192 624.804 302.351C624.804 302.351 624.822 302.291 624.822 302.172C624.822 301.872 624.767 301.493 624.674 300.938C624.6 300.479 624.489 299.801 624.489 299.162C624.285 267.045 644.99 240.427 674.631 236.74C696.091 234.065 716.11 228.166 734.074 215.367C735.37 214.449 736.648 213.491 737.94 212.513C739.052 211.679 740.181 210.821 741.311 209.942C742.492 209.024 743.696 208.107 744.937 207.173L747.989 204.878L747.859 208.885C747.47 220.391 743.27 229.819 739.181 238.891C739.144 238.991 739.089 239.09 739.052 239.19C739.014 239.29 738.959 239.39 738.922 239.489C730.059 259.206 716.721 274.48 700.254 286.821C696.591 289.571 692.65 291.786 688.839 293.958C684.694 296.312 680.679 298.583 677.035 301.433C661.086 313.938 653.26 331.04 652.519 352.213C652.464 354.049 652.39 355.726 651.982 356.899C651.927 357.079 651.853 357.238 651.76 357.418C651.245 358.476 650.375 359.094 649.282 359.214C647.986 359.354 646.323 358.695 644.638 358.017C635.278 354.289 626.915 348.785 619.496 341.569C609.651 332.018 602.992 320.356 598.459 307.197C591.521 287.061 579.31 271.687 562.287 260.503C561.565 260.024 560.772 259.605 559.883 259.126C558.106 258.192 555.905 257.055 554.22 254.999L553.165 253.706L554.202 252.389C555.628 250.573 557.254 249.859 558.624 249.42C558.902 249.32 559.198 249.24 559.457 249.16C559.717 249.08 559.957 249.021 560.18 248.941C578.976 242.798 595.666 247.085 610.059 261.381C610.392 261.721 610.707 262.12 610.911 262.399C611.355 262.978 611.522 263.153 611.614 263.213C611.466 263.133 611.281 263.213 611.355 263.153C611.577 263.018 611.837 262.678 611.226 260.623C609.929 256.257 607.044 253.108 603.307 250.753C588.321 241.305 572.739 238.891 556.572 246.111C548.727 249.619 540.938 250.713 532.52 248.581C522.175 245.971 511.815 247.284 501.53 250.533C496.793 252.03 492.389 254.145 488.466 258.053L487.207 256.596L487.874 254.74C488.929 255.179 489.726 255.159 490.5 254.999C490.852 254.92 491.185 254.82 491.592 254.7C491.963 254.6 492.407 254.465 492.852 254.365C508.837 251.032 525.082 249.559 541.268 254.92C568.247 263.832 585.914 283.293 596.018 311.264C605.674 338.041 623.437 355.506 649.041 363.74C652.316 364.798 654.168 366.829 655.205 370.218C659.92 385.632 668.32 398.252 679.976 408.657C697.406 424.211 717.221 433.818 739.589 437.266C740.237 437.366 740.94 437.526 741.57 437.666C744.548 438.304 745.878 438.364 746.396 437.745L747.785 439.082L746.396 437.765C746.692 437.406 746.841 436.752 746.063 434.975C745.807 434.377 745.511 433.778 745.178 433.139C744.881 432.545 744.548 431.906 744.289 431.288C728.118 393.766 701.476 370.657 663.564 363.022C658.738 362.044 656.627 359.434 656.59 354.109C656.442 329.048 667.064 310.884 687.524 299.661C722.584 280.399 744.604 250.413 753.263 209.064C754.759 201.948 755.296 194.672 755.63 186.578L755.648 186.418Z" fill="white"/>
</mask>
<g mask="url(#mask16_200_573)">
<mask id="mask17_200_573" style="mask-type:luminance" maskUnits="userSpaceOnUse" x="483" y="182" width="277" height="261">
<path d="M760 182.845H483.132V442.371H760V182.845Z" fill="white"/>
</mask>
<g mask="url(#mask17_200_573)">
<mask id="mask18_200_573" style="mask-type:luminance" maskUnits="userSpaceOnUse" x="483" y="183" width="277" height="260">
<path d="M483.776 183.377H759.581V442.371H483.776V183.377Z" fill="white"/>
</mask>
<g mask="url(#mask18_200_573)">
<mask id="mask19_200_573" style="mask-type:luminance" maskUnits="userSpaceOnUse" x="483" y="183" width="277" height="260">
<path d="M734.98 429.711C735.165 428.833 734.906 428.298 734.295 427.18C734.165 426.941 734.021 426.661 733.873 426.382C727.635 413.742 719.531 402.778 709.209 393.686C696.275 382.299 681.715 374.843 665.378 371.315C663.637 370.936 662.956 370.916 662.733 370.956C662.863 370.916 663.267 370.677 663.359 370.198C663.359 370.158 663.359 370.138 663.359 370.138C663.359 370.377 663.508 371.156 664.211 372.991C665.396 376.18 666.748 379.27 668.411 382.079C680.234 402.02 697.405 414.68 717.794 422.934C718.128 423.073 718.457 423.213 718.791 423.333C719.124 423.452 719.457 423.612 719.791 423.732C725.472 426.023 730.947 428.098 736.776 428.138L736.758 430.13L734.943 429.691M738.55 430.549L738.217 432.125L736.721 432.105C730.132 432.046 724.102 429.711 718.457 427.44C718.128 427.3 717.794 427.16 717.442 427.021C717.091 426.881 716.776 426.741 716.442 426.622C695.516 418.148 677.589 405.029 665.248 384.195C663.415 381.106 661.974 377.753 660.733 374.444C660.122 372.812 659.567 371.215 659.622 369.938C659.622 369.759 659.641 369.559 659.678 369.379C659.919 368.046 660.844 367.288 661.882 367.029C663.011 366.749 664.526 367.029 666.063 367.368C682.99 371.016 698.127 378.771 711.502 390.553C722.231 400.004 730.632 411.391 737.091 424.466C737.184 424.666 737.295 424.865 737.443 425.105C738.05 426.202 739.088 427.998 738.55 430.529V430.549ZM759.384 186.518C759.051 194.672 758.495 202.247 756.925 209.723C748.006 252.249 725.287 283.213 689.245 303.009C670.004 313.578 660.178 330.365 660.326 353.89C660.344 357.258 661.159 358.276 664.285 358.914C703.416 366.789 731.021 390.752 747.673 429.411C747.877 429.89 748.154 430.429 748.469 431.048C748.784 431.666 749.154 432.385 749.469 433.119C750.243 434.915 751.188 437.845 749.21 440.26C746.951 442.99 742.862 441.872 740.902 441.433C740.236 441.293 739.643 441.158 739.125 441.078C716.072 437.506 695.627 427.599 677.682 411.587C665.545 400.762 656.718 387.504 651.759 371.335C651.096 369.16 650.133 368.106 648.059 367.448C621.38 358.875 602.732 340.531 592.646 312.6C582.916 285.644 566.06 267.164 540.271 258.631C524.933 253.566 509.41 254.899 493.629 258.172C493.332 258.232 493.036 258.312 492.647 258.431C492.258 258.551 491.777 258.691 491.277 258.791C489.98 259.066 488.447 259.106 486.595 258.332L483.839 257.174L486.006 255.019C490.499 250.553 495.477 248.202 500.529 246.606C511.185 243.237 522.229 241.784 533.404 244.614C540.956 246.526 547.949 245.572 555.201 242.339C572.612 234.564 589.409 237.258 605.21 247.224C609.465 249.918 613.128 253.766 614.776 259.326C615.165 260.643 616.328 264.47 613.313 266.466C612.128 267.244 610.91 267.244 609.854 266.625C609.021 266.127 608.391 265.268 608.08 264.869C607.839 264.55 607.691 264.37 607.561 264.251L608.817 262.798L607.561 264.271C594.109 250.912 578.79 246.965 561.268 252.708C560.99 252.788 560.716 252.888 560.475 252.948C560.234 253.007 559.975 253.107 559.734 253.167C558.66 253.526 557.827 253.925 557.067 254.899L555.664 253.626L557.049 252.309C558.179 253.666 559.679 254.504 561.564 255.498C562.416 255.957 563.36 256.456 564.268 257.035C581.953 268.657 594.739 284.726 601.972 305.759C606.339 318.439 612.702 329.507 622.029 338.559C629.114 345.456 637.07 350.681 645.989 354.229C648.022 355.047 648.744 355.227 649.003 355.187C648.855 355.207 648.633 355.366 648.559 355.506C648.559 355.506 648.559 355.486 648.577 355.466C648.726 355.027 648.818 354.089 648.892 352.018C649.67 329.707 657.996 311.423 674.926 298.144C678.83 295.095 683.064 292.684 687.171 290.369C691.019 288.198 694.738 286.083 698.183 283.492C714.224 271.471 727.098 256.695 735.628 237.693C735.665 237.597 735.721 237.498 735.758 237.398C735.795 237.298 735.85 237.198 735.887 237.098C739.995 227.947 743.843 219.254 744.195 208.685L746.043 208.765L747.099 210.401C745.858 211.339 744.677 212.253 743.491 213.151C742.343 214.029 741.217 214.887 740.088 215.745C738.773 216.739 737.462 217.717 736.128 218.655C717.535 231.914 696.905 237.953 675.071 240.667C647.414 244.115 628.021 268.916 628.207 299.102C628.207 299.342 628.262 299.661 628.336 300.22C628.41 300.718 628.54 301.433 628.54 302.131C628.54 302.471 628.521 302.83 628.429 303.229C628.169 304.406 627.432 305.404 626.136 305.799C622.473 306.917 620.695 302.77 620.14 301.632C620.047 301.453 619.954 301.277 619.884 301.118C616.384 294.376 617.625 287.3 618.921 281.158C624.951 252.648 649.818 230.277 676.904 228.006C705.305 225.612 729.506 213.331 749.432 191.279C749.799 190.884 750.151 190.445 750.54 189.986C750.929 189.527 751.355 189.008 751.818 188.489C753.058 187.112 754.573 185.719 756.758 184.682L759.477 183.385L759.347 186.598M755.647 186.418L757.499 186.498L758.236 188.33C756.629 189.088 755.499 190.126 754.444 191.279C754.036 191.718 753.666 192.177 753.262 192.656C752.873 193.115 752.466 193.594 752.058 194.073C731.521 216.819 706.472 229.519 677.163 231.994C651.629 234.145 628.151 255.318 622.51 282.056C621.195 288.258 620.362 293.917 623.084 299.182C623.177 299.361 623.269 299.561 623.362 299.741C624.506 302.012 624.84 302.052 625.099 301.972C625.006 301.992 624.821 302.191 624.803 302.351C624.803 302.351 624.821 302.291 624.821 302.171C624.821 301.872 624.766 301.493 624.673 300.938C624.599 300.479 624.488 299.8 624.488 299.162C624.284 267.045 644.988 240.427 674.63 236.739C696.09 234.065 716.109 228.166 734.073 215.366C735.369 214.448 736.647 213.49 737.939 212.513C739.05 211.678 740.18 210.82 741.31 209.942C742.491 209.024 743.695 208.106 744.936 207.172L747.988 204.877L747.858 208.884C747.469 220.391 743.269 229.818 739.18 238.89C739.143 238.99 739.088 239.09 739.05 239.19C739.013 239.29 738.958 239.389 738.921 239.489C730.058 259.206 716.72 274.48 700.253 286.821C696.59 289.571 692.649 291.786 688.838 293.957C684.693 296.312 680.678 298.583 677.034 301.433C661.085 313.937 653.259 331.04 652.518 352.213C652.463 354.049 652.389 355.725 651.981 356.899C651.926 357.078 651.852 357.238 651.759 357.418C651.244 358.475 650.374 359.094 649.281 359.214C647.985 359.353 646.322 358.695 644.637 358.016C635.277 354.289 626.914 348.785 619.495 341.569C609.65 332.018 602.991 320.355 598.457 307.196C591.52 287.061 579.309 271.686 562.286 260.503C561.564 260.024 560.771 259.605 559.882 259.126C558.104 258.192 555.904 257.055 554.219 254.999L553.164 253.706L554.201 252.389C555.627 250.573 557.253 249.858 558.623 249.419C558.901 249.32 559.197 249.24 559.456 249.16C559.716 249.08 559.956 249.02 560.179 248.94C578.975 242.798 595.665 247.084 610.058 261.381C610.391 261.72 610.706 262.119 610.91 262.399C611.354 262.977 611.521 263.153 611.613 263.213C611.465 263.133 611.28 263.213 611.354 263.153C611.576 263.017 611.836 262.678 611.225 260.623C609.928 256.256 607.043 253.107 603.306 250.752C588.32 241.305 572.738 238.89 556.571 246.111C548.726 249.619 540.937 250.712 532.519 248.581C522.174 245.971 511.814 247.284 501.529 250.533C496.792 252.03 492.388 254.145 488.465 258.052L487.206 256.596L487.873 254.74C488.928 255.179 489.725 255.159 490.499 254.999C490.851 254.919 491.184 254.819 491.591 254.7C491.962 254.6 492.406 254.464 492.851 254.364C508.836 251.032 525.081 249.559 541.267 254.919C568.246 263.832 585.913 283.293 596.017 311.263C605.673 338.04 623.436 355.506 649.04 363.74C652.315 364.798 654.167 366.829 655.204 370.218C659.919 385.632 668.319 398.252 679.975 408.657C697.405 424.211 717.22 433.818 739.588 437.266C740.236 437.366 740.939 437.526 741.569 437.665C744.547 438.304 745.877 438.364 746.395 437.745L747.784 439.082L746.395 437.765C746.691 437.406 746.84 436.751 746.062 434.975C745.806 434.376 745.51 433.778 745.177 433.139C744.88 432.544 744.547 431.906 744.288 431.287C728.117 393.766 701.475 370.657 663.563 363.021C658.737 362.044 656.626 359.433 656.589 354.109C656.441 329.048 667.063 310.884 687.523 299.661C722.583 280.399 744.602 250.413 753.262 209.064C754.758 201.948 755.295 194.672 755.629 186.578L755.647 186.418Z" fill="white"/>
</mask>
<g mask="url(#mask19_200_573)">
<path d="M759.999 182.845H483.132V442.371H759.999V182.845Z" fill="#FFF4DE"/>
</g>
</g>
</g>
</g>
</g>
</svg>
