<svg width="322" height="303" viewBox="0 0 322 303" fill="none" xmlns="http://www.w3.org/2000/svg">
<mask id="mask0_217_481" style="mask-type:luminance" maskUnits="userSpaceOnUse" x="4" y="3" width="316" height="297">
<path d="M4.30231 3.40179H319.791V299.799H4.30231V3.40179Z" fill="white"/>
</mask>
<g mask="url(#mask0_217_481)">
<mask id="mask1_217_481" style="mask-type:luminance" maskUnits="userSpaceOnUse" x="4" y="4" width="316" height="296">
<path d="M294.944 287.941C295.441 285.527 294.232 284.039 293.456 282.458C286.064 267.477 276.45 254.471 264.183 243.67C248.861 230.176 231.553 221.304 212.175 217.119C206.807 215.962 206.311 216.636 208.403 222.23C209.801 226.019 211.441 229.781 213.469 233.194C227.54 256.954 247.998 271.959 272.053 281.691C279.423 284.667 286.841 287.871 294.944 287.941ZM319.173 4.06104C318.785 13.5141 318.137 22.1767 316.368 30.6765C306.129 79.5459 280.071 115.061 238.664 137.803C215.536 150.506 203.618 170.854 203.791 199.143C203.812 204.207 205.512 206.346 210.147 207.271C255.022 216.31 286.625 243.716 305.74 288.103C307.121 291.284 310.137 295.422 307.855 298.207C305.805 300.672 301.3 298.928 298.004 298.417C271.557 294.329 248.105 282.97 227.501 264.575C213.642 252.216 203.618 237.142 197.97 218.747C196.977 215.52 195.342 213.707 192.235 212.707C161.78 202.928 140.568 182.051 129.081 150.204C117.526 118.218 97.4182 96.1085 66.6827 85.9579C48.3182 79.8946 29.8027 81.522 11.3087 85.3767C9.32386 85.7952 7.36487 86.9809 4.32281 85.679C9.23756 80.8013 14.6917 78.2021 20.4047 76.4119C32.6031 72.5572 45.0604 70.9298 57.6083 74.1103C66.92 76.4584 75.5197 75.2727 84.3136 71.3483C103.882 62.616 122.721 65.5639 140.676 76.9001C145.332 79.8481 149.15 83.912 150.872 89.6964C151.455 91.6493 151.994 94.0858 150.095 95.3412C148.158 96.6199 147.144 94.1555 146 93.021C129.772 76.9001 111.127 72.1155 89.9792 79.0344C88.0202 79.6854 85.8627 80.0108 84.0547 82.3357C86.4668 85.2605 90.0223 86.3532 92.9565 88.2828C113.172 101.567 127.744 119.892 135.998 143.862C141.172 158.913 148.784 172.156 159.925 182.999C168.373 191.225 177.879 197.469 188.529 201.701C194.22 203.974 194.587 203.626 194.803 197.032C195.683 171.714 205.081 151.088 224.244 136.083C232.714 129.438 242.673 125.491 251.316 119.032C270.263 104.841 285.525 87.3529 295.656 64.7967C300.528 53.9487 305.421 43.2216 305.848 30.072C301.387 33.4431 297.313 36.6701 293.132 39.6645C271.838 54.8322 248.17 61.8022 222.949 64.9362C189.564 69.0931 166.22 99.0564 166.436 135.339C166.458 137.222 167.752 140.216 165.616 140.867C163.096 141.635 161.867 138.566 160.788 136.525C157.168 129.531 158.376 122.101 159.882 114.922C166.695 82.731 194.846 57.3663 225.495 54.7857C259.1 51.954 287.786 37.414 311.367 11.3054C313.546 8.89218 315.397 5.9628 319.238 4.13078" fill="white"/>
</mask>
<g mask="url(#mask1_217_481)">
<mask id="mask2_217_481" style="mask-type:luminance" maskUnits="userSpaceOnUse" x="3" y="3" width="317" height="297">
<path d="M319.79 3.39825H3.86548V299.795H319.79V3.39825Z" fill="white"/>
</mask>
<g mask="url(#mask2_217_481)">
<mask id="mask3_217_481" style="mask-type:luminance" maskUnits="userSpaceOnUse" x="4" y="3" width="316" height="297">
<path d="M4.30139 3.87891H319.393V299.801H4.30139V3.87891Z" fill="white"/>
</mask>
<g mask="url(#mask3_217_481)">
<mask id="mask4_217_481" style="mask-type:luminance" maskUnits="userSpaceOnUse" x="4" y="4" width="316" height="296">
<path d="M294.944 287.942C295.441 285.529 294.232 284.041 293.456 282.46C286.064 267.479 276.45 254.473 264.183 243.672C248.861 230.178 231.553 221.306 212.175 217.121C206.807 215.963 206.311 216.638 208.403 222.231C209.801 226.021 211.441 229.783 213.469 233.196C227.54 256.956 247.998 271.961 272.053 281.693C279.423 284.669 286.841 287.873 294.944 287.942ZM319.173 4.06287C318.785 13.5159 318.137 22.1785 316.368 30.6783C306.129 79.5477 280.071 115.063 238.664 137.805C215.536 150.508 203.618 170.856 203.791 199.145C203.812 204.209 205.512 206.348 210.147 207.273C255.022 216.312 286.625 243.718 305.74 288.105C307.121 291.286 310.137 295.424 307.855 298.209C305.805 300.674 301.3 298.93 298.004 298.418C271.557 294.331 248.105 282.972 227.501 264.577C213.642 252.218 203.618 237.143 197.97 218.749C196.977 215.522 195.342 213.708 192.235 212.709C161.78 202.93 140.568 182.053 129.081 150.206C117.526 118.22 97.4182 96.1103 66.6827 85.9598C48.3182 79.8964 29.8027 81.5239 11.3087 85.3785C9.32386 85.797 7.36487 86.9827 4.32281 85.6808C9.23756 80.8031 14.6917 78.2039 20.4047 76.4137C32.6031 72.5591 45.0604 70.9316 57.6083 74.1121C66.92 76.4602 75.5197 75.2745 84.3136 71.3501C103.882 62.6178 122.721 65.5658 140.676 76.902C145.332 79.8499 149.15 83.9139 150.872 89.6982C151.455 91.6511 151.994 94.0876 150.095 95.3431C148.158 96.6218 147.144 94.1574 146 93.0228C129.772 76.902 111.127 72.1173 89.9792 79.0362C88.0202 79.6872 85.8627 80.0127 84.0547 82.3376C86.4668 85.2623 90.0223 86.355 92.9565 88.2847C113.172 101.569 127.744 119.894 135.998 143.864C141.172 158.915 148.784 172.158 159.925 183.001C168.373 191.227 177.879 197.471 188.529 201.703C194.22 203.976 194.587 203.628 194.803 197.034C195.683 171.716 205.081 151.09 224.244 136.085C232.714 129.44 242.673 125.492 251.316 119.034C270.263 104.843 285.525 87.3547 295.656 64.7985C300.528 53.9506 305.421 43.2235 305.848 30.0738C301.387 33.4449 297.313 36.6719 293.132 39.6664C271.838 54.834 248.17 61.8041 222.949 64.938C189.564 69.095 166.22 99.0583 166.436 135.341C166.458 137.224 167.752 140.218 165.616 140.869C163.096 141.636 161.867 138.568 160.788 136.526C157.168 129.533 158.376 122.103 159.882 114.923C166.695 82.7328 194.846 57.3682 225.495 54.7875C259.1 51.9558 287.786 37.4159 311.367 11.3073C313.546 8.89401 315.397 5.96463 319.238 4.13261" fill="white"/>
</mask>
<g mask="url(#mask4_217_481)">
<path d="M319.79 3.39825H3.86548V299.795H319.79V3.39825Z" fill="#FF0066"/>
</g>
</g>
</g>
</g>
</g>
<mask id="mask5_217_481" style="mask-type:luminance" maskUnits="userSpaceOnUse" x="0" y="0" width="322" height="303">
<path d="M0 0H322V302.176H0V0Z" fill="white"/>
</mask>
<g mask="url(#mask5_217_481)">
<mask id="mask6_217_481" style="mask-type:luminance" maskUnits="userSpaceOnUse" x="0" y="0" width="322" height="302">
<path d="M292.854 287.431C293.07 286.408 292.768 285.785 292.056 284.483C291.905 284.204 291.736 283.878 291.564 283.553C284.297 268.827 274.856 256.054 262.83 245.462C247.763 232.196 230.8 223.51 211.767 219.4C209.739 218.958 208.945 218.935 208.686 218.981C208.837 218.935 209.308 218.656 209.415 218.098C209.415 218.051 209.415 218.028 209.415 218.028C209.415 218.307 209.588 219.214 210.408 221.353C211.789 225.068 213.364 228.667 215.301 231.94C229.074 255.17 249.079 269.92 272.832 279.535C273.221 279.698 273.605 279.861 273.993 280C274.382 280.14 274.77 280.326 275.158 280.465C281.777 283.134 288.155 285.552 294.947 285.599L294.925 287.919L292.811 287.408M297.014 288.407L296.625 290.244L294.882 290.221C287.206 290.151 280.181 287.431 273.605 284.785C273.221 284.622 272.832 284.46 272.423 284.297C272.013 284.134 271.646 283.971 271.258 283.832C246.878 273.96 225.994 258.676 211.616 234.404C209.48 230.806 207.802 226.9 206.356 223.045C205.644 221.143 204.997 219.283 205.062 217.795C205.062 217.586 205.083 217.354 205.126 217.144C205.407 215.591 206.486 214.708 207.694 214.406C209.01 214.08 210.775 214.406 212.565 214.801C232.285 219.051 249.92 228.085 265.501 241.812C278.002 252.822 287.788 266.088 295.313 281.321C295.421 281.553 295.551 281.786 295.723 282.065C296.431 283.344 297.639 285.436 297.014 288.384V288.407ZM321.285 4.10926C320.897 13.6088 320.25 22.4341 318.42 31.1432C308.03 80.6868 281.562 116.76 239.573 139.823C217.156 152.136 205.709 171.693 205.881 199.099C205.903 203.023 206.852 204.209 210.494 204.953C256.082 214.127 288.241 242.044 307.641 287.082C307.879 287.64 308.202 288.268 308.569 288.988C308.936 289.709 309.367 290.546 309.734 291.402C310.636 293.494 311.736 296.907 309.432 299.72C306.8 302.901 302.036 301.599 299.754 301.087C298.977 300.925 298.286 300.766 297.682 300.673C270.826 296.512 247.007 284.971 226.101 266.316C211.961 253.706 201.679 238.259 195.901 219.423C195.129 216.889 194.007 215.661 191.59 214.894C160.51 204.906 138.784 183.536 127.034 150.996C115.699 119.592 96.0613 98.0631 66.0162 88.1218C48.1479 82.2212 30.0639 83.7743 11.6778 87.5871C11.3326 87.6568 10.9874 87.7498 10.5344 87.8893C10.0813 88.0288 9.52035 88.1916 8.93783 88.3078C7.42759 88.6287 5.64119 88.6752 3.48371 87.7731L0.273376 86.4246L2.79763 83.9138C8.03168 78.7106 13.831 75.9719 19.7166 74.112C32.1308 70.1876 44.998 68.495 58.0162 71.7917C66.8145 74.019 74.9611 72.9077 83.4098 69.1413C103.694 60.0835 123.263 63.2222 141.67 74.8327C146.628 77.9713 150.896 82.4537 152.816 88.9309C153.269 90.4653 154.624 94.9245 151.112 97.2494C149.731 98.1561 148.311 98.1561 147.081 97.4354C146.111 96.8541 145.377 95.8544 145.015 95.3895C144.734 95.0175 144.562 94.8082 144.41 94.6687L145.873 92.9762L144.41 94.692C128.739 79.1291 110.892 74.5305 90.4777 81.2215C90.1541 81.3145 89.8348 81.4308 89.5543 81.5005C89.2739 81.5703 88.9718 81.6865 88.6913 81.7563C87.44 82.1747 86.4691 82.6397 85.5846 83.7743L83.9492 82.291L85.563 80.7565C86.8791 82.3375 88.6266 83.3139 90.8229 84.4717C91.8154 85.0065 92.9157 85.5877 93.9729 86.2619C114.577 99.8021 129.472 118.522 137.899 143.027C142.987 157.799 150.4 170.693 161.265 181.239C169.519 189.274 178.788 195.36 189.178 199.494C191.547 200.447 192.389 200.656 192.691 200.61C192.518 200.633 192.259 200.819 192.173 200.982C192.173 200.982 192.173 200.958 192.194 200.935C192.367 200.424 192.475 199.331 192.561 196.918C193.467 170.925 203.167 149.625 222.891 134.155C227.439 130.602 232.371 127.794 237.156 125.097C241.64 122.568 245.972 120.103 249.985 117.085C268.673 103.08 283.672 85.8667 293.609 63.729C293.652 63.6174 293.717 63.5011 293.76 63.3849C293.803 63.2687 293.868 63.1524 293.911 63.0362C298.696 52.3742 303.18 42.2469 303.59 29.9342L305.743 30.0272L306.972 31.9337C305.527 33.0264 304.151 34.0912 302.77 35.1374C301.432 36.1603 300.12 37.16 298.804 38.1597C297.272 39.3175 295.745 40.4567 294.192 41.5494C272.53 56.9961 248.496 64.0312 223.059 67.1931C190.84 71.2105 168.246 100.104 168.462 135.271C168.462 135.55 168.527 135.922 168.613 136.573C168.699 137.154 168.85 137.986 168.85 138.8C168.85 139.195 168.829 139.614 168.721 140.079C168.419 141.45 167.56 142.613 166.05 143.073C161.783 144.375 159.711 139.544 159.064 138.219C158.956 138.01 158.848 137.805 158.766 137.619C154.689 129.765 156.134 121.521 157.644 114.365C164.669 81.1518 193.64 55.0897 225.195 52.4439C258.282 49.654 286.476 35.3466 309.691 9.65647C310.118 9.19614 310.528 8.68466 310.981 8.14993C311.434 7.61521 311.93 7.01073 312.47 6.40626C313.915 4.80208 315.68 3.1793 318.226 1.97035L321.393 0.459167L321.242 4.20226M316.931 3.99301L319.089 4.08601L319.948 6.22027C318.075 7.10373 316.759 8.31268 315.529 9.65647C315.054 10.1679 314.623 10.7027 314.153 11.2607C313.7 11.7954 313.225 12.3534 312.75 12.9113C288.824 39.4105 259.642 54.2062 225.497 57.0891C195.75 59.5953 168.397 84.2625 161.826 115.411C160.294 122.637 159.323 129.231 162.495 135.364C162.602 135.573 162.71 135.806 162.818 136.015C164.151 138.66 164.54 138.707 164.842 138.614C164.734 138.637 164.518 138.87 164.497 139.056C164.497 139.056 164.518 138.986 164.518 138.846C164.518 138.498 164.454 138.056 164.346 137.41C164.259 136.875 164.13 136.085 164.13 135.341C163.893 97.9236 188.013 66.9141 222.546 62.6177C247.547 59.5023 270.869 52.6299 291.797 37.718C293.307 36.6486 294.796 35.5326 296.302 34.3934C297.596 33.4216 298.912 32.4219 300.228 31.3989C301.605 30.3295 303.007 29.26 304.453 28.172L308.008 25.4983L307.857 30.1667C307.404 43.5721 302.511 54.5549 297.747 65.1239C297.704 65.2402 297.639 65.3564 297.596 65.4727C297.553 65.5889 297.488 65.7051 297.445 65.8214C287.119 88.7914 271.581 106.586 252.397 120.963C248.129 124.167 243.538 126.748 239.098 129.277C234.27 132.021 229.592 134.666 225.346 137.986C206.766 152.554 197.649 172.478 196.786 197.146C196.721 199.285 196.635 201.237 196.16 202.605C196.095 202.814 196.009 203 195.901 203.209C195.301 204.441 194.287 205.162 193.014 205.301C191.504 205.464 189.567 204.697 187.603 203.906C176.699 199.564 166.956 193.151 158.313 184.745C146.844 173.618 139.086 160.031 133.804 144.701C125.722 121.242 111.496 103.331 91.6643 90.3026C90.8229 89.7446 89.8995 89.2564 88.8639 88.6984C86.7928 87.6103 84.2297 86.2852 82.2664 83.8905L81.0366 82.384L82.2448 80.8495C83.906 78.7339 85.8003 77.9016 87.3968 77.3901C87.7205 77.2738 88.0657 77.1808 88.3677 77.0879C88.6698 76.9949 88.9502 76.9251 89.2091 76.8321C111.108 69.6761 130.551 74.67 147.319 91.3255C147.707 91.7208 148.074 92.1858 148.311 92.5112C148.829 93.1855 149.023 93.39 149.131 93.4598C148.958 93.3668 148.743 93.4598 148.829 93.39C149.088 93.232 149.39 92.8367 148.678 90.4421C147.168 85.3552 143.806 81.6865 139.453 78.9431C121.994 67.937 103.841 65.1239 85.0064 73.5354C75.8673 77.6226 66.7929 78.8966 56.985 76.4136C44.9333 73.3727 32.8643 74.9024 20.8817 78.6874C15.3628 80.4311 10.2323 82.8955 5.66277 87.4476L4.19568 85.7504L4.97237 83.5883C6.20214 84.0997 7.12986 84.0765 8.03168 83.8905C8.44161 83.7975 8.82995 83.6813 9.3046 83.5418C9.7361 83.4255 10.2539 83.2674 10.7717 83.1512C29.3951 79.2686 48.3205 77.5528 67.1769 83.7975C98.6071 94.1805 119.19 116.853 130.961 149.439C142.21 180.634 162.904 200.982 192.734 210.574C196.548 211.806 198.706 214.173 199.914 218.121C205.407 236.078 215.193 250.781 228.772 262.903C249.079 281.023 272.164 292.215 298.222 296.233C298.977 296.349 299.797 296.535 300.53 296.698C303.999 297.442 305.549 297.512 306.153 296.791L307.771 298.349L306.153 296.814C306.498 296.396 306.67 295.633 305.764 293.564C305.467 292.866 305.121 292.169 304.733 291.425C304.388 290.732 303.999 289.988 303.697 289.267C284.858 245.555 253.821 218.632 209.653 209.737C204.03 208.598 201.571 205.557 201.528 199.354C201.355 170.158 213.73 148.997 237.566 135.922C278.412 113.482 304.064 78.5479 314.153 30.376C315.896 22.0854 316.522 13.6088 316.91 4.17901L316.931 3.99301Z" fill="white"/>
</mask>
<g mask="url(#mask6_217_481)">
<mask id="mask7_217_481" style="mask-type:luminance" maskUnits="userSpaceOnUse" x="-1" y="-1" width="324" height="304">
<path d="M322 -0.17334H-0.552063V302.175H322V-0.17334Z" fill="white"/>
</mask>
<g mask="url(#mask7_217_481)">
<mask id="mask8_217_481" style="mask-type:luminance" maskUnits="userSpaceOnUse" x="0" y="0" width="322" height="303">
<path d="M0.198303 0.450256H321.512V302.18H0.198303V0.450256Z" fill="white"/>
</mask>
<g mask="url(#mask8_217_481)">
<mask id="mask9_217_481" style="mask-type:luminance" maskUnits="userSpaceOnUse" x="0" y="0" width="322" height="302">
<path d="M292.852 287.425C293.068 286.402 292.766 285.779 292.054 284.477C291.903 284.198 291.734 283.873 291.562 283.547C284.295 268.822 274.854 256.049 262.828 245.456C247.761 232.19 230.798 223.505 211.765 219.394C209.737 218.952 208.943 218.929 208.684 218.976C208.835 218.929 209.306 218.65 209.413 218.092C209.413 218.046 209.413 218.023 209.413 218.023C209.413 218.302 209.586 219.208 210.406 221.347C211.787 225.062 213.362 228.661 215.299 231.935C229.072 255.165 249.077 269.914 272.83 279.53C273.219 279.693 273.603 279.856 273.991 279.995C274.38 280.135 274.768 280.321 275.156 280.46C281.775 283.129 288.153 285.547 294.945 285.593L294.923 287.914L292.809 287.402M297.012 288.402L296.623 290.239L294.88 290.215C287.204 290.146 280.179 287.425 273.603 284.78C273.219 284.617 272.83 284.454 272.421 284.291C272.011 284.129 271.644 283.966 271.256 283.826C246.876 273.955 225.992 258.671 211.614 234.399C209.478 230.8 207.8 226.894 206.354 223.04C205.642 221.138 204.995 219.278 205.06 217.79C205.06 217.581 205.081 217.348 205.124 217.139C205.405 215.586 206.484 214.703 207.692 214.4C209.008 214.075 210.773 214.4 212.563 214.796C232.283 219.045 249.918 228.08 265.499 241.806C278 252.817 287.786 266.083 295.311 281.316C295.419 281.548 295.549 281.781 295.721 282.06C296.429 283.338 297.637 285.431 297.012 288.379V288.402ZM321.283 4.10389C320.895 13.6034 320.248 22.4287 318.418 31.1378C308.028 80.6814 281.56 116.755 239.571 139.818C217.154 152.13 205.707 171.687 205.879 199.093C205.901 203.018 206.85 204.203 210.492 204.947C256.08 214.121 288.239 242.039 307.639 287.077C307.877 287.635 308.2 288.262 308.567 288.983C308.934 289.704 309.365 290.541 309.732 291.396C310.634 293.489 311.734 296.902 309.43 299.715C306.798 302.895 302.034 301.593 299.752 301.082C298.975 300.919 298.284 300.761 297.68 300.668C270.824 296.506 247.005 284.966 226.099 266.311C211.959 253.7 201.677 238.254 195.899 219.417C195.127 216.883 194.005 215.656 191.588 214.889C160.508 204.901 138.782 183.53 127.032 150.991C115.697 119.586 96.0593 98.0577 66.0142 88.1165C48.1459 82.2159 30.0619 83.7689 11.6758 87.5817C11.3306 87.6515 10.9854 87.7445 10.5324 87.884C10.0793 88.0235 9.51833 88.1862 8.93581 88.3024C7.42557 88.6233 5.63918 88.6698 3.4817 87.7677L0.271362 86.4193L2.79562 83.9084C8.02967 78.7053 13.829 75.9665 19.7146 74.1066C32.1288 70.1822 44.996 68.4897 58.0142 71.7864C66.8124 74.0136 74.9591 72.9023 83.4078 69.136C103.692 60.0782 123.261 63.2168 141.668 74.8273C146.626 77.9659 150.894 82.4483 152.814 88.9255C153.267 90.46 154.622 94.9191 151.11 97.244C149.729 98.1507 148.309 98.1507 147.079 97.43C146.109 96.8488 145.375 95.8491 145.013 95.3841C144.732 95.0121 144.559 94.8029 144.408 94.6634L145.871 92.9708L144.408 94.6866C128.737 79.1237 110.89 74.5251 90.4757 81.2162C90.1521 81.3091 89.8328 81.4254 89.5523 81.4951C89.2718 81.5649 88.9698 81.6811 88.6893 81.7509C87.438 82.1694 86.4671 82.6343 85.5825 83.7689L83.9472 82.2856L85.561 80.7512C86.877 82.3321 88.6246 83.3086 90.8209 84.4664C91.8134 85.0011 92.9137 85.5823 93.9708 86.2565C114.575 99.7967 129.47 118.517 137.897 143.021C142.985 157.794 150.398 170.688 161.263 181.233C169.517 189.268 178.786 195.355 189.176 199.488C191.545 200.442 192.387 200.651 192.689 200.604C192.516 200.628 192.257 200.814 192.171 200.976C192.171 200.976 192.171 200.953 192.192 200.93C192.365 200.418 192.473 199.326 192.559 196.912C193.465 170.92 203.165 149.619 222.889 134.149C227.437 130.597 232.369 127.789 237.154 125.092C241.638 122.562 245.97 120.098 249.983 117.08C268.671 103.075 283.67 85.8613 293.607 63.7236C293.65 63.612 293.715 63.4958 293.758 63.3795C293.801 63.2633 293.866 63.147 293.909 63.0308C298.694 52.3688 303.178 42.2415 303.588 29.9289L305.741 30.0219L306.97 31.9283C305.525 33.021 304.148 34.0858 302.768 35.132C301.43 36.155 300.118 37.1547 298.802 38.1544C297.27 39.3122 295.743 40.4514 294.19 41.5441C272.528 56.9907 248.494 64.0258 223.057 67.1877C190.838 71.2051 168.244 100.099 168.46 135.265C168.46 135.544 168.525 135.916 168.611 136.567C168.697 137.149 168.848 137.981 168.848 138.795C168.848 139.19 168.827 139.608 168.719 140.073C168.417 141.445 167.558 142.607 166.048 143.068C161.781 144.37 159.709 139.539 159.062 138.213C158.954 138.004 158.846 137.8 158.764 137.614C154.687 129.76 156.132 121.516 157.642 114.36C164.667 81.1464 193.638 55.0843 225.193 52.4385C258.28 49.6487 286.474 35.3412 309.689 9.6511C310.116 9.19077 310.526 8.67929 310.979 8.14456C311.432 7.60984 311.928 7.00536 312.468 6.40089C313.913 4.79671 315.678 3.17393 318.224 1.96498L321.391 0.453796L321.24 4.19688M316.929 3.98764L319.087 4.08064L319.946 6.2149C318.073 7.09836 316.757 8.30731 315.527 9.6511C315.052 10.1626 314.621 10.6973 314.151 11.2553C313.698 11.79 313.223 12.348 312.748 12.906C288.822 39.4052 259.64 54.2008 225.495 57.0837C195.748 59.5899 168.395 84.2571 161.824 115.406C160.292 122.632 159.321 129.225 162.492 135.358C162.6 135.568 162.708 135.8 162.816 136.009C164.149 138.655 164.538 138.702 164.84 138.609C164.732 138.632 164.516 138.864 164.495 139.05C164.495 139.05 164.516 138.981 164.516 138.841C164.516 138.492 164.451 138.051 164.344 137.404C164.257 136.87 164.128 136.079 164.128 135.335C163.891 97.9182 188.011 66.9087 222.544 62.6123C247.545 59.4969 270.867 52.6245 291.795 37.7126C293.305 36.6432 294.794 35.5272 296.3 34.388C297.594 33.4162 298.91 32.4165 300.226 31.3936C301.603 30.3241 303.005 29.2546 304.451 28.1666L308.006 25.493L307.855 30.1614C307.402 43.5667 302.509 54.5496 297.745 65.1185C297.702 65.2348 297.637 65.351 297.594 65.4673C297.551 65.5835 297.486 65.6998 297.443 65.816C287.117 88.786 271.579 106.581 252.395 120.958C248.127 124.162 243.536 126.742 239.096 129.272C234.268 132.015 229.59 134.661 225.344 137.981C206.764 152.549 197.647 172.473 196.784 197.14C196.719 199.279 196.632 201.232 196.158 202.599C196.093 202.808 196.007 202.994 195.899 203.204C195.299 204.436 194.285 205.157 193.012 205.296C191.502 205.459 189.565 204.692 187.601 203.901C176.697 199.558 166.954 193.146 158.311 184.739C146.842 173.612 139.084 160.026 133.802 144.695C125.72 121.237 111.494 103.326 91.6623 90.2972C90.8209 89.7392 89.8975 89.251 88.8619 88.693C86.7907 87.605 84.2276 86.2798 82.2643 83.8851L81.0346 82.3786L82.2428 80.8442C83.904 78.7285 85.7983 77.8962 87.3948 77.3847C87.7185 77.2685 88.0637 77.1755 88.3657 77.0825C88.6677 76.9895 88.9482 76.9197 89.2071 76.8267C111.106 69.6707 130.549 74.6646 147.317 91.3202C147.705 91.7154 148.072 92.1804 148.309 92.5059C148.827 93.1801 149.021 93.3847 149.129 93.4544C148.956 93.3614 148.741 93.4544 148.827 93.3847C149.086 93.2266 149.388 92.8313 148.676 90.4367C147.166 85.3498 143.804 81.6811 139.451 78.9378C121.992 67.9317 103.839 65.1185 85.0043 73.53C75.8652 77.6172 66.7909 78.8913 56.983 76.4083C44.9313 73.3673 32.8623 74.8971 20.8796 78.682C15.3608 80.4257 10.2303 82.8901 5.66075 87.4422L4.19367 85.7451L4.97036 83.5829C6.20012 84.0944 7.12784 84.0711 8.02967 83.8851C8.43959 83.7921 8.82794 83.6759 9.30259 83.5364C9.73408 83.4202 10.2519 83.2621 10.7697 83.1458C29.3931 79.2632 48.3185 77.5475 67.1749 83.7921C98.6051 94.1751 119.187 116.848 130.959 149.433C142.208 180.629 162.902 200.976 192.732 210.569C196.546 211.801 198.704 214.168 199.912 218.116C205.405 236.073 215.191 250.776 228.77 262.898C249.077 281.018 272.162 292.21 298.22 296.228C298.975 296.344 299.795 296.53 300.528 296.692C303.997 297.436 305.547 297.506 306.151 296.785L307.769 298.343L306.151 296.809C306.496 296.39 306.668 295.628 305.762 293.559C305.465 292.861 305.119 292.164 304.731 291.42C304.386 290.727 303.997 289.983 303.695 289.262C284.856 245.549 253.819 218.627 209.651 209.732C204.028 208.593 201.569 205.552 201.526 199.349C201.353 170.153 213.728 148.992 237.564 135.916C278.41 113.476 304.062 78.5425 314.151 30.3706C315.894 22.08 316.52 13.6034 316.908 4.17364L316.929 3.98764Z" fill="white"/>
</mask>
<g mask="url(#mask9_217_481)">
<path d="M322 -0.173218H-0.552063V302.175H322V-0.173218Z" fill="#FF0066"/>
</g>
</g>
</g>
</g>
</g>
<mask id="mask10_217_481" style="mask-type:luminance" maskUnits="userSpaceOnUse" x="0" y="0" width="322" height="303">
<path d="M0 0H322V302.176H0V0Z" fill="white"/>
</mask>
<g mask="url(#mask10_217_481)">
<mask id="mask11_217_481" style="mask-type:luminance" maskUnits="userSpaceOnUse" x="0" y="0" width="322" height="302">
<path d="M292.854 287.431C293.07 286.408 292.768 285.785 292.056 284.483C291.905 284.204 291.736 283.878 291.564 283.553C284.297 268.827 274.856 256.054 262.83 245.462C247.763 232.196 230.8 223.51 211.767 219.4C209.739 218.958 208.945 218.935 208.686 218.981C208.837 218.935 209.308 218.656 209.415 218.098C209.415 218.051 209.415 218.028 209.415 218.028C209.415 218.307 209.588 219.214 210.408 221.353C211.789 225.068 213.364 228.667 215.301 231.94C229.074 255.17 249.079 269.92 272.832 279.535C273.221 279.698 273.605 279.861 273.993 280C274.382 280.14 274.77 280.326 275.158 280.465C281.777 283.134 288.155 285.552 294.947 285.599L294.925 287.919L292.811 287.408M297.014 288.407L296.625 290.244L294.882 290.221C287.206 290.151 280.181 287.431 273.605 284.785C273.221 284.622 272.832 284.46 272.423 284.297C272.013 284.134 271.646 283.971 271.258 283.832C246.878 273.96 225.994 258.676 211.616 234.404C209.48 230.806 207.802 226.9 206.356 223.045C205.644 221.143 204.997 219.283 205.062 217.795C205.062 217.586 205.083 217.354 205.126 217.144C205.407 215.591 206.486 214.708 207.694 214.406C209.01 214.08 210.775 214.406 212.565 214.801C232.285 219.051 249.92 228.085 265.501 241.812C278.002 252.822 287.788 266.088 295.313 281.321C295.421 281.553 295.551 281.786 295.723 282.065C296.431 283.344 297.639 285.436 297.014 288.384V288.407ZM321.285 4.10926C320.897 13.6088 320.25 22.4341 318.42 31.1432C308.03 80.6868 281.562 116.76 239.573 139.823C217.156 152.136 205.709 171.693 205.881 199.099C205.903 203.023 206.852 204.209 210.494 204.953C256.082 214.127 288.241 242.044 307.641 287.082C307.879 287.64 308.202 288.268 308.569 288.988C308.936 289.709 309.367 290.546 309.734 291.402C310.636 293.494 311.736 296.907 309.432 299.72C306.8 302.901 302.036 301.599 299.754 301.087C298.977 300.925 298.286 300.766 297.682 300.673C270.826 296.512 247.007 284.971 226.101 266.316C211.961 253.706 201.679 238.259 195.901 219.423C195.129 216.889 194.007 215.661 191.59 214.894C160.51 204.906 138.784 183.536 127.034 150.996C115.699 119.592 96.0613 98.0631 66.0162 88.1218C48.1479 82.2212 30.0639 83.7743 11.6778 87.5871C11.3326 87.6568 10.9874 87.7498 10.5344 87.8893C10.0813 88.0288 9.52035 88.1916 8.93783 88.3078C7.42759 88.6287 5.64119 88.6752 3.48371 87.7731L0.273376 86.4246L2.79763 83.9138C8.03168 78.7106 13.831 75.9719 19.7166 74.112C32.1308 70.1876 44.998 68.495 58.0162 71.7917C66.8145 74.019 74.9611 72.9077 83.4098 69.1413C103.694 60.0835 123.263 63.2222 141.67 74.8327C146.628 77.9713 150.896 82.4537 152.816 88.9309C153.269 90.4653 154.624 94.9245 151.112 97.2494C149.731 98.1561 148.311 98.1561 147.081 97.4354C146.111 96.8541 145.377 95.8544 145.015 95.3895C144.734 95.0175 144.562 94.8082 144.41 94.6687L145.873 92.9762L144.41 94.692C128.739 79.1291 110.892 74.5305 90.4777 81.2215C90.1541 81.3145 89.8348 81.4308 89.5543 81.5005C89.2739 81.5703 88.9718 81.6865 88.6913 81.7563C87.44 82.1747 86.4691 82.6397 85.5846 83.7743L83.9492 82.291L85.563 80.7565C86.8791 82.3375 88.6266 83.3139 90.8229 84.4717C91.8154 85.0065 92.9157 85.5877 93.9729 86.2619C114.577 99.8021 129.472 118.522 137.899 143.027C142.987 157.799 150.4 170.693 161.265 181.239C169.519 189.274 178.788 195.36 189.178 199.494C191.547 200.447 192.389 200.656 192.691 200.61C192.518 200.633 192.259 200.819 192.173 200.982C192.173 200.982 192.173 200.958 192.194 200.935C192.367 200.424 192.475 199.331 192.561 196.918C193.467 170.925 203.167 149.625 222.891 134.155C227.439 130.602 232.371 127.794 237.156 125.097C241.64 122.568 245.972 120.103 249.985 117.085C268.673 103.08 283.672 85.8667 293.609 63.729C293.652 63.6174 293.717 63.5011 293.76 63.3849C293.803 63.2687 293.868 63.1524 293.911 63.0362C298.696 52.3742 303.18 42.2469 303.59 29.9342L305.743 30.0272L306.972 31.9337C305.527 33.0264 304.151 34.0912 302.77 35.1374C301.432 36.1603 300.12 37.16 298.804 38.1597C297.272 39.3175 295.745 40.4567 294.192 41.5494C272.53 56.9961 248.496 64.0312 223.059 67.1931C190.84 71.2105 168.246 100.104 168.462 135.271C168.462 135.55 168.527 135.922 168.613 136.573C168.699 137.154 168.85 137.986 168.85 138.8C168.85 139.195 168.829 139.614 168.721 140.079C168.419 141.45 167.56 142.613 166.05 143.073C161.783 144.375 159.711 139.544 159.064 138.219C158.956 138.01 158.848 137.805 158.766 137.619C154.689 129.765 156.134 121.521 157.644 114.365C164.669 81.1518 193.64 55.0897 225.195 52.4439C258.282 49.654 286.476 35.3466 309.691 9.65647C310.118 9.19614 310.528 8.68466 310.981 8.14993C311.434 7.61521 311.93 7.01073 312.47 6.40626C313.915 4.80208 315.68 3.1793 318.226 1.97035L321.393 0.459167L321.242 4.20226M316.931 3.99301L319.089 4.08601L319.948 6.22027C318.075 7.10373 316.759 8.31268 315.529 9.65647C315.054 10.1679 314.623 10.7027 314.153 11.2607C313.7 11.7954 313.225 12.3534 312.75 12.9113C288.824 39.4105 259.642 54.2062 225.497 57.0891C195.75 59.5953 168.397 84.2625 161.826 115.411C160.294 122.637 159.323 129.231 162.495 135.364C162.602 135.573 162.71 135.806 162.818 136.015C164.151 138.66 164.54 138.707 164.842 138.614C164.734 138.637 164.518 138.87 164.497 139.056C164.497 139.056 164.518 138.986 164.518 138.846C164.518 138.498 164.454 138.056 164.346 137.41C164.259 136.875 164.13 136.085 164.13 135.341C163.893 97.9236 188.013 66.9141 222.546 62.6177C247.547 59.5023 270.869 52.6299 291.797 37.718C293.307 36.6486 294.796 35.5326 296.302 34.3934C297.596 33.4216 298.912 32.4219 300.228 31.3989C301.605 30.3295 303.007 29.26 304.453 28.172L308.008 25.4983L307.857 30.1667C307.404 43.5721 302.511 54.5549 297.747 65.1239C297.704 65.2402 297.639 65.3564 297.596 65.4727C297.553 65.5889 297.488 65.7051 297.445 65.8214C287.119 88.7914 271.581 106.586 252.397 120.963C248.129 124.167 243.538 126.748 239.098 129.277C234.27 132.021 229.592 134.666 225.346 137.986C206.766 152.554 197.649 172.478 196.786 197.146C196.721 199.285 196.635 201.237 196.16 202.605C196.095 202.814 196.009 203 195.901 203.209C195.301 204.441 194.287 205.162 193.014 205.301C191.504 205.464 189.567 204.697 187.603 203.906C176.699 199.564 166.956 193.151 158.313 184.745C146.844 173.618 139.086 160.031 133.804 144.701C125.722 121.242 111.496 103.331 91.6643 90.3026C90.8229 89.7446 89.8995 89.2564 88.8639 88.6984C86.7928 87.6103 84.2297 86.2852 82.2664 83.8905L81.0366 82.384L82.2448 80.8495C83.906 78.7339 85.8003 77.9016 87.3968 77.3901C87.7205 77.2738 88.0657 77.1808 88.3677 77.0879C88.6698 76.9949 88.9502 76.9251 89.2091 76.8321C111.108 69.6761 130.551 74.67 147.319 91.3255C147.707 91.7208 148.074 92.1858 148.311 92.5112C148.829 93.1855 149.023 93.39 149.131 93.4598C148.958 93.3668 148.743 93.4598 148.829 93.39C149.088 93.232 149.39 92.8367 148.678 90.4421C147.168 85.3552 143.806 81.6865 139.453 78.9431C121.994 67.937 103.841 65.1239 85.0064 73.5354C75.8673 77.6226 66.7929 78.8966 56.985 76.4136C44.9333 73.3727 32.8643 74.9024 20.8817 78.6874C15.3628 80.4311 10.2323 82.8955 5.66277 87.4476L4.19568 85.7504L4.97237 83.5883C6.20214 84.0997 7.12986 84.0765 8.03168 83.8905C8.44161 83.7975 8.82995 83.6813 9.3046 83.5418C9.7361 83.4255 10.2539 83.2674 10.7717 83.1512C29.3951 79.2686 48.3205 77.5528 67.1769 83.7975C98.6071 94.1805 119.19 116.853 130.961 149.439C142.21 180.634 162.904 200.982 192.734 210.574C196.548 211.806 198.706 214.173 199.914 218.121C205.407 236.078 215.193 250.781 228.772 262.903C249.079 281.023 272.164 292.215 298.222 296.233C298.977 296.349 299.797 296.535 300.53 296.698C303.999 297.442 305.549 297.512 306.153 296.791L307.771 298.349L306.153 296.814C306.498 296.396 306.67 295.633 305.764 293.564C305.467 292.866 305.121 292.169 304.733 291.425C304.388 290.732 303.999 289.988 303.697 289.267C284.858 245.555 253.821 218.632 209.653 209.737C204.03 208.598 201.571 205.557 201.528 199.354C201.355 170.158 213.73 148.997 237.566 135.922C278.412 113.482 304.064 78.5479 314.153 30.376C315.896 22.0854 316.522 13.6088 316.91 4.17901L316.931 3.99301Z" fill="white"/>
</mask>
<g mask="url(#mask11_217_481)">
<mask id="mask12_217_481" style="mask-type:luminance" maskUnits="userSpaceOnUse" x="-1" y="-1" width="324" height="304">
<path d="M322 -0.17334H-0.552063V302.175H322V-0.17334Z" fill="white"/>
</mask>
<g mask="url(#mask12_217_481)">
<mask id="mask13_217_481" style="mask-type:luminance" maskUnits="userSpaceOnUse" x="0" y="0" width="322" height="303">
<path d="M0.198303 0.450256H321.512V302.18H0.198303V0.450256Z" fill="white"/>
</mask>
<g mask="url(#mask13_217_481)">
<mask id="mask14_217_481" style="mask-type:luminance" maskUnits="userSpaceOnUse" x="0" y="0" width="322" height="302">
<path d="M292.852 287.425C293.068 286.402 292.766 285.779 292.054 284.477C291.903 284.198 291.734 283.873 291.562 283.547C284.295 268.822 274.854 256.049 262.828 245.456C247.761 232.19 230.798 223.505 211.765 219.394C209.737 218.952 208.943 218.929 208.684 218.976C208.835 218.929 209.306 218.65 209.413 218.092C209.413 218.046 209.413 218.023 209.413 218.023C209.413 218.302 209.586 219.208 210.406 221.347C211.787 225.062 213.362 228.661 215.299 231.935C229.072 255.165 249.077 269.914 272.83 279.53C273.219 279.693 273.603 279.856 273.991 279.995C274.38 280.135 274.768 280.321 275.156 280.46C281.775 283.129 288.153 285.547 294.945 285.593L294.923 287.914L292.809 287.402M297.012 288.402L296.623 290.239L294.88 290.215C287.204 290.146 280.179 287.425 273.603 284.78C273.219 284.617 272.83 284.454 272.421 284.291C272.011 284.129 271.644 283.966 271.256 283.826C246.876 273.955 225.992 258.671 211.614 234.399C209.478 230.8 207.8 226.894 206.354 223.04C205.642 221.138 204.995 219.278 205.06 217.79C205.06 217.581 205.081 217.348 205.124 217.139C205.405 215.586 206.484 214.703 207.692 214.4C209.008 214.075 210.773 214.4 212.563 214.796C232.283 219.045 249.918 228.08 265.499 241.806C278 252.817 287.786 266.083 295.311 281.316C295.419 281.548 295.549 281.781 295.721 282.06C296.429 283.338 297.637 285.431 297.012 288.379V288.402ZM321.283 4.10389C320.895 13.6034 320.248 22.4287 318.418 31.1378C308.028 80.6814 281.56 116.755 239.571 139.818C217.154 152.13 205.707 171.687 205.879 199.093C205.901 203.018 206.85 204.203 210.492 204.947C256.08 214.121 288.239 242.039 307.639 287.077C307.877 287.635 308.2 288.262 308.567 288.983C308.934 289.704 309.365 290.541 309.732 291.396C310.634 293.489 311.734 296.902 309.43 299.715C306.798 302.895 302.034 301.593 299.752 301.082C298.975 300.919 298.284 300.761 297.68 300.668C270.824 296.506 247.005 284.966 226.099 266.311C211.959 253.7 201.677 238.254 195.899 219.417C195.127 216.883 194.005 215.656 191.588 214.889C160.508 204.901 138.782 183.53 127.032 150.991C115.697 119.586 96.0593 98.0577 66.0142 88.1165C48.1459 82.2159 30.0619 83.7689 11.6758 87.5817C11.3306 87.6515 10.9854 87.7445 10.5324 87.884C10.0793 88.0235 9.51833 88.1862 8.93581 88.3024C7.42557 88.6233 5.63918 88.6698 3.4817 87.7677L0.271362 86.4193L2.79562 83.9084C8.02967 78.7053 13.829 75.9665 19.7146 74.1066C32.1288 70.1822 44.996 68.4897 58.0142 71.7864C66.8124 74.0136 74.9591 72.9023 83.4078 69.136C103.692 60.0782 123.261 63.2168 141.668 74.8273C146.626 77.9659 150.894 82.4483 152.814 88.9255C153.267 90.46 154.622 94.9191 151.11 97.244C149.729 98.1507 148.309 98.1507 147.079 97.43C146.109 96.8488 145.375 95.8491 145.013 95.3841C144.732 95.0121 144.559 94.8029 144.408 94.6634L145.871 92.9708L144.408 94.6866C128.737 79.1237 110.89 74.5251 90.4757 81.2162C90.1521 81.3091 89.8328 81.4254 89.5523 81.4951C89.2718 81.5649 88.9698 81.6811 88.6893 81.7509C87.438 82.1694 86.4671 82.6343 85.5825 83.7689L83.9472 82.2856L85.561 80.7512C86.877 82.3321 88.6246 83.3086 90.8209 84.4664C91.8134 85.0011 92.9137 85.5823 93.9708 86.2565C114.575 99.7967 129.47 118.517 137.897 143.021C142.985 157.794 150.398 170.688 161.263 181.233C169.517 189.268 178.786 195.355 189.176 199.488C191.545 200.442 192.387 200.651 192.689 200.604C192.516 200.628 192.257 200.814 192.171 200.976C192.171 200.976 192.171 200.953 192.192 200.93C192.365 200.418 192.473 199.326 192.559 196.912C193.465 170.92 203.165 149.619 222.889 134.149C227.437 130.597 232.369 127.789 237.154 125.092C241.638 122.562 245.97 120.098 249.983 117.08C268.671 103.075 283.67 85.8613 293.607 63.7236C293.65 63.612 293.715 63.4958 293.758 63.3795C293.801 63.2633 293.866 63.147 293.909 63.0308C298.694 52.3688 303.178 42.2415 303.588 29.9289L305.741 30.0219L306.97 31.9283C305.525 33.021 304.148 34.0858 302.768 35.132C301.43 36.155 300.118 37.1547 298.802 38.1544C297.27 39.3122 295.743 40.4514 294.19 41.5441C272.528 56.9907 248.494 64.0258 223.057 67.1877C190.838 71.2051 168.244 100.099 168.46 135.265C168.46 135.544 168.525 135.916 168.611 136.567C168.697 137.149 168.848 137.981 168.848 138.795C168.848 139.19 168.827 139.608 168.719 140.073C168.417 141.445 167.558 142.607 166.048 143.068C161.781 144.37 159.709 139.539 159.062 138.213C158.954 138.004 158.846 137.8 158.764 137.614C154.687 129.76 156.132 121.516 157.642 114.36C164.667 81.1464 193.638 55.0843 225.193 52.4385C258.28 49.6487 286.474 35.3412 309.689 9.6511C310.116 9.19077 310.526 8.67929 310.979 8.14456C311.432 7.60984 311.928 7.00536 312.468 6.40089C313.913 4.79671 315.678 3.17393 318.224 1.96498L321.391 0.453796L321.24 4.19688M316.929 3.98764L319.087 4.08064L319.946 6.2149C318.073 7.09836 316.757 8.30731 315.527 9.6511C315.052 10.1626 314.621 10.6973 314.151 11.2553C313.698 11.79 313.223 12.348 312.748 12.906C288.822 39.4052 259.64 54.2008 225.495 57.0837C195.748 59.5899 168.395 84.2571 161.824 115.406C160.292 122.632 159.321 129.225 162.492 135.358C162.6 135.568 162.708 135.8 162.816 136.009C164.149 138.655 164.538 138.702 164.84 138.609C164.732 138.632 164.516 138.864 164.495 139.05C164.495 139.05 164.516 138.981 164.516 138.841C164.516 138.492 164.451 138.051 164.344 137.404C164.257 136.87 164.128 136.079 164.128 135.335C163.891 97.9182 188.011 66.9087 222.544 62.6123C247.545 59.4969 270.867 52.6245 291.795 37.7126C293.305 36.6432 294.794 35.5272 296.3 34.388C297.594 33.4162 298.91 32.4165 300.226 31.3936C301.603 30.3241 303.005 29.2546 304.451 28.1666L308.006 25.493L307.855 30.1614C307.402 43.5667 302.509 54.5496 297.745 65.1185C297.702 65.2348 297.637 65.351 297.594 65.4673C297.551 65.5835 297.486 65.6998 297.443 65.816C287.117 88.786 271.579 106.581 252.395 120.958C248.127 124.162 243.536 126.742 239.096 129.272C234.268 132.015 229.59 134.661 225.344 137.981C206.764 152.549 197.647 172.473 196.784 197.14C196.719 199.279 196.632 201.232 196.158 202.599C196.093 202.808 196.007 202.994 195.899 203.204C195.299 204.436 194.285 205.157 193.012 205.296C191.502 205.459 189.565 204.692 187.601 203.901C176.697 199.558 166.954 193.146 158.311 184.739C146.842 173.612 139.084 160.026 133.802 144.695C125.72 121.237 111.494 103.326 91.6623 90.2972C90.8209 89.7392 89.8975 89.251 88.8619 88.693C86.7907 87.605 84.2276 86.2798 82.2643 83.8851L81.0346 82.3786L82.2428 80.8442C83.904 78.7285 85.7983 77.8962 87.3948 77.3847C87.7185 77.2685 88.0637 77.1755 88.3657 77.0825C88.6677 76.9895 88.9482 76.9197 89.2071 76.8267C111.106 69.6707 130.549 74.6646 147.317 91.3202C147.705 91.7154 148.072 92.1804 148.309 92.5059C148.827 93.1801 149.021 93.3847 149.129 93.4544C148.956 93.3614 148.741 93.4544 148.827 93.3847C149.086 93.2266 149.388 92.8313 148.676 90.4367C147.166 85.3498 143.804 81.6811 139.451 78.9378C121.992 67.9317 103.839 65.1185 85.0043 73.53C75.8652 77.6172 66.7909 78.8913 56.983 76.4083C44.9313 73.3673 32.8623 74.8971 20.8796 78.682C15.3608 80.4257 10.2303 82.8901 5.66075 87.4422L4.19367 85.7451L4.97036 83.5829C6.20012 84.0944 7.12784 84.0711 8.02967 83.8851C8.43959 83.7921 8.82794 83.6759 9.30259 83.5364C9.73408 83.4202 10.2519 83.2621 10.7697 83.1458C29.3931 79.2632 48.3185 77.5475 67.1749 83.7921C98.6051 94.1751 119.187 116.848 130.959 149.433C142.208 180.629 162.902 200.976 192.732 210.569C196.546 211.801 198.704 214.168 199.912 218.116C205.405 236.073 215.191 250.776 228.77 262.898C249.077 281.018 272.162 292.21 298.22 296.228C298.975 296.344 299.795 296.53 300.528 296.692C303.997 297.436 305.547 297.506 306.151 296.785L307.769 298.343L306.151 296.809C306.496 296.39 306.668 295.628 305.762 293.559C305.465 292.861 305.119 292.164 304.731 291.42C304.386 290.727 303.997 289.983 303.695 289.262C284.856 245.549 253.819 218.627 209.651 209.732C204.028 208.593 201.569 205.552 201.526 199.349C201.353 170.153 213.728 148.992 237.564 135.916C278.41 113.476 304.062 78.5425 314.151 30.3706C315.894 22.08 316.52 13.6034 316.908 4.17364L316.929 3.98764Z" fill="white"/>
</mask>
<g mask="url(#mask14_217_481)">
<path d="M322 -0.173218H-0.552063V302.175H322V-0.173218Z" fill="#FF0066"/>
</g>
</g>
</g>
</g>
</g>
</svg>
