<svg width="86" height="21" viewBox="0 0 86 21" fill="none" xmlns="http://www.w3.org/2000/svg">
<path d="M8.67187 20.1785C7.49845 20.1785 6.37546 19.9114 5.3037 19.3781C4.23272 18.8448 3.31074 18.1281 2.53777 17.2283C1.76557 16.3277 1.14937 15.2532 0.689156 14.0053C0.229719 12.7565 0 11.4491 0 10.0834C0 8.71691 0.242524 7.40948 0.727959 6.16153C1.21301 4.91275 1.86103 3.84035 2.67125 2.94516C3.48148 2.04996 4.43489 1.33572 5.53187 0.802014C6.62847 0.267477 7.76775 0 8.94971 0C9.86936 0 10.7258 0.160985 11.5185 0.48254C12.3121 0.803262 12.962 1.28705 13.468 1.93349C13.9748 2.58034 14.2286 3.33368 14.2286 4.1931C14.2286 4.83538 14.0089 5.38281 13.5705 5.8354C13.1316 6.28799 12.5491 6.51429 11.8227 6.51429C11.3839 6.51429 10.9706 6.40571 10.5826 6.18816C10.1945 5.97101 9.8907 5.65861 9.67146 5.25136L9.93688 5.07499C10.3672 5.72641 10.8484 6.05171 11.3804 6.05171C11.7684 6.05171 12.061 5.83707 12.2589 5.40777C12.4576 4.97848 12.5569 4.57373 12.5569 4.1931C12.5569 3.74051 12.4847 3.29292 12.3412 2.85031C12.1984 2.40687 11.9857 1.99297 11.7032 1.60902C11.4207 1.22424 11.0408 0.91433 10.5639 0.678883C10.0867 0.443853 9.54884 0.32613 8.94971 0.32613C7.85273 0.32613 6.82093 0.760416 5.85472 1.62899C4.88811 2.49756 4.11165 3.68519 3.52494 5.19146C2.939 6.6969 2.64642 8.32755 2.64642 10.0834C2.64642 11.8472 2.91378 13.4803 3.44888 14.982C3.98476 16.4829 4.71699 17.6701 5.64518 18.5428C6.57336 19.416 7.58226 19.8523 8.67187 19.8523C9.99625 19.8523 11.1879 19.4409 12.2465 18.6177C13.3058 17.7949 14.1479 16.6909 14.7718 15.3065L15.0248 15.4562C14.468 16.8319 13.6434 17.963 12.5507 18.849C11.458 19.735 10.165 20.1785 8.67187 20.1785Z" fill="black"/>
<path d="M20.1274 5.52258C21.2077 4.82622 22.3846 4.47763 23.6586 4.47763C24.9321 4.47763 26.1094 4.82622 27.1897 5.52258C28.27 6.21935 29.1241 7.17153 29.7523 8.37955C30.3813 9.58756 30.696 10.9021 30.696 12.3231C30.696 13.7432 30.3813 15.0569 29.7523 16.2649C29.1241 17.4721 28.27 18.4259 27.1897 19.1269C26.1094 19.8278 24.9321 20.1785 23.6586 20.1785C22.3846 20.1785 21.2077 19.8278 20.1274 19.1269C19.0471 18.4259 18.1923 17.4721 17.5633 16.2649C16.935 15.0569 16.6211 13.7432 16.6211 12.3231C16.6211 10.9021 16.935 9.58756 17.5633 8.37955C18.1923 7.17153 19.0471 6.21935 20.1274 5.52258ZM21.4483 18.8423C22.1281 19.5158 22.8646 19.8523 23.6586 19.8523C24.4521 19.8523 25.1882 19.5158 25.8673 18.8423C26.5471 18.168 27.083 17.2545 27.4753 16.1018C27.8672 14.9483 28.0636 13.6883 28.0636 12.3214C28.0636 10.9649 27.8672 9.70736 27.4753 8.54927C27.083 7.39117 26.5471 6.47767 25.8673 5.80877C25.1882 5.13904 24.4521 4.80376 23.6586 4.80376C22.8646 4.80376 22.1281 5.13904 21.4483 5.80877C20.7692 6.47767 20.2337 7.39117 19.8418 8.54927C19.4495 9.70736 19.2535 10.9649 19.2535 12.3214C19.2535 13.6883 19.4495 14.9483 19.8418 16.1018C20.2337 17.2545 20.7692 18.168 21.4483 18.8423Z" fill="black"/>
<path d="M36.4809 18.428C36.4809 18.7808 36.6474 19.032 36.9807 19.1818C37.3148 19.3307 37.8445 19.4048 38.5701 19.4048V19.7309H31.7593V19.4048C32.4857 19.4048 33.0154 19.3307 33.3487 19.1818C33.6816 19.032 33.8485 18.7808 33.8485 18.428V5.55087C33.8485 5.19812 33.8252 4.88863 33.7786 4.6224C33.7321 4.35534 33.6579 4.13778 33.5567 3.97014C33.4562 3.80291 33.3487 3.66481 33.2338 3.55582C33.1197 3.44725 32.9746 3.36779 32.7977 3.31788C32.6207 3.26796 32.4581 3.23634 32.3103 3.22303C32.1621 3.20972 31.9785 3.20307 31.7593 3.20307V2.86362C34.7053 2.86362 36.1783 1.90936 36.1783 0H36.4809V18.428Z" fill="black"/>
<path d="M44.5324 18.428C44.5324 18.7808 44.6989 19.032 45.0322 19.1818C45.3652 19.3307 45.8945 19.4047 46.6201 19.4047V19.7309H39.8108V19.4047C40.536 19.4047 41.0653 19.3307 41.3986 19.1818C41.7316 19.032 41.8984 18.7808 41.8984 18.428V10.4761C41.8984 10.1233 41.8752 9.81385 41.8286 9.54762C41.7828 9.28056 41.7095 9.063 41.6082 8.89536C41.5065 8.72814 41.399 8.59003 41.2853 8.48104C41.1713 8.37247 41.0254 8.29385 40.8476 8.24477C40.6707 8.19485 40.5081 8.16323 40.3603 8.14992C40.2132 8.13578 40.03 8.12829 39.8108 8.12829V7.78885C42.7556 7.78885 44.2282 6.835 44.2282 4.92689H44.5324V18.428ZM44.5324 2.54581C44.5324 3.00172 44.3803 3.39275 44.0761 3.71888C43.7727 4.04418 43.4079 4.20641 42.9818 4.20641C42.5554 4.20641 42.1902 4.04418 41.886 3.71888C41.5826 3.39275 41.4312 3.00172 41.4312 2.54581C41.4312 2.08906 41.5826 1.6972 41.886 1.37107C42.1902 1.04494 42.5554 0.881878 42.9818 0.881878C43.4079 0.881878 43.7727 1.04494 44.0761 1.37107C44.3803 1.6972 44.5324 2.08906 44.5324 2.54581Z" fill="black"/>
<path d="M55.9374 4.47764C57.2028 4.47764 58.3393 4.82872 59.3474 5.5309C60.3563 6.23225 61.1347 7.17986 61.6834 8.37456C62.2329 9.56843 62.5076 10.8838 62.5076 12.3214C62.5076 13.7869 62.2562 15.1081 61.7533 16.2849C61.2512 17.4609 60.4898 18.4039 59.4685 19.1136C58.4472 19.8232 57.2404 20.1785 55.8489 20.1785C54.0515 20.1785 52.9037 19.7712 52.4062 18.9572L51.6845 19.7309H47.6846V19.4048C48.4098 19.4048 48.9391 19.3307 49.2724 19.1818C49.6054 19.032 49.7722 18.7808 49.7722 18.428V5.55087C49.7722 5.19812 49.7489 4.88863 49.7024 4.6224C49.6566 4.35534 49.5832 4.13778 49.482 3.97014C49.3803 3.80291 49.2728 3.66481 49.1591 3.55582C49.045 3.44725 48.8991 3.36779 48.7214 3.31788C48.5445 3.26796 48.3819 3.23634 48.234 3.22303C48.087 3.20972 47.9038 3.20307 47.6846 3.20307V2.86362C50.6294 2.86362 52.102 1.90936 52.102 0H52.4062V5.95687C52.6844 5.45103 53.1039 5.07831 53.665 4.83871C54.2257 4.59827 54.9832 4.47764 55.9374 4.47764ZM55.3553 19.8523C58.3673 19.8523 59.8736 17.3423 59.8736 12.3214C59.8736 10.9104 59.711 9.64663 59.3862 8.5293C59.0611 7.41239 58.5589 6.51221 57.8791 5.82875C57.2 5.1457 56.3844 4.80377 55.4314 4.80377C53.7601 4.80377 52.7516 5.45561 52.4062 6.75888V17.7358C52.4062 18.406 52.6736 18.9264 53.2087 19.2966C53.7446 19.6672 54.4601 19.8523 55.3553 19.8523Z" fill="black"/>
<path d="M72.6839 4.47763C74.1946 4.47763 75.4142 4.85326 76.3423 5.60411C77.2705 6.35538 77.7346 7.29217 77.7346 8.41449C77.7346 9.12 77.4603 9.78973 76.912 10.4229C76.3633 11.0551 75.6377 11.3713 74.7343 11.3713C74.2706 11.3713 73.7852 11.259 73.2784 11.0335C72.7724 10.8072 72.4138 10.4994 72.2028 10.11L72.4682 9.93366C72.8985 10.5851 73.3797 10.9104 73.9117 10.9104C74.1817 10.9104 74.4134 10.7635 74.607 10.4694C74.8014 10.1758 74.9322 9.875 74.9997 9.56759C75.068 9.25935 75.1022 8.9927 75.1022 8.76724C75.1022 8.27805 75.0657 7.8213 74.9935 7.39616C74.9221 6.97145 74.8018 6.55338 74.6334 6.14156C74.4646 5.72891 74.2136 5.40278 73.8806 5.16317C73.5473 4.92356 73.1484 4.80376 72.6839 4.80376C71.9583 4.80376 71.2284 5.00759 70.4938 5.41442C69.7601 5.82167 69.2583 6.26968 68.9882 6.75888V18.428C68.9882 18.7808 69.1547 19.032 69.488 19.1818C69.821 19.3307 70.3503 19.4047 71.0759 19.4047V19.7309H64.2666V19.4047C64.9918 19.4047 65.5211 19.3307 65.8545 19.1818C66.1874 19.032 66.3542 18.7808 66.3542 18.428V10.4761C66.3542 10.1233 66.331 9.81385 66.2844 9.54763C66.2386 9.28056 66.1653 9.06301 66.064 8.89536C65.9623 8.72814 65.8548 8.59003 65.7411 8.48105C65.6271 8.37247 65.4812 8.29385 65.3034 8.24477C65.1265 8.19485 64.9639 8.16324 64.8161 8.14992C64.669 8.13578 64.4858 8.12829 64.2666 8.12829V7.78885C67.2114 7.78885 68.684 6.835 68.684 4.92689H68.9882V6.28299C69.8489 5.07956 71.0809 4.47763 72.6839 4.47763Z" fill="black"/>
<path d="M83.9123 18.428C83.9123 18.7808 84.0788 19.032 84.4121 19.1818C84.745 19.3307 85.2743 19.4047 86 19.4047V19.7309H79.1907V19.4047C79.9159 19.4047 80.4452 19.3307 80.7785 19.1818C81.1115 19.032 81.2783 18.7808 81.2783 18.428V10.4761C81.2783 10.1233 81.255 9.81386 81.2085 9.54763C81.1627 9.28057 81.0893 9.06301 80.9881 8.89537C80.8864 8.72814 80.7789 8.59003 80.6652 8.48105C80.5511 8.37248 80.4052 8.29386 80.2275 8.24477C80.0506 8.19485 79.888 8.16324 79.7401 8.14993C79.5931 8.13578 79.4099 8.12829 79.1907 8.12829V7.78885C82.1355 7.78885 83.6081 6.835 83.6081 4.92689H83.9123V18.428ZM83.2666 3.51422H82.9624L82.5821 0.692192H84.6837L83.2666 3.51422Z" fill="black"/>
</svg>
