<svg width="1007" height="795" viewBox="0 0 1007 795" fill="none" xmlns="http://www.w3.org/2000/svg">
<mask id="mask0_194_393" style="mask-type:luminance" maskUnits="userSpaceOnUse" x="0" y="1" width="845" height="793">
<path d="M0.677231 1.29442H844.933V793.649H0.677231V1.29442Z" fill="white"/>
</mask>
<g mask="url(#mask0_194_393)">
<mask id="mask1_194_393" style="mask-type:luminance" maskUnits="userSpaceOnUse" x="1" y="2" width="843" height="791">
<path d="M66.1192 762.065C64.7745 755.563 68.0577 751.6 70.1189 747.372C89.9012 707.252 115.617 672.417 148.419 643.503C189.431 607.351 235.714 583.642 287.563 572.463C301.903 569.368 303.277 571.167 297.687 586.15C293.913 596.272 289.545 606.345 284.132 615.488C246.452 679.105 191.757 719.278 127.361 745.362C107.671 753.346 87.791 761.906 66.1192 762.065ZM1.3297 2.09037C2.36028 27.4123 4.07302 50.5914 8.85298 73.342C36.2617 204.168 105.983 299.207 216.811 360.073C278.714 394.061 310.555 448.562 310.118 524.306C310.044 537.866 305.48 543.549 293.079 546.056C173.006 570.214 88.4535 643.635 37.2922 762.435C33.6165 770.97 25.5239 782.043 31.6535 789.445C37.1205 796.053 49.1832 791.376 58.007 790.001C128.803 779.033 191.537 748.611 246.673 699.374C283.74 666.285 310.579 625.927 325.66 576.664C328.305 568.024 332.693 563.156 341.006 560.516C422.491 534.348 479.242 478.477 510.007 393.167C540.92 307.535 594.731 248.357 676.977 221.136C726.107 204.883 775.648 209.295 825.146 219.575C830.466 220.686 835.663 223.861 843.849 220.395C830.736 207.343 816.101 200.391 800.849 195.581C768.199 185.275 734.857 180.91 701.323 189.423C676.437 195.74 653.396 192.513 629.86 182.021C577.521 158.63 527.071 166.561 479.07 196.878C466.595 204.75 456.392 215.665 451.809 231.152C450.268 236.384 448.82 242.913 453.894 246.246C459.116 249.68 461.786 243.072 464.878 240.008C508.295 196.851 558.18 184.031 614.784 202.56C620.03 204.274 625.791 205.174 630.645 211.359C624.196 219.21 614.685 222.141 606.843 227.295C552.762 262.87 513.757 311.895 491.673 376.094C477.819 416.394 457.497 451.837 427.639 480.858C405.01 502.873 379.565 519.576 351.106 530.941C335.858 537.02 334.901 536.067 334.312 518.438C331.956 450.647 306.781 395.411 255.521 355.237C232.868 337.481 206.171 326.905 183.081 309.593C132.386 271.616 91.5403 224.76 64.431 164.392C51.3622 135.398 38.2738 106.648 37.1205 71.4955C49.0606 80.5322 59.9161 89.1774 71.1691 97.1824C128.141 137.805 191.512 156.44 258.976 164.842C348.284 175.968 410.772 256.156 410.183 353.338C410.158 358.412 406.679 366.39 412.391 368.136C419.159 370.2 422.466 361.978 425.308 356.507C435.02 337.793 431.781 317.921 427.713 298.678C409.496 212.496 334.14 144.625 252.14 137.726C162.219 130.139 85.4402 91.1826 22.388 21.3331C16.5529 14.8571 11.6257 7.00555 1.3297 2.11682" fill="white"/>
</mask>
<g mask="url(#mask1_194_393)">
<mask id="mask2_194_393" style="mask-type:luminance" maskUnits="userSpaceOnUse" x="0" y="1" width="845" height="793">
<path d="M844.933 1.29023H0.677368V793.645H844.933V1.29023Z" fill="white"/>
</mask>
<g mask="url(#mask2_194_393)">
<mask id="mask3_194_393" style="mask-type:luminance" maskUnits="userSpaceOnUse" x="1" y="1" width="843" height="793">
<path d="M1.1779 1.8917H843.927V793.648H1.1779V1.8917Z" fill="white"/>
</mask>
<g mask="url(#mask3_194_393)">
<mask id="mask4_194_393" style="mask-type:luminance" maskUnits="userSpaceOnUse" x="1" y="2" width="843" height="791">
<path d="M66.1193 762.063C64.7747 755.561 68.0578 751.598 70.119 747.37C89.9013 707.25 115.617 672.415 148.419 643.501C189.431 607.349 235.715 583.64 287.563 572.461C301.903 569.366 303.277 571.165 297.687 586.148C293.913 596.27 289.546 606.343 284.132 615.486C246.452 679.103 191.758 719.276 127.361 745.36C107.672 753.344 87.7911 761.904 66.1193 762.063ZM1.32982 2.08824C2.36041 27.4101 4.07314 50.5893 8.8531 73.3398C36.2618 204.166 105.983 299.205 216.811 360.071C278.715 394.059 310.555 448.56 310.118 524.304C310.044 537.864 305.48 543.546 293.079 546.054C173.006 570.212 88.4536 643.633 37.2924 762.433C33.6166 770.967 25.5241 782.041 31.6536 789.443C37.1206 796.051 49.1834 791.374 58.0071 789.999C128.804 779.031 191.537 748.608 246.673 699.372C283.74 666.283 310.579 625.925 325.66 576.662C328.305 568.022 332.693 563.154 341.006 560.514C422.491 534.346 479.242 478.475 510.008 393.165C540.92 307.533 594.731 248.355 676.977 221.134C726.107 204.88 775.648 209.293 825.146 219.573C830.466 220.684 835.663 223.859 843.849 220.393C830.736 207.341 816.101 200.389 800.849 195.579C768.199 185.273 734.857 180.908 701.324 189.421C676.437 195.738 653.396 192.51 629.86 182.019C577.521 158.628 527.071 166.559 479.07 196.875C466.595 204.748 456.393 215.663 451.809 231.149C450.268 236.382 448.82 242.911 453.895 246.244C459.116 249.678 461.786 243.07 464.878 240.006C508.295 196.849 558.18 184.029 614.784 202.558C620.03 204.272 625.791 205.171 630.645 211.356C624.196 219.208 614.686 222.139 606.843 227.292C552.762 262.868 513.757 311.893 491.673 376.092C477.819 416.392 457.497 451.835 427.639 480.855C405.01 502.871 379.565 519.574 351.106 530.938C335.858 537.018 334.901 536.065 334.312 518.436C331.957 450.645 306.781 395.409 255.521 355.235C232.868 337.479 206.171 326.903 183.081 309.591C132.386 271.614 91.5405 224.758 64.4311 164.39C51.3623 135.396 38.2739 106.646 37.1206 71.4933C49.0607 80.5301 59.9162 89.1753 71.1692 97.1803C128.141 137.803 191.512 156.438 258.976 164.839C348.284 175.966 410.772 256.154 410.183 353.336C410.158 358.41 406.679 366.388 412.391 368.134C419.159 370.198 422.467 361.976 425.308 356.505C435.02 337.791 431.781 317.919 427.713 298.676C409.496 212.494 334.14 144.623 252.14 137.724C162.219 130.137 85.4404 91.1805 22.3881 21.331C16.553 14.855 11.6259 7.00342 1.32982 2.11469" fill="white"/>
</mask>
<g mask="url(#mask4_194_393)">
<path d="M844.934 1.29008H0.67749V793.645H844.934V1.29008Z" fill="#FF0066"/>
</g>
</g>
</g>
</g>
</g>
<mask id="mask5_194_393" style="mask-type:luminance" maskUnits="userSpaceOnUse" x="0" y="0" width="847" height="795">
<path d="M0 -1.90735e-05H846.19V795H0V-1.90735e-05Z" fill="white"/>
</mask>
<g mask="url(#mask5_194_393)">
<mask id="mask6_194_393" style="mask-type:luminance" maskUnits="userSpaceOnUse" x="0" y="0" width="847" height="795">
<path d="M64.9231 762.355C63.7208 756.461 65.9733 752.419 67.8627 748.98C68.2799 748.213 68.6725 747.504 69.0405 746.763C88.8965 706.484 114.71 671.517 147.635 642.497C188.795 606.212 235.274 582.398 287.319 571.192C295.087 569.526 300.922 568.679 301.83 573.626C302.346 576.398 301.021 580.705 298.793 586.652C294.989 596.8 290.602 606.953 285.11 616.228C247.263 680.136 192.323 720.462 127.725 746.631C126.699 747.054 125.644 747.477 124.614 747.901C123.583 748.318 122.528 748.742 121.478 749.165C103.825 756.302 85.687 763.255 66.0715 763.413H65.0949L64.874 762.382M67.2738 761.8L66.0715 762.091V760.768C85.1962 760.609 102.942 753.842 120.619 746.684C121.674 746.26 122.7 745.837 123.755 745.414C124.81 744.991 125.841 744.567 126.871 744.144C191.096 718.14 245.546 678.099 283.054 614.799C288.423 605.736 292.761 595.747 296.511 585.673C298.842 579.462 299.75 575.975 299.406 574.15C299.087 572.409 297.05 571.774 287.76 573.779C236.108 584.906 189.997 608.535 149.151 644.56C116.501 673.342 90.8841 708.045 71.1459 748.028C70.7533 748.821 70.3361 749.588 69.9239 750.355C68.01 753.816 66.2678 757.043 67.2738 761.826V761.8ZM2.55302 2.03636C3.5836 27.3583 5.30125 50.4051 10.0321 73.0552C37.3672 203.479 106.839 298.201 217.352 358.913C279.643 393.14 311.783 448.059 311.317 524.331C311.243 538.553 306.242 544.764 293.276 547.378C173.596 571.457 89.3873 644.586 38.3732 763.016C37.6126 764.789 36.6556 766.662 35.7232 768.54C34.7171 770.545 33.6914 772.556 32.8326 774.566C30.4279 780.143 29.52 784.952 32.5382 788.598C36.2875 793.116 43.8157 791.666 51.8543 789.92C53.8909 789.471 55.9227 789.047 57.8121 788.756C128.363 777.841 190.9 747.53 245.889 698.421C282.784 665.464 309.506 625.317 324.508 576.319C327.276 567.282 331.958 562.102 340.664 559.298C421.805 533.241 478.237 477.661 508.88 392.743C539.915 306.741 593.997 247.25 676.635 219.918C726.059 203.559 775.821 208.03 825.393 218.336C826.59 218.601 827.792 218.945 828.97 219.288C830.222 219.653 831.449 219.997 832.72 220.262C835.787 220.897 839.144 221.003 843.433 219.209L843.874 220.447L843.04 221.426C830.123 208.553 815.686 201.686 800.511 196.903C767.979 186.618 734.883 182.311 701.59 190.744C676.414 197.109 653.103 193.861 629.395 183.263C577.473 160.058 527.416 167.909 479.685 198.035C467.377 205.807 457.449 216.511 452.963 231.574C451.344 237.044 450.392 242.409 454.509 245.134C457.473 247.092 459.24 245.028 461.763 241.727C462.474 240.801 463.21 239.822 464.02 239.029C507.781 195.607 558.108 182.628 615.153 201.315C615.914 201.554 616.699 201.792 617.509 202.03C618.313 202.268 619.148 202.532 619.982 202.792C623.879 204.061 628.001 205.913 631.603 210.537L632.29 211.41L631.579 212.257C627.019 217.807 621.013 220.95 615.349 223.966C612.631 225.415 609.956 226.817 607.483 228.457C553.622 263.901 514.789 312.687 492.822 376.595C478.9 417.054 458.479 452.683 428.475 481.888C405.723 504.009 380.155 520.792 351.549 532.236C342.18 535.96 336.64 537.918 334.485 531.654C333.528 528.903 333.283 524.569 333.087 518.57C330.76 451.148 305.751 396.309 254.811 356.4C243.116 347.258 230.371 340.015 217.474 332.692C205.564 325.957 193.575 319.137 182.395 310.783C131.577 272.699 90.5651 225.68 63.3282 165.052C63.1809 164.735 63.0337 164.391 62.8865 164.073C62.7392 163.756 62.592 163.412 62.4448 163.1C49.695 134.741 37.0482 106.276 35.8949 71.5737L35.7968 68.9283L37.8089 70.4627C41.6319 73.3673 45.3567 76.2244 49.0374 79.0232C52.5659 81.748 56.0453 84.4199 59.5052 87.0335C63.6226 90.1498 67.7155 93.1921 71.8329 96.1232C128.608 136.614 191.734 155.169 259.1 163.571C349.07 174.777 412 255.573 411.411 353.39C411.411 354.866 411.117 356.533 410.871 358.12C410.601 359.813 410.331 361.395 410.331 362.797C410.307 365.019 410.871 366.363 412.736 366.918C417.712 368.453 420.529 363.3 423.4 357.591C423.695 357.009 423.965 356.453 424.259 355.898C433.721 337.66 430.605 318.264 426.536 298.995C408.447 213.421 333.553 145.92 252.068 139.048C161.852 131.408 84.8036 92.3191 21.5305 22.2315C20.2791 20.8558 19.0767 19.4009 17.8793 17.9723C16.6279 16.4962 15.401 14.9883 14.0759 13.5333C10.572 9.67632 6.55267 6.02564 0.840279 3.30616L1.33103 2.08926L2.55302 2.03636ZM0.104146 2.14217L0.0305328 0.0311317L1.84633 0.872374C7.94641 3.78233 12.216 7.69225 15.8427 11.6815C17.1922 13.1894 18.4633 14.7238 19.7147 16.2052C20.9171 17.6549 22.0949 19.057 23.2972 20.3797C86.1483 89.9964 162.637 128.821 252.264 136.376C334.755 143.328 410.601 211.596 428.941 298.36C433.009 317.603 436.391 337.925 426.413 357.141C426.144 357.67 425.874 358.226 425.579 358.781C423.106 363.723 419.332 371.596 412.098 369.405C408.741 368.373 407.907 365.548 407.932 362.718C407.932 361.051 408.251 359.231 408.496 357.591C408.741 355.951 408.987 354.522 408.987 353.31C409.571 256.763 347.5 177.184 258.855 166.137C191.244 157.73 127.681 139.074 70.4834 98.2924C66.3169 95.3349 62.224 92.2662 58.082 89.1499C54.6271 86.5309 51.1427 83.8379 47.5896 81.1396C43.9384 78.3407 40.2087 75.4837 36.3857 72.579L37.0973 71.4944L38.3242 71.4415C39.448 105.509 51.8543 133.498 64.6287 161.909C64.7759 162.227 64.9231 162.571 65.0703 162.888C65.2127 163.206 65.3599 163.544 65.5071 163.862C92.5232 223.992 133.217 270.689 183.769 308.566C194.801 316.835 206.663 323.55 218.603 330.317C231.451 337.607 244.392 344.93 256.234 354.21C307.837 394.642 333.16 450.249 335.516 518.411C335.737 524.569 335.982 528.432 336.762 530.675C337.891 533.929 340.05 533.955 350.665 529.696C378.977 518.384 404.275 501.787 426.806 479.878C456.492 451.016 476.721 415.763 490.521 375.643C512.708 311.153 551.88 261.917 606.207 226.182C608.803 224.468 611.551 223.013 614.27 221.585C620.007 218.548 625.547 215.585 629.738 210.484L630.646 211.357L629.714 212.204C626.553 208.162 622.951 206.495 619.246 205.305C618.436 205.04 617.631 204.802 616.822 204.564C616.012 204.326 615.227 204.088 614.417 203.823C558.23 185.432 508.782 198.141 465.689 240.986C465.026 241.621 464.388 242.462 463.652 243.415C461.493 246.219 458.259 250.684 453.233 247.383C447.226 243.441 449.14 235.753 450.613 230.754C455.319 214.871 465.787 203.718 478.409 195.739C526.68 165.264 577.546 157.232 630.303 180.803C653.618 191.221 676.414 194.39 701.006 188.152C734.834 179.591 768.396 183.977 801.169 194.337C816.539 199.199 831.375 206.204 844.66 219.468L846.107 220.897L844.292 221.664C839.512 223.675 835.64 223.569 832.229 222.854C830.86 222.563 829.535 222.167 828.308 221.823C827.105 221.479 826.006 221.135 824.902 220.923C775.478 210.643 726.182 206.284 677.322 222.458C595.469 249.52 541.927 308.381 511.137 393.695C480.2 479.375 423.179 535.537 341.326 561.811C333.43 564.346 329.313 568.864 326.785 577.113C311.636 626.614 284.62 667.184 247.41 700.431C192.102 749.826 129.148 780.354 58.1311 791.349C56.3153 791.64 54.3571 792.063 52.3205 792.486C44.9396 794.068 35.5759 796.264 30.6978 790.344C26.5804 785.349 28.1999 779.005 30.5997 773.429C31.5076 771.339 32.5627 769.254 33.5688 767.244C34.5208 765.339 35.4287 763.572 36.1403 761.879C87.4733 642.708 172.345 568.996 292.81 544.764C304.652 542.384 308.77 537.23 308.843 524.305C309.285 449.064 277.71 395.013 216.203 361.263C105.101 300.212 35.1588 204.855 7.65687 73.6319C2.87201 50.749 1.13473 27.517 0.104146 2.14217Z" fill="white"/>
</mask>
<g mask="url(#mask6_194_393)">
<mask id="mask7_194_393" style="mask-type:luminance" maskUnits="userSpaceOnUse" x="-1" y="-1" width="848" height="796">
<path d="M846.189 -0.0644341H-0.579453V794.999H846.189V-0.0644341Z" fill="white"/>
</mask>
<g mask="url(#mask7_194_393)">
<mask id="mask8_194_393" style="mask-type:luminance" maskUnits="userSpaceOnUse" x="-1" y="0" width="848" height="796">
<path d="M-0.000228882 0.00156021H846.19V795.002H-0.000228882V0.00156021Z" fill="white"/>
</mask>
<g mask="url(#mask8_194_393)">
<mask id="mask9_194_393" style="mask-type:luminance" maskUnits="userSpaceOnUse" x="0" y="0" width="847" height="795">
<path d="M64.9229 762.358C63.7205 756.464 65.9731 752.422 67.8625 748.983C68.2796 748.216 68.6722 747.507 69.0403 746.766C88.8963 706.487 114.71 671.52 147.635 642.5C188.794 606.215 235.274 582.401 287.318 571.195C295.087 569.529 300.922 568.682 301.83 573.629C302.345 576.401 301.02 580.708 298.792 586.655C294.989 596.803 290.602 606.956 285.11 616.231C247.263 680.139 192.323 720.465 127.725 746.634C126.699 747.057 125.644 747.48 124.613 747.904C123.583 748.322 122.528 748.745 121.478 749.168C103.825 756.305 85.6867 763.258 66.0712 763.416H65.0946L64.8738 762.385M67.2736 761.803L66.0712 762.094V760.771C85.196 760.612 102.942 753.845 120.619 746.687C121.674 746.263 122.699 745.84 123.755 745.417C124.81 744.994 125.84 744.57 126.871 744.147C191.096 718.143 245.545 678.102 283.054 614.802C288.423 605.739 292.761 595.75 296.51 585.676C298.841 579.465 299.749 575.978 299.406 574.153C299.087 572.412 297.05 571.777 287.76 573.782C236.108 584.909 189.997 608.538 149.151 644.563C116.501 673.345 90.8838 708.048 71.1456 748.031C70.753 748.824 70.3359 749.591 69.9237 750.359C68.0097 753.819 66.2675 757.046 67.2736 761.829V761.803ZM2.55279 2.03941C3.58337 27.3613 5.30102 50.4082 10.0319 73.0582C37.367 203.482 106.838 298.204 217.351 358.916C279.643 393.143 311.783 448.062 311.316 524.334C311.243 538.556 306.242 544.767 293.276 547.381C173.596 571.46 89.387 644.59 38.373 763.019C37.6123 764.792 36.6554 766.665 35.7229 768.543C34.7169 770.548 33.6912 772.559 32.8324 774.569C30.4277 780.146 29.5198 784.955 32.5379 788.601C36.2873 793.119 43.8155 791.669 51.8541 789.923C53.8907 789.474 55.9224 789.05 57.8118 788.759C128.363 777.844 190.9 747.533 245.889 698.424C282.784 665.467 309.505 625.32 324.508 576.322C327.276 567.285 331.958 562.106 340.664 559.301C421.805 533.244 478.237 477.664 508.88 392.746C539.915 306.744 593.996 247.254 676.635 219.921C726.059 203.562 775.821 208.033 825.392 218.339C826.59 218.604 827.792 218.948 828.97 219.291C830.221 219.657 831.448 220 832.719 220.265C835.787 220.9 839.143 221.006 843.432 219.212L843.874 220.45L843.04 221.429C830.123 208.556 815.685 201.689 800.511 196.906C767.979 186.621 734.882 182.314 701.59 190.747C676.414 197.112 653.103 193.864 629.395 183.266C577.473 160.061 527.416 167.912 479.685 198.038C467.377 205.81 457.449 216.514 452.963 231.577C451.344 237.048 450.392 242.412 454.509 245.137C457.473 247.095 459.24 245.031 461.762 241.73C462.474 240.804 463.21 239.825 464.02 239.032C507.78 195.61 558.107 182.631 615.153 201.319C615.913 201.557 616.699 201.795 617.508 202.033C618.313 202.271 619.147 202.535 619.982 202.795C623.878 204.064 628.001 205.916 631.603 210.54L632.29 211.413L631.578 212.26C627.019 217.81 621.012 220.953 615.349 223.969C612.63 225.418 609.956 226.82 607.482 228.46C553.622 263.904 514.788 312.69 492.822 376.598C478.899 417.057 458.479 452.686 428.474 481.891C405.723 504.012 380.155 520.795 351.548 532.239C342.18 535.964 336.639 537.921 334.485 531.657C333.528 528.906 333.283 524.572 333.086 518.573C330.76 451.152 305.751 396.312 254.811 356.403C243.116 347.261 230.371 340.018 217.474 332.695C205.564 325.96 193.574 319.14 182.395 310.786C131.577 272.702 90.5648 225.683 63.3279 165.055C63.1807 164.738 63.0335 164.394 62.8862 164.076C62.739 163.759 62.5918 163.415 62.4446 163.103C49.6947 134.744 37.048 106.279 35.8947 71.5768L35.7965 68.9314L37.8086 70.4657C41.6316 73.3704 45.3565 76.2274 49.0371 79.0263C52.5657 81.7511 56.0451 84.4229 59.5049 87.0366C63.6224 90.1529 67.7153 93.1951 71.8327 96.1262C128.608 136.617 191.734 155.172 259.1 163.574C349.07 174.78 412 255.576 411.411 353.393C411.411 354.869 411.116 356.536 410.871 358.123C410.601 359.816 410.331 361.398 410.331 362.8C410.307 365.022 410.871 366.366 412.736 366.922C417.712 368.456 420.529 363.303 423.4 357.594C423.694 357.012 423.964 356.456 424.259 355.901C433.721 337.663 430.604 318.267 426.536 298.998C408.447 213.424 333.552 145.924 252.067 139.051C161.852 131.411 84.8034 92.3221 21.5303 22.2345C20.2789 20.8589 19.0765 19.4039 17.8791 17.9754C16.6276 16.4992 15.4008 14.9914 14.0757 13.5364C10.5717 9.67937 6.55244 6.02869 0.84005 3.30921L1.33081 2.09232L2.55279 2.03941ZM0.103918 2.14522L0.030304 0.0341835L1.8461 0.875425C7.94619 3.78538 12.2158 7.6953 15.8424 11.6846C17.192 13.1925 18.4631 14.7268 19.7145 16.2083C20.9168 17.6579 22.0947 19.06 23.297 20.3827C86.148 89.9995 162.637 128.824 252.264 136.379C334.755 143.331 410.601 211.599 428.941 298.363C433.009 317.606 436.39 337.928 426.413 357.144C426.143 357.673 425.873 358.229 425.579 358.784C423.105 363.726 419.332 371.599 412.098 369.408C408.741 368.376 407.907 365.551 407.931 362.721C407.931 361.054 408.25 359.234 408.496 357.594C408.741 355.954 408.986 354.525 408.986 353.313C409.57 256.766 347.5 177.187 258.855 166.14C191.243 157.733 127.681 139.077 70.4831 98.2955C66.3166 95.3379 62.2237 92.2692 58.0817 89.1529C54.6268 86.534 51.1425 83.8409 47.5894 81.1426C43.9382 78.3438 40.2084 75.4867 36.3855 72.582L37.097 71.4974L38.3239 71.4445C39.4478 105.512 51.8541 133.501 64.6284 161.912C64.7756 162.23 64.9229 162.574 65.0701 162.891C65.2124 163.209 65.3596 163.547 65.5069 163.865C92.5229 223.995 133.216 270.692 183.769 308.569C194.801 316.839 206.663 323.553 218.603 330.32C231.451 337.61 244.392 344.933 256.234 354.213C307.837 394.645 333.16 450.252 335.516 518.414C335.736 524.572 335.982 528.435 336.762 530.678C337.891 533.932 340.05 533.958 350.665 529.699C378.977 518.387 404.275 501.79 426.806 479.881C456.492 451.019 476.721 415.766 490.521 375.646C512.708 311.156 551.88 261.92 606.206 226.185C608.802 224.471 611.551 223.016 614.269 221.588C620.006 218.551 625.547 215.588 629.738 210.488L630.646 211.361L629.713 212.207C626.553 208.165 622.951 206.498 619.246 205.308C618.436 205.043 617.631 204.805 616.821 204.567C616.012 204.329 615.226 204.091 614.417 203.826C558.23 185.435 508.782 198.144 465.688 240.989C465.026 241.624 464.388 242.465 463.652 243.418C461.492 246.222 458.258 250.687 453.233 247.386C447.226 243.444 449.14 235.757 450.612 230.757C455.319 214.874 465.786 203.721 478.409 195.742C526.679 165.267 577.546 157.235 630.302 180.806C653.618 191.224 676.414 194.393 701.005 188.155C734.833 179.594 768.396 183.98 801.169 194.34C816.539 199.202 831.375 206.207 844.659 219.471L846.107 220.9L844.291 221.667C839.511 223.678 835.639 223.572 832.229 222.857C830.859 222.567 829.534 222.17 828.307 221.826C827.105 221.482 826.006 221.138 824.902 220.926C775.478 210.646 726.181 206.287 677.322 222.461C595.469 249.523 541.927 308.384 511.137 393.698C480.2 479.378 423.179 535.54 341.326 561.815C333.43 564.349 329.312 568.867 326.785 577.116C311.635 626.617 284.619 667.187 247.41 700.434C192.102 749.829 129.148 780.358 58.1308 791.352C56.315 791.643 54.3569 792.066 52.3203 792.489C44.9393 794.071 35.5757 796.267 30.6976 790.347C26.5802 785.352 28.1997 779.008 30.5994 773.432C31.5073 771.342 32.5625 769.257 33.5685 767.247C34.5206 765.342 35.4285 763.575 36.1401 761.882C87.4731 642.711 172.344 568.999 292.81 544.767C304.652 542.387 308.769 537.233 308.843 524.308C309.285 449.067 277.709 395.016 216.203 361.266C105.101 300.215 35.1586 204.858 7.65664 73.6349C2.87178 50.7521 1.1345 27.52 0.103918 2.14522Z" fill="white"/>
</mask>
<g mask="url(#mask9_194_393)">
<path d="M846.189 -0.0610046H-0.579681V795.002H846.189V-0.0610046Z" fill="#FF0066"/>
</g>
</g>
</g>
</g>
</g>
<mask id="mask10_194_393" style="mask-type:luminance" maskUnits="userSpaceOnUse" x="645" y="246" width="360" height="338">
<path d="M645.672 246.447H1004.49V583.705H645.672V246.447Z" fill="white"/>
</mask>
<g mask="url(#mask10_194_393)">
<mask id="mask11_194_393" style="mask-type:luminance" maskUnits="userSpaceOnUse" x="645" y="247" width="359" height="337">
<path d="M976.229 570.215C976.794 567.469 975.419 565.776 974.536 563.977C966.13 546.93 955.195 532.131 941.243 519.841C923.817 504.487 904.132 494.392 882.093 489.63C875.988 488.312 875.423 489.08 877.803 495.445C879.393 499.757 881.258 504.037 883.565 507.92C899.568 534.956 922.835 552.03 950.195 563.104C958.577 566.49 967.013 570.135 976.229 570.215ZM1003.79 247.199C1003.34 257.955 1002.61 267.812 1000.6 277.484C988.95 333.09 959.313 373.502 912.22 399.379C885.916 413.833 872.361 436.986 872.557 469.176C872.582 474.937 874.515 477.371 879.786 478.424C930.825 488.709 966.767 519.893 988.508 570.4C990.078 574.019 993.509 578.728 990.913 581.897C988.582 584.701 983.458 582.717 979.709 582.135C949.63 577.484 922.958 564.559 899.524 543.628C883.761 529.565 872.361 512.412 865.937 491.482C864.808 487.81 862.948 485.746 859.415 484.609C824.777 473.482 800.652 449.726 787.588 413.49C774.445 377.094 751.576 351.936 716.62 340.386C695.733 333.487 674.675 335.339 653.641 339.725C651.384 340.201 649.156 341.55 645.696 340.069C651.285 334.519 657.489 331.561 663.986 329.524C677.86 325.138 692.028 323.286 706.299 326.905C716.89 329.577 726.67 328.228 736.672 323.762C758.928 313.826 780.354 317.181 800.774 330.08C806.07 333.434 810.413 338.058 812.371 344.64C813.033 346.862 813.647 349.635 811.488 351.063C809.284 352.518 808.131 349.714 806.83 348.423C788.373 330.08 767.167 324.635 743.116 332.508C740.888 333.249 738.434 333.619 736.378 336.265C739.121 339.593 743.165 340.836 746.502 343.032C769.494 358.148 786.066 378.999 795.455 406.273C801.339 423.399 809.996 438.468 822.667 450.806C832.276 460.165 843.087 467.271 855.199 472.086C861.672 474.673 862.089 474.276 862.335 466.774C863.336 437.965 874.025 414.495 895.819 397.421C905.453 389.861 916.779 385.369 926.609 378.02C948.158 361.872 965.516 341.973 977.039 316.308C982.58 303.964 988.145 291.758 988.631 276.796C983.556 280.632 978.923 284.303 974.168 287.711C949.949 304.969 923.031 312.9 894.347 316.466C856.377 321.196 829.827 355.29 830.073 396.575C830.097 398.718 831.569 402.125 829.14 402.866C826.274 403.739 824.875 400.247 823.649 397.924C819.531 389.967 820.905 381.512 822.618 373.343C830.367 336.714 862.384 307.853 897.242 304.916C935.462 301.694 968.088 285.15 994.907 255.442C997.386 252.696 999.491 249.363 1003.86 247.278" fill="white"/>
</mask>
<g mask="url(#mask11_194_393)">
<mask id="mask12_194_393" style="mask-type:luminance" maskUnits="userSpaceOnUse" x="645" y="246" width="360" height="338">
<path d="M1004.49 246.446H645.176V583.705H1004.49V246.446Z" fill="white"/>
</mask>
<g mask="url(#mask12_194_393)">
<mask id="mask13_194_393" style="mask-type:luminance" maskUnits="userSpaceOnUse" x="645" y="246" width="360" height="338">
<path d="M645.672 246.987H1004.04V583.706H645.672V246.987Z" fill="white"/>
</mask>
<g mask="url(#mask13_194_393)">
<mask id="mask14_194_393" style="mask-type:luminance" maskUnits="userSpaceOnUse" x="645" y="247" width="359" height="337">
<path d="M976.23 570.212C976.795 567.466 975.421 565.773 974.537 563.974C966.131 546.927 955.197 532.129 941.244 519.838C923.818 504.484 904.134 494.389 882.094 489.627C875.989 488.31 875.424 489.077 877.805 495.442C879.395 499.754 881.259 504.034 883.566 507.918C899.57 534.954 922.836 552.027 950.196 563.101C958.578 566.487 967.014 570.133 976.23 570.212ZM1003.79 247.196C1003.34 257.952 1002.61 267.809 1000.6 277.481C988.951 333.088 959.314 373.499 912.221 399.376C885.917 413.831 872.362 436.984 872.558 469.173C872.583 474.935 874.516 477.368 879.787 478.421C930.826 488.707 966.769 519.891 988.509 570.397C990.08 574.016 993.51 578.725 990.914 581.894C988.583 584.698 983.459 582.714 979.71 582.132C949.631 577.482 922.959 564.556 899.525 543.625C883.762 529.562 872.362 512.41 865.938 491.479C864.809 487.807 862.949 485.744 859.416 484.606C824.778 473.48 800.653 449.724 787.589 413.487C774.447 377.091 751.577 351.933 716.621 340.384C695.734 333.484 674.676 335.336 653.642 339.722C651.385 340.198 649.157 341.548 645.697 340.066C651.287 334.516 657.49 331.558 663.987 329.521C677.861 325.135 692.029 323.284 706.3 326.903C716.891 329.574 726.672 328.225 736.673 323.76C758.929 313.824 780.355 317.178 800.776 330.077C806.071 333.431 810.414 338.056 812.372 344.637C813.035 346.86 813.648 349.632 811.489 351.06C809.285 352.515 808.132 349.711 806.831 348.42C788.374 330.077 767.169 324.633 743.117 332.506C740.889 333.246 738.435 333.617 736.379 336.262C739.122 339.59 743.166 340.833 746.503 343.029C769.495 358.145 786.068 378.996 795.456 406.27C801.34 423.397 809.997 438.465 822.668 450.803C832.277 460.163 843.089 467.268 855.2 472.083C861.673 474.67 862.091 474.273 862.336 466.771C863.337 437.962 874.026 414.492 895.82 397.419C905.454 389.858 916.78 385.366 926.61 378.017C948.159 361.87 965.517 341.971 977.04 316.305C982.581 303.961 988.146 291.756 988.632 276.793C983.557 280.629 978.925 284.301 974.169 287.708C949.95 304.967 923.033 312.898 894.348 316.464C856.378 321.194 829.828 355.288 830.074 396.572C830.098 398.715 831.57 402.122 829.141 402.863C826.275 403.736 824.877 400.244 823.65 397.921C819.532 389.964 820.906 381.509 822.619 373.34C830.368 336.712 862.385 307.85 897.243 304.914C935.463 301.692 968.089 285.147 994.909 255.439C997.387 252.693 999.492 249.36 1003.86 247.276" fill="white"/>
</mask>
<g mask="url(#mask14_194_393)">
<path d="M1004.49 246.446H645.176V583.705H1004.49V246.446Z" fill="#FF0066"/>
</g>
</g>
</g>
</g>
</g>
<mask id="mask15_194_393" style="mask-type:luminance" maskUnits="userSpaceOnUse" x="640" y="242" width="368" height="345">
<path d="M640.779 242.579H1007V586.414H640.779V242.579Z" fill="white"/>
</mask>
<g mask="url(#mask15_194_393)">
<mask id="mask16_194_393" style="mask-type:luminance" maskUnits="userSpaceOnUse" x="641" y="243" width="366" height="343">
<path d="M973.851 569.633C974.096 568.469 973.753 567.76 972.943 566.279C972.771 565.962 972.58 565.591 972.384 565.221C964.119 548.465 953.382 533.931 939.704 521.878C922.567 506.784 903.276 496.9 881.628 492.223C879.322 491.721 878.419 491.694 878.124 491.747C878.296 491.694 878.831 491.377 878.954 490.742C878.954 490.689 878.954 490.662 878.954 490.662C878.954 490.98 879.15 492.012 880.082 494.445C881.653 498.673 883.444 502.768 885.648 506.493C901.312 532.926 924.064 549.708 951.08 560.65C951.522 560.835 951.958 561.02 952.4 561.179C952.842 561.337 953.283 561.549 953.725 561.708C961.253 564.745 968.507 567.496 976.231 567.549L976.207 570.189L973.802 569.607M978.582 570.744L978.14 572.834L976.158 572.808C967.427 572.729 959.438 569.633 951.958 566.623C951.522 566.438 951.08 566.253 950.614 566.067C950.148 565.882 949.73 565.697 949.289 565.538C921.561 554.306 897.809 536.915 881.457 509.297C879.027 505.202 877.118 500.757 875.474 496.371C874.664 494.207 873.928 492.091 874.002 490.398C874.002 490.16 874.026 489.895 874.076 489.657C874.395 487.89 875.621 486.885 876.996 486.541C878.492 486.171 880.5 486.541 882.536 486.991C904.964 491.826 925.021 502.107 942.742 517.725C956.959 530.254 968.09 545.349 976.648 562.681C976.771 562.946 976.918 563.21 977.115 563.528C977.919 564.983 979.293 567.364 978.582 570.718V570.744ZM1006.19 247.253C1005.75 258.062 1005.01 268.104 1002.93 278.013C991.111 334.387 961.008 375.434 913.253 401.676C887.758 415.686 874.738 437.939 874.934 469.124C874.959 473.589 876.039 474.938 880.181 475.785C932.029 486.223 968.605 517.99 990.669 569.237C990.939 569.871 991.307 570.586 991.724 571.406C992.141 572.226 992.632 573.178 993.049 574.152C994.075 576.533 995.326 580.416 992.706 583.617C989.712 587.236 984.294 585.755 981.698 585.173C980.815 584.987 980.03 584.807 979.343 584.702C948.798 579.966 921.708 566.835 897.931 545.608C881.849 531.259 870.154 513.683 863.583 492.25C862.705 489.366 861.429 487.969 858.681 487.096C823.331 475.732 798.622 451.415 785.259 414.39C772.367 378.656 750.032 354.159 715.861 342.847C695.539 336.133 674.971 337.9 654.06 342.239C653.668 342.318 653.275 342.424 652.76 342.583C652.244 342.741 651.606 342.927 650.944 343.059C649.226 343.424 647.194 343.477 644.741 342.45L641.089 340.916L643.96 338.059C649.913 332.139 656.509 329.022 663.203 326.906C677.322 322.441 691.956 320.515 706.762 324.266C716.769 326.8 726.034 325.536 735.643 321.25C758.714 310.944 780.969 314.515 801.905 327.726C807.544 331.297 812.397 336.398 814.581 343.768C815.097 345.514 816.638 350.588 812.643 353.233C811.072 354.265 809.458 354.265 808.059 353.445C806.955 352.783 806.121 351.646 805.708 351.117C805.389 350.694 805.193 350.455 805.021 350.297L806.685 348.371L805.021 350.323C787.197 332.615 766.9 327.382 743.682 334.996C743.314 335.102 742.951 335.234 742.632 335.313C742.313 335.393 741.969 335.525 741.65 335.604C740.227 336.08 739.123 336.609 738.117 337.9L736.257 336.213L738.092 334.467C739.589 336.265 741.577 337.377 744.074 338.694C745.203 339.302 746.455 339.964 747.657 340.731C771.091 356.138 788.031 377.439 797.616 405.321C803.402 422.13 811.833 436.802 824.19 448.801C833.578 457.944 844.12 464.87 855.937 469.573C858.631 470.658 859.588 470.896 859.932 470.843C859.736 470.869 859.441 471.081 859.343 471.266C859.343 471.266 859.343 471.24 859.368 471.213C859.564 470.631 859.687 469.388 859.785 466.642C860.815 437.066 871.848 412.829 894.28 395.227C899.453 391.184 905.062 387.989 910.504 384.92C915.603 382.042 920.53 379.238 925.094 375.804C946.349 359.868 963.408 340.281 974.71 315.092C974.759 314.965 974.833 314.832 974.882 314.7C974.931 314.568 975.004 314.436 975.053 314.303C980.496 302.171 985.595 290.648 986.061 276.638L988.51 276.744L989.909 278.913C988.264 280.156 986.699 281.368 985.129 282.558C983.607 283.722 982.115 284.86 980.619 285.997C978.876 287.315 977.139 288.611 975.372 289.854C950.736 307.43 923.401 315.435 894.471 319.033C857.827 323.605 832.131 356.482 832.376 396.496C832.376 396.814 832.45 397.237 832.548 397.978C832.646 398.639 832.818 399.586 832.818 400.512C832.818 400.962 832.793 401.438 832.671 401.967C832.327 403.528 831.35 404.851 829.633 405.374C824.779 406.856 822.424 401.359 821.687 399.851C821.565 399.613 821.442 399.38 821.349 399.168C816.711 390.232 818.355 380.851 820.073 372.709C828.062 334.916 861.012 305.261 896.901 302.251C934.532 299.076 966.598 282.796 993 253.565C993.486 253.041 993.952 252.459 994.468 251.85C994.983 251.242 995.547 250.554 996.161 249.866C997.805 248.041 999.812 246.194 1002.71 244.819L1006.31 243.099L1006.14 247.358M1001.24 247.12L1003.69 247.226L1004.67 249.655C1002.54 250.66 1001.04 252.035 999.64 253.565C999.1 254.147 998.61 254.755 998.075 255.39C997.559 255.998 997.02 256.633 996.48 257.268C969.267 287.421 936.078 304.256 897.244 307.536C863.411 310.388 832.302 338.456 824.828 373.899C823.086 382.121 821.982 389.624 825.589 396.602C825.712 396.84 825.834 397.105 825.957 397.343C827.473 400.353 827.915 400.406 828.259 400.3C828.136 400.327 827.891 400.591 827.866 400.803C827.866 400.803 827.891 400.724 827.891 400.565C827.891 400.168 827.817 399.665 827.694 398.93C827.596 398.322 827.449 397.422 827.449 396.576C827.179 354 854.612 318.716 893.887 313.827C922.322 310.282 948.847 302.462 972.649 285.495C974.366 284.278 976.059 283.008 977.772 281.712C979.244 280.606 980.741 279.468 982.238 278.304C983.804 277.088 985.398 275.871 987.043 274.633L991.086 271.59L990.915 276.902C990.399 292.156 984.834 304.653 979.416 316.679C979.367 316.811 979.293 316.943 979.244 317.076C979.195 317.208 979.122 317.34 979.073 317.472C967.329 343.609 949.657 363.857 927.838 380.216C922.984 383.862 917.763 386.798 912.713 389.676C907.221 392.798 901.901 395.808 897.072 399.586C875.94 416.162 865.571 438.834 864.589 466.901C864.516 469.335 864.417 471.557 863.878 473.113C863.804 473.351 863.706 473.563 863.583 473.801C862.901 475.203 861.748 476.023 860.3 476.181C858.582 476.367 856.379 475.494 854.146 474.594C841.745 469.653 830.663 462.357 820.834 452.791C807.789 440.13 798.965 424.67 792.959 407.226C783.767 380.534 767.587 360.154 745.031 345.329C744.074 344.694 743.024 344.138 741.846 343.503C739.491 342.265 736.576 340.757 734.343 338.033L732.944 336.318L734.318 334.572C736.208 332.165 738.362 331.218 740.178 330.636C740.546 330.504 740.939 330.398 741.282 330.292C741.626 330.186 741.945 330.107 742.239 330.001C767.145 321.859 789.258 327.541 808.329 346.493C808.771 346.942 809.188 347.471 809.458 347.842C810.047 348.609 810.268 348.842 810.39 348.921C810.194 348.815 809.949 348.921 810.047 348.842C810.341 348.662 810.685 348.212 809.875 345.487C808.157 339.699 804.334 335.525 799.383 332.403C779.527 319.88 758.881 316.679 737.459 326.25C727.065 330.901 716.744 332.35 705.589 329.525C691.883 326.065 678.156 327.805 664.528 332.112C658.251 334.096 652.416 336.9 647.219 342.08L645.55 340.149L646.434 337.689C647.832 338.271 648.888 338.244 649.913 338.033C650.379 337.927 650.821 337.795 651.361 337.636C651.852 337.504 652.441 337.324 653.03 337.191C674.211 332.774 695.735 330.821 717.181 337.927C752.928 349.741 776.337 375.539 789.725 412.617C802.519 448.114 826.055 471.266 859.981 482.181C864.319 483.583 866.773 486.276 868.147 490.768C874.395 511.201 885.525 527.931 900.969 541.724C924.064 562.343 950.319 575.078 979.956 579.649C980.815 579.781 981.747 579.993 982.582 580.178C986.527 581.025 988.289 581.104 988.976 580.284L990.816 582.056L988.976 580.31C989.369 579.834 989.565 578.966 988.534 576.612C988.196 575.818 987.803 575.025 987.362 574.178C986.969 573.39 986.527 572.543 986.184 571.723C964.757 521.984 929.457 491.35 879.224 481.229C872.829 479.933 870.032 476.472 869.983 469.415C869.786 436.193 883.861 412.115 910.971 397.237C957.425 371.703 986.601 331.953 998.075 277.14C1000.06 267.707 1000.77 258.062 1001.21 247.332L1001.24 247.12Z" fill="white"/>
</mask>
<g mask="url(#mask16_194_393)">
<mask id="mask17_194_393" style="mask-type:luminance" maskUnits="userSpaceOnUse" x="640" y="242" width="368" height="345">
<path d="M1007 242.382H640.151V586.413H1007V242.382Z" fill="white"/>
</mask>
<g mask="url(#mask17_194_393)">
<mask id="mask18_194_393" style="mask-type:luminance" maskUnits="userSpaceOnUse" x="641" y="243" width="366" height="344">
<path d="M641.005 243.089H1006.45V586.416H641.005V243.089Z" fill="white"/>
</mask>
<g mask="url(#mask18_194_393)">
<mask id="mask19_194_393" style="mask-type:luminance" maskUnits="userSpaceOnUse" x="641" y="243" width="366" height="343">
<path d="M973.85 569.63C974.095 568.466 973.752 567.758 972.942 566.276C972.77 565.959 972.579 565.588 972.383 565.218C964.118 548.462 953.381 533.928 939.703 521.875C922.566 506.781 903.274 496.897 881.627 492.22C879.321 491.718 878.418 491.691 878.123 491.744C878.295 491.691 878.83 491.374 878.953 490.739C878.953 490.686 878.953 490.66 878.953 490.66C878.953 490.977 879.149 492.009 880.081 494.443C881.652 498.67 883.443 502.765 885.647 506.49C901.311 532.923 924.063 549.705 951.079 560.647C951.521 560.832 951.957 561.017 952.399 561.176C952.841 561.334 953.282 561.546 953.724 561.705C961.252 564.742 968.506 567.493 976.23 567.546L976.206 570.186L973.801 569.604M978.581 570.742L978.139 572.831L976.157 572.805C967.426 572.726 959.436 569.63 951.957 566.62C951.521 566.435 951.079 566.25 950.613 566.064C950.147 565.879 949.729 565.694 949.288 565.535C921.56 554.303 897.807 536.912 881.455 509.294C879.026 505.199 877.117 500.754 875.473 496.368C874.663 494.204 873.927 492.088 874.001 490.395C874.001 490.157 874.025 489.892 874.075 489.654C874.394 487.887 875.62 486.882 876.995 486.538C878.491 486.168 880.499 486.538 882.535 486.988C904.963 491.824 925.02 502.104 942.741 517.722C956.958 530.251 968.089 545.346 976.647 562.678C976.77 562.943 976.917 563.207 977.113 563.525C977.918 564.98 979.292 567.361 978.581 570.715V570.742ZM1006.19 247.25C1005.74 258.059 1005.01 268.101 1002.93 278.011C991.11 334.384 961.007 375.431 913.252 401.673C887.757 415.683 874.737 437.936 874.933 469.121C874.958 473.586 876.038 474.935 880.18 475.782C932.028 486.221 968.604 517.987 990.668 569.234C990.938 569.869 991.306 570.583 991.723 571.403C992.14 572.223 992.631 573.175 993.048 574.149C994.074 576.53 995.325 580.413 992.705 583.614C989.711 587.233 984.293 585.752 981.697 585.17C980.814 584.984 980.029 584.805 979.342 584.699C948.797 579.963 921.707 566.832 897.93 545.605C881.848 531.256 870.153 513.68 863.582 492.247C862.704 489.363 861.428 487.967 858.68 487.094C823.33 475.729 798.621 451.412 785.258 414.387C772.365 378.653 750.031 354.156 715.86 342.844C695.538 336.13 674.97 337.897 654.059 342.236C653.666 342.315 653.274 342.421 652.759 342.58C652.243 342.739 651.605 342.924 650.943 343.056C649.225 343.421 647.193 343.474 644.74 342.448L641.088 340.913L643.959 338.056C649.912 332.136 656.508 329.019 663.202 326.903C677.321 322.438 691.955 320.512 706.761 324.263C716.768 326.797 726.033 325.533 735.642 321.247C758.713 310.941 780.968 314.512 801.904 327.723C807.543 331.294 812.396 336.395 814.58 343.765C815.096 345.511 816.637 350.585 812.642 353.23C811.071 354.262 809.457 354.262 808.058 353.442C806.954 352.781 806.12 351.643 805.707 351.114C805.388 350.691 805.192 350.453 805.02 350.294L806.684 348.368L805.02 350.32C787.196 332.612 766.898 327.379 743.681 334.993C743.313 335.099 742.95 335.231 742.631 335.31C742.312 335.39 741.968 335.522 741.649 335.601C740.226 336.077 739.122 336.606 738.116 337.897L736.256 336.21L738.091 334.464C739.588 336.263 741.576 337.374 744.073 338.691C745.202 339.3 746.454 339.961 747.656 340.728C771.09 356.135 788.03 377.436 797.615 405.318C803.401 422.127 811.832 436.799 824.189 448.799C833.577 457.941 844.119 464.867 855.936 469.57C858.63 470.655 859.587 470.893 859.931 470.84C859.735 470.867 859.44 471.078 859.342 471.263C859.342 471.263 859.342 471.237 859.367 471.21C859.563 470.628 859.686 469.385 859.784 466.639C860.814 437.063 871.846 412.826 894.279 395.224C899.451 391.181 905.061 387.986 910.503 384.917C915.602 382.039 920.529 379.235 925.093 375.801C946.348 359.865 963.407 340.278 974.709 315.089C974.758 314.962 974.831 314.829 974.881 314.697C974.93 314.565 975.003 314.433 975.052 314.3C980.495 302.168 985.594 290.645 986.06 276.635L988.509 276.741L989.908 278.91C988.263 280.153 986.698 281.365 985.128 282.555C983.606 283.719 982.114 284.857 980.617 285.994C978.875 287.312 977.138 288.608 975.371 289.851C950.735 307.428 923.4 315.433 894.47 319.03C857.826 323.602 832.13 356.479 832.375 396.493C832.375 396.811 832.449 397.234 832.547 397.975C832.645 398.636 832.817 399.583 832.817 400.509C832.817 400.959 832.792 401.435 832.669 401.964C832.326 403.525 831.349 404.848 829.632 405.371C824.778 406.853 822.423 401.356 821.686 399.848C821.564 399.61 821.441 399.377 821.348 399.165C816.71 390.229 818.354 380.848 820.072 372.706C828.061 334.913 861.011 305.258 896.9 302.248C934.531 299.073 966.597 282.793 992.999 253.562C993.485 253.038 993.951 252.456 994.467 251.847C994.982 251.239 995.546 250.551 996.16 249.863C997.804 248.038 999.811 246.192 1002.71 244.816L1006.31 243.096L1006.14 247.355M1001.23 247.117L1003.69 247.223L1004.66 249.652C1002.53 250.657 1001.04 252.033 999.639 253.562C999.099 254.144 998.609 254.752 998.074 255.387C997.558 255.995 997.019 256.63 996.479 257.265C969.266 287.418 936.077 304.253 897.243 307.533C863.41 310.385 832.301 338.453 824.827 373.896C823.085 382.118 821.981 389.621 825.588 396.599C825.711 396.837 825.833 397.102 825.956 397.34C827.472 400.35 827.914 400.403 828.258 400.297C828.135 400.324 827.89 400.588 827.865 400.8C827.865 400.8 827.89 400.721 827.89 400.562C827.89 400.165 827.816 399.663 827.693 398.927C827.595 398.319 827.448 397.419 827.448 396.573C827.178 353.997 854.611 318.713 893.886 313.824C922.321 310.279 948.846 302.459 972.648 285.492C974.365 284.275 976.058 283.005 977.771 281.709C979.243 280.603 980.74 279.466 982.237 278.302C983.802 277.085 985.397 275.868 987.041 274.63L991.085 271.587L990.914 276.899C990.398 292.153 984.833 304.65 979.415 316.676C979.366 316.808 979.292 316.94 979.243 317.073C979.194 317.205 979.121 317.337 979.072 317.47C967.328 343.606 949.656 363.854 927.837 380.214C922.983 383.859 917.762 386.795 912.712 389.674C907.22 392.795 901.9 395.806 897.071 399.583C875.939 416.159 865.57 438.831 864.588 466.898C864.515 469.332 864.416 471.554 863.877 473.11C863.803 473.348 863.705 473.56 863.582 473.798C862.9 475.2 861.747 476.02 860.299 476.179C858.581 476.364 856.378 475.491 854.145 474.591C841.744 469.65 830.662 462.354 820.832 452.788C807.788 440.127 798.964 424.667 792.958 407.223C783.766 380.531 767.586 360.151 745.03 345.326C744.073 344.691 743.023 344.135 741.845 343.5C739.49 342.262 736.575 340.754 734.342 338.03L732.943 336.315L734.317 334.57C736.207 332.162 738.361 331.215 740.177 330.633C740.545 330.501 740.938 330.395 741.281 330.289C741.625 330.183 741.944 330.104 742.238 329.998C767.144 321.856 789.257 327.538 808.328 346.49C808.77 346.939 809.187 347.469 809.457 347.839C810.046 348.606 810.267 348.839 810.389 348.918C810.193 348.812 809.948 348.918 810.046 348.839C810.34 348.659 810.684 348.209 809.874 345.484C808.156 339.696 804.333 335.522 799.382 332.4C779.526 319.877 758.88 316.676 737.458 326.247C727.064 330.898 716.743 332.347 705.588 329.522C691.882 326.062 678.155 327.803 664.527 332.109C658.25 334.093 652.415 336.897 647.218 342.077L645.549 340.146L646.433 337.686C647.831 338.268 648.887 338.241 649.912 338.03C650.378 337.924 650.82 337.792 651.36 337.633C651.851 337.501 652.44 337.321 653.029 337.188C674.21 332.771 695.734 330.818 717.18 337.924C752.927 349.738 776.336 375.536 789.723 412.615C802.517 448.111 826.054 471.263 859.98 482.178C864.318 483.58 866.772 486.273 868.146 490.765C874.394 511.199 885.524 527.928 900.968 541.721C924.063 562.34 950.318 575.075 979.955 579.646C980.814 579.778 981.746 579.99 982.581 580.175C986.526 581.022 988.288 581.101 988.975 580.281L990.815 582.053L988.975 580.307C989.368 579.831 989.564 578.964 988.533 576.609C988.195 575.815 987.802 575.022 987.36 574.175C986.968 573.387 986.526 572.54 986.183 571.72C964.756 521.981 929.456 491.347 879.223 481.226C872.828 479.93 870.031 476.47 869.982 469.412C869.785 436.19 883.86 412.112 910.97 397.234C957.424 371.701 986.6 331.951 998.074 277.138C1000.06 267.704 1000.77 258.059 1001.21 247.329L1001.23 247.117Z" fill="white"/>
</mask>
<g mask="url(#mask19_194_393)">
<path d="M1007 242.382H640.151V586.413H1007V242.382Z" fill="#FF0066"/>
</g>
</g>
</g>
</g>
</g>
</svg>
