<svg width="602" height="1358" viewBox="0 0 602 1358" fill="none" xmlns="http://www.w3.org/2000/svg">
<g clip-path="url(#clip0_201_755)">
<mask id="mask0_201_755" style="mask-type:luminance" maskUnits="userSpaceOnUse" x="-2908" y="-1562" width="3170" height="3180">
<path d="M-2133.53 -1561.23L261.33 -461.86L-512.403 1617.06L-2907.26 517.691L-2133.53 -1561.23Z" fill="white"/>
</mask>
<g mask="url(#mask0_201_755)">
<mask id="mask1_201_755" style="mask-type:luminance" maskUnits="userSpaceOnUse" x="-2818" y="-1559" width="2863" height="2191">
<path d="M-2690.63 519.026C-2688.11 500.223 -2674.93 494.11 -2664.95 485.712C-2569.69 406.289 -2462.74 348.461 -2341.46 315.394C-2189.82 274.049 -2035.35 272.205 -1877.31 310.469C-1833.6 321.043 -1831.45 327.552 -1861.92 359.557C-1882.5 381.179 -1904.72 401.902 -1929 418.821C-2097.97 536.53 -2292.36 570.586 -2500.55 555.049C-2564.21 550.322 -2628.98 546.857 -2690.63 519.026ZM-2133.41 -1558.28C-2155.17 -1490.54 -2172.92 -1427.53 -2181.54 -1361.64C-2231.33 -982.85 -2126.14 -642.755 -1870.98 -338.695C-1728.45 -168.882 -1691.24 15.5352 -1766.34 213.586C-1779.77 249.049 -1798.26 258.001 -1835.9 248.414C-2200.22 155.258 -2511.76 237.581 -2772.8 482.424C-2791.56 500.012 -2825.32 518.502 -2815.14 545.902C-2806.07 570.356 -2767.28 573.814 -2740.9 581.708C-2529.29 645.224 -2321.59 647.215 -2117.11 589.969C-1979.65 551.514 -1864.13 480.666 -1773.29 371.141C-1757.36 351.933 -1740.16 344.887 -1713.99 348.8C-1457.23 386.387 -1241.69 313.848 -1071.19 130.243C-899.962 -54.016 -689.544 -139.059 -429.594 -103.241C-274.321 -81.8257 -138.029 -5.68155 -7.58528 85.7913C6.42823 95.6387 18.0814 110.737 44.6912 112.319C20.2062 61.0003 -14.545 23.6953 -53.1406 -8.79669C-135.747 -78.3795 -226.111 -133.284 -329.577 -154.668C-406.361 -170.54 -468.602 -209.034 -525.165 -267.225C-650.888 -396.781 -801.793 -441.74 -967.577 -424.807C-1010.66 -420.422 -1050.26 -405.099 -1078.36 -370.464C-1087.84 -358.751 -1098.32 -343.517 -1087.17 -328.163C-1075.7 -312.353 -1061.67 -326.201 -1049.91 -330.205C-884.615 -386.785 -730.545 -355.38 -587.978 -233.016C-574.762 -221.683 -559.288 -211.815 -551.546 -189.27C-577.502 -177.086 -607.351 -181.796 -634.632 -178.504C-822.801 -155.706 -981.3 -77.9888 -1106.58 61.574C-1185.19 149.195 -1277.43 215.649 -1390.46 252.831C-1476.14 281.066 -1564.64 291.701 -1656.49 284.408C-1705.69 280.475 -1707.48 276.731 -1691.96 229.735C-1632.53 48.8969 -1650.12 -128.762 -1756.41 -300.92C-1803.38 -377.007 -1868.83 -439.539 -1917.48 -515.03C-2024.31 -680.694 -2094.53 -856.801 -2112.6 -1050.44C-2121.41 -1143.5 -2130.52 -1235.95 -2099.52 -1329.64C-2074.44 -1290.38 -2052.07 -1253.56 -2027.94 -1217.9C-1905.87 -1037.12 -1744.2 -905.652 -1560.94 -795.687C-1318.34 -650.105 -1219.21 -358.383 -1315.64 -104.313C-1320.66 -91.0397 -1338.32 -74.6528 -1323.81 -62.6288C-1306.62 -48.3971 -1289.21 -65.6461 -1275.81 -76.2882C-1230 -112.702 -1219.81 -169.034 -1212.6 -224.797C-1180.25 -474.535 -1327.92 -750.73 -1553.9 -875.701C-1801.69 -1012.8 -1981.59 -1215.03 -2092.41 -1480.38C-2102.65 -1504.96 -2108.98 -1531.98 -2133.43 -1558.22" fill="white"/>
</mask>
<g mask="url(#mask1_201_755)">
<mask id="mask2_201_755" style="mask-type:luminance" maskUnits="userSpaceOnUse" x="-2908" y="-1562" width="3170" height="3179">
<path d="M261.445 -460.805L-2134.57 -1561.24L-2907.11 516.44L-511.09 1616.88L261.445 -460.805Z" fill="white"/>
</mask>
<g mask="url(#mask2_201_755)">
<mask id="mask3_201_755" style="mask-type:luminance" maskUnits="userSpaceOnUse" x="-2906" y="-1560" width="3165" height="3176">
<path d="M-2133.75 -1559.02L258.031 -460.523L-513.924 1615.63L-2905.71 517.134L-2133.75 -1559.02Z" fill="white"/>
</mask>
<g mask="url(#mask3_201_755)">
<mask id="mask4_201_755" style="mask-type:luminance" maskUnits="userSpaceOnUse" x="-2817" y="-1559" width="2862" height="2191">
<path d="M-2690.58 518.943C-2688.06 500.14 -2674.87 494.028 -2664.9 485.63C-2569.64 406.213 -2462.7 348.389 -2341.41 315.326C-2189.77 273.986 -2035.3 272.147 -1877.26 310.413C-1833.54 320.988 -1831.4 327.496 -1861.87 359.5C-1882.45 381.121 -1904.66 401.843 -1928.94 418.761C-2097.9 536.461 -2292.3 570.511 -2500.49 554.969C-2564.15 550.241 -2628.92 546.775 -2690.58 518.943ZM-2133.49 -1558.29C-2155.26 -1490.55 -2173 -1427.53 -2181.61 -1361.65C-2231.38 -982.873 -2126.17 -642.787 -1870.98 -338.73C-1728.43 -168.919 -1691.2 15.4935 -1766.29 213.536C-1779.72 248.998 -1798.21 257.949 -1835.86 248.361C-2200.18 155.199 -2511.73 237.512 -2772.75 482.34C-2791.5 499.927 -2825.27 518.416 -2815.09 545.814C-2806.02 570.268 -2767.22 573.727 -2740.84 581.621C-2529.22 645.141 -2321.52 647.137 -2117.04 589.898C-1979.58 551.448 -1864.06 480.605 -1773.23 371.086C-1757.3 351.879 -1740.1 344.834 -1713.93 348.747C-1457.16 386.34 -1241.63 313.808 -1071.14 130.213C-899.92 -54.0354 -689.505 -139.07 -429.548 -103.246C-274.27 -81.8283 -137.971 -5.68306 -7.51823 85.7902C6.49623 95.6377 18.1507 110.736 44.7611 112.318C20.2719 61.0007 -14.4826 23.696 -53.0812 -8.79594C-135.694 -78.3787 -226.064 -133.284 -329.533 -154.67C-406.32 -170.543 -468.564 -209.038 -525.133 -267.228C-650.867 -396.783 -801.778 -441.745 -967.563 -424.816C-1010.64 -420.433 -1050.24 -405.111 -1078.35 -370.478C-1087.82 -358.765 -1098.3 -343.533 -1087.15 -328.178C-1075.68 -312.368 -1061.66 -326.216 -1049.89 -330.219C-884.598 -386.793 -730.523 -355.386 -587.944 -233.022C-574.727 -221.689 -559.252 -211.82 -551.508 -189.276C-577.464 -177.093 -607.314 -181.804 -634.595 -178.513C-822.765 -155.72 -981.261 -78.0095 -1106.53 61.5457C-1185.14 149.162 -1277.37 215.611 -1390.4 252.79C-1476.09 281.022 -1564.59 291.653 -1656.44 284.359C-1705.64 280.425 -1707.42 276.68 -1691.91 229.687C-1632.5 48.8556 -1650.09 -128.798 -1756.4 -300.953C-1803.38 -377.039 -1868.83 -439.57 -1917.49 -515.061C-2024.33 -680.722 -2094.57 -856.826 -2112.65 -1050.46C-2121.47 -1143.52 -2130.59 -1235.97 -2099.59 -1329.64C-2074.51 -1290.39 -2052.13 -1253.57 -2028 -1217.91C-1905.92 -1037.13 -1744.24 -905.666 -1560.96 -795.699C-1318.35 -650.116 -1219.19 -358.401 -1315.61 -104.341C-1320.63 -91.0686 -1338.28 -74.6827 -1323.77 -62.6587C-1306.58 -48.427 -1289.18 -65.675 -1275.78 -76.3164C-1229.97 -112.728 -1219.79 -169.058 -1212.57 -224.819C-1180.25 -474.548 -1327.93 -750.738 -1553.93 -875.711C-1801.73 -1012.81 -1981.65 -1215.04 -2092.49 -1480.38C-2102.74 -1504.97 -2109.07 -1531.98 -2133.52 -1558.22" fill="white"/>
</mask>
<g mask="url(#mask4_201_755)">
<path d="M261.448 -460.81L-2134.58 -1561.25L-2907.11 516.438L-511.08 1616.87L261.448 -460.81Z" fill="#FFF4DE"/>
</g>
</g>
</g>
</g>
</g>
<mask id="mask5_201_755" style="mask-type:luminance" maskUnits="userSpaceOnUse" x="-2911" y="-1566" width="3178" height="3189">
<path d="M-2134.22 -1565.54L266.16 -463.633L-510.166 1622.26L-2910.55 520.353L-2134.22 -1565.54Z" fill="white"/>
</mask>
<g mask="url(#mask5_201_755)">
<mask id="mask6_201_755" style="mask-type:luminance" maskUnits="userSpaceOnUse" x="-2821" y="-1566" width="2872" height="2202">
<path d="M-2694.32 518.173C-2691.99 501.15 -2681.65 493.486 -2672.94 486.931C-2671.01 485.462 -2669.2 484.115 -2667.43 482.652C-2571.81 402.91 -2464.45 344.862 -2342.71 311.678C-2190.52 270.178 -2035.4 268.313 -1876.77 306.763C-1853.1 312.518 -1835.72 317.904 -1837.96 332.06C-1839.21 340.001 -1847.17 349.568 -1859.29 362.258C-1879.98 383.911 -1902.33 404.817 -1926.96 421.98C-2096.68 540.234 -2291.92 574.373 -2500.76 558.796C-2504.09 558.569 -2507.49 558.303 -2510.83 558.07C-2514.16 557.823 -2517.57 557.558 -2520.96 557.299C-2578.02 553.006 -2636.27 547.595 -2692.1 522.444L-2694.87 521.171L-2694.49 518.178M-2687.11 519.78L-2690.81 518.976L-2689.52 515.507C-2635.09 540.018 -2578.13 545.403 -2520.98 549.672C-2517.57 549.938 -2514.25 550.165 -2510.84 550.43C-2507.44 550.695 -2504.1 550.929 -2500.76 551.162C-2293.14 566.683 -2099.57 532.654 -1931.4 415.554C-1907.33 398.786 -1885.27 378.246 -1864.81 356.717C-1852.14 343.467 -1846.16 335.508 -1845.36 330.273C-1844.56 325.293 -1849.72 320.974 -1878.04 314.123C-2035.48 275.976 -2189.38 277.836 -2340.42 319.065C-2461.15 351.984 -2567.69 409.593 -2662.69 488.712C-2664.58 490.282 -2666.51 491.75 -2668.43 493.224C-2677.24 499.803 -2685.33 505.996 -2687.14 519.849L-2687.11 519.78ZM-2129.89 -1556.89C-2151.66 -1489.14 -2169.26 -1426.47 -2177.92 -1360.91C-2227.53 -983.272 -2122.75 -644.335 -1868.33 -341.087C-1724.93 -170.144 -1687.27 15.7596 -1762.97 215.16C-1777.05 252.357 -1797.3 262.127 -1836.64 252.081C-2199.77 159.229 -2510.05 241.237 -2770.31 485.301C-2774.2 488.958 -2778.74 492.622 -2783.22 496.332C-2788.03 500.279 -2792.9 504.214 -2797.3 508.367C-2809.56 519.856 -2816.83 531.284 -2811.82 544.777C-2805.58 561.512 -2782.81 567.523 -2758.29 573.422C-2752.07 574.897 -2745.89 576.436 -2740.25 578.135C-2529.39 641.47 -2322.36 643.497 -2118.41 586.392C-1981.57 548.06 -1866.59 477.613 -1776.23 368.68C-1759.57 348.591 -1741.23 341.111 -1713.79 345.105C-1458.11 382.536 -1243.76 310.343 -1073.99 127.605C-902.05 -57.4651 -690.561 -142.975 -429.389 -106.936C-273.176 -85.4147 -136.314 -8.83 -5.68707 82.8083C-2.54681 85.0628 0.529969 87.5317 3.53712 89.9687C6.73253 92.5572 9.87896 95.0581 13.2281 97.4085C21.3134 103.071 30.7364 107.724 44.6577 108.611L44.7039 112.434L41.3818 113.913C17.2784 63.3215 -16.9983 26.4943 -55.3969 -5.82597C-137.69 -75.1999 -227.415 -129.632 -330.12 -150.911C-407.773 -167.035 -470.759 -205.937 -527.707 -264.629C-652.427 -393.156 -802.14 -437.812 -966.973 -421.026C-1009.48 -416.688 -1048.09 -401.561 -1075.51 -367.908C-1085.44 -355.673 -1093.38 -342.846 -1084.35 -330.334C-1077.84 -321.337 -1070.82 -324.445 -1060.44 -329.814C-1057.52 -331.315 -1054.47 -332.922 -1051.4 -333.948C-884.872 -390.774 -729.393 -359.21 -585.727 -235.853C-583.801 -234.237 -581.805 -232.59 -579.739 -230.91C-577.687 -229.237 -575.577 -227.455 -573.462 -225.688C-563.643 -217.28 -553.75 -207.051 -548.036 -190.23L-546.938 -187.045L-549.783 -185.752C-568.133 -177.141 -588.245 -176.729 -607.257 -176.203C-616.387 -175.945 -625.344 -175.754 -633.963 -174.677C-821.376 -151.937 -979.156 -74.6211 -1103.81 64.3323C-1182.78 152.28 -1275.47 219.092 -1389.1 256.568C-1475.24 284.921 -1564.17 295.603 -1656.51 288.327C-1686.73 285.883 -1704.36 283.795 -1704.36 264.56C-1704.4 256.098 -1700.87 244.415 -1695.57 228.426C-1636.43 48.5975 -1653.93 -127.804 -1759.57 -298.852C-1783.84 -338.069 -1812.95 -373.675 -1842.41 -409.686C-1869.64 -442.873 -1897.02 -476.383 -1920.6 -512.861C-2027.67 -678.963 -2098.21 -855.718 -2116.39 -1050.2C-2116.49 -1051.23 -2116.58 -1052.32 -2116.68 -1053.34C-2116.79 -1054.37 -2116.88 -1055.46 -2116.99 -1056.47C-2125.52 -1147.46 -2133.65 -1238.58 -2103.08 -1331.08L-2100.78 -1338.15L-2096.57 -1331.5C-2088.55 -1318.9 -2080.77 -1306.56 -2073.05 -1294.42C-2065.69 -1282.68 -2058.42 -1271.13 -2051.16 -1259.77C-2042.51 -1246.23 -2033.86 -1232.92 -2025.03 -1219.87C-1903.4 -1039.69 -1742.35 -908.752 -1559.36 -798.914C-1314.96 -652.261 -1215.16 -358.367 -1312.22 -102.632C-1313.66 -98.7609 -1316.12 -94.7744 -1318.37 -90.932C-1320.78 -86.8441 -1323.09 -83.0476 -1324.46 -79.371C-1326.7 -73.5759 -1326.4 -69.3163 -1321.65 -65.4288C-1309.03 -54.9192 -1296.01 -64.7609 -1282.29 -75.989C-1280.89 -77.1313 -1279.58 -78.2363 -1278.21 -79.3093C-1233.57 -114.8 -1223.5 -169.724 -1216.25 -225.556C-1184.14 -473.533 -1330.86 -748.156 -1555.4 -872.387C-1803.98 -1010.01 -1984.51 -1212.94 -2095.73 -1479.2C-2097.94 -1484.43 -2099.93 -1489.82 -2101.94 -1495.12C-2104.05 -1500.63 -2106.06 -1506.18 -2108.4 -1511.72C-2114.59 -1526.4 -2122.43 -1541.21 -2135.99 -1555.79L-2133.41 -1558.34L-2129.89 -1556.89ZM-2136.95 -1559.8L-2135.1 -1565.44L-2130.76 -1560.86C-2116.29 -1545.28 -2107.99 -1529.46 -2101.58 -1514.27C-2099.23 -1508.56 -2097.11 -1502.88 -2095.01 -1497.37C-2093.01 -1492 -2091.03 -1486.79 -2088.91 -1481.75C-1978.43 -1217.27 -1799.23 -1015.77 -1552.24 -879.137C-1324.92 -753.387 -1176.25 -475.511 -1208.81 -224.087C-1216.03 -168.324 -1226.25 -110.627 -1273.3 -73.2408C-1274.59 -72.2052 -1275.89 -71.1002 -1277.27 -70.0273C-1289.11 -60.2928 -1307.5 -44.5672 -1325.89 -59.7396C-1334.41 -66.8203 -1334.02 -75.3164 -1331.19 -82.707C-1329.57 -87.0773 -1326.89 -91.4342 -1324.59 -95.4154C-1322.3 -99.3965 -1320.21 -102.823 -1319.02 -106C-1223.22 -358.412 -1321.77 -647.995 -1562.56 -792.505C-1746.24 -902.676 -1908.43 -1034.44 -2030.98 -1215.94C-2039.92 -1229.12 -2048.54 -1242.51 -2057.26 -1256.08C-2064.51 -1267.45 -2071.77 -1279.05 -2079.22 -1290.76C-2086.85 -1302.86 -2094.65 -1315.21 -2102.67 -1327.81L-2099.59 -1329.73L-2096.06 -1328.26C-2126.09 -1237.47 -2118.18 -1147.9 -2109.63 -1056.75C-2109.52 -1055.72 -2109.44 -1054.63 -2109.33 -1053.6C-2109.24 -1052.59 -2109.15 -1051.51 -2109.04 -1050.48C-2091.01 -857.591 -2021.06 -682.099 -1914.53 -516.884C-1891.29 -480.819 -1864.18 -447.752 -1836.89 -414.445C-1807.54 -378.58 -1777.95 -342.511 -1753.4 -302.741C-1646.38 -129.455 -1628.74 49.3669 -1688.53 231.176C-1693.9 247.614 -1696.97 258.061 -1696.95 264.961C-1696.92 274.965 -1690.82 277.849 -1656.54 280.516C-1565.16 287.755 -1477.18 277.206 -1391.88 249.121C-1279.49 212.131 -1187.7 146.055 -1109.42 58.835C-983.565 -81.3567 -824.385 -159.411 -635.365 -182.306C-626.326 -183.418 -617.108 -183.651 -608 -183.853C-588.757 -184.339 -570.144 -184.887 -553.277 -192.799L-551.552 -189.326L-555.023 -188.322C-560.051 -203.041 -568.648 -212.106 -578.002 -220.058C-580.042 -221.807 -582.094 -223.48 -584.16 -225.16C-586.226 -226.84 -588.222 -228.487 -590.262 -230.236C-731.779 -351.697 -884.502 -382.823 -1048.58 -326.64C-1051.08 -325.838 -1053.71 -324.464 -1056.72 -322.926C-1065.59 -318.387 -1079.12 -310.893 -1090.16 -326.1C-1103.36 -344.266 -1090.44 -361.93 -1081.38 -373.122C-1052.54 -408.638 -1011.96 -424.24 -968.355 -428.71C-801.649 -445.708 -649.463 -400.469 -522.731 -269.897C-466.722 -212.189 -405.121 -174.166 -329.25 -158.47C-224.902 -136.827 -133.932 -81.5793 -51.0284 -11.6977C-12.1501 21.0865 23.1206 58.7926 47.8867 110.89L50.6022 116.523L44.701 116.168C29.1754 115.21 18.2901 109.886 9.3073 103.567C5.7054 101.019 2.33203 98.2518 -0.814389 95.7509C-3.89117 93.2819 -6.67549 90.9472 -9.60272 88.9531C-139.838 -2.42399 -275.485 -78.1097 -429.915 -99.381C-688.596 -135.104 -897.939 -50.5415 -1068.51 133.045C-1239.86 317.397 -1456.45 390.348 -1714.36 352.559C-1739.24 348.912 -1755.33 355.394 -1770.55 373.729C-1861.81 483.788 -1978.04 554.961 -2116.06 593.647C-2321.18 651.086 -2529.61 649.084 -2741.87 585.349C-2747.31 583.746 -2753.28 582.303 -2759.47 580.759C-2781.96 575.287 -2810.67 568.84 -2818.74 546.957C-2825.56 528.493 -2814.78 513.969 -2802.53 502.473C-2797.91 498.176 -2792.89 494.085 -2788.07 490.124C-2783.51 486.371 -2779.21 482.92 -2775.54 479.408C-2513.65 233.817 -2200.92 151.147 -1835.42 244.62C-1799.49 253.812 -1782.78 245.665 -1769.97 211.867C-1695.34 15.1398 -1732.24 -167.753 -1873.88 -336.423C-2129.64 -641.328 -2235.14 -982.543 -2185.23 -1362.49C-2176.49 -1428.73 -2158.77 -1491.92 -2136.95 -1559.8Z" fill="white"/>
</mask>
<g mask="url(#mask6_201_755)">
<mask id="mask7_201_755" style="mask-type:luminance" maskUnits="userSpaceOnUse" x="-2913" y="-1567" width="3180" height="3190">
<path d="M266.341 -462.723L-2136.83 -1566.45L-2912.01 518.357L-508.841 1622.08L266.341 -462.723Z" fill="white"/>
</mask>
<g mask="url(#mask7_201_755)">
<mask id="mask8_201_755" style="mask-type:luminance" maskUnits="userSpaceOnUse" x="-2911" y="-1566" width="3178" height="3189">
<path d="M-2135.27 -1565.56L266.278 -462.578L-508.838 1622.08L-2910.39 519.098L-2135.27 -1565.56Z" fill="white"/>
</mask>
<g mask="url(#mask8_201_755)">
<mask id="mask9_201_755" style="mask-type:luminance" maskUnits="userSpaceOnUse" x="-2821" y="-1566" width="2872" height="2201">
<path d="M-2694.27 518.092C-2691.93 501.07 -2681.6 493.407 -2672.88 486.852C-2670.95 485.384 -2669.15 484.036 -2667.38 482.574C-2571.76 402.836 -2464.4 344.793 -2342.67 311.613C-2190.48 270.118 -2035.35 268.257 -1876.72 306.711C-1853.05 312.467 -1835.66 317.853 -1837.91 332.008C-1839.15 339.949 -1847.11 349.515 -1859.23 362.204C-1879.92 383.856 -1902.27 404.761 -1926.9 421.923C-2096.62 540.169 -2291.86 574.301 -2500.7 558.719C-2504.02 558.492 -2507.43 558.227 -2510.77 557.993C-2514.1 557.746 -2517.51 557.48 -2520.9 557.221C-2577.96 552.928 -2636.21 547.515 -2692.04 522.364L-2694.81 521.091L-2694.43 518.097M-2687.05 519.699L-2690.75 518.895L-2689.46 515.427C-2635.03 539.939 -2578.07 545.325 -2520.92 549.595C-2517.51 549.861 -2514.19 550.088 -2510.78 550.353C-2507.37 550.619 -2504.04 550.852 -2500.7 551.085C-2293.07 566.611 -2099.5 532.589 -1931.34 415.497C-1907.26 398.73 -1885.21 378.191 -1864.75 356.663C-1852.08 343.414 -1846.1 335.455 -1845.3 330.221C-1844.51 325.241 -1849.67 320.921 -1877.99 314.07C-2035.43 275.921 -2189.33 277.776 -2340.38 319C-2461.1 351.915 -2567.64 409.52 -2662.64 488.634C-2664.52 490.203 -2666.46 491.671 -2668.37 493.145C-2677.18 499.724 -2685.27 505.916 -2687.08 519.769L-2687.05 519.699ZM-2129.98 -1556.89C-2151.74 -1489.15 -2169.34 -1426.48 -2178 -1360.92C-2227.58 -983.293 -2122.77 -644.364 -1868.32 -341.118C-1724.91 -170.177 -1687.24 15.7214 -1762.92 215.113C-1777 252.309 -1797.25 262.079 -1836.59 252.032C-2199.73 159.173 -2510.01 241.17 -2770.26 485.22C-2774.15 488.876 -2778.69 492.54 -2783.17 496.25C-2787.98 500.196 -2792.85 504.131 -2797.25 508.284C-2809.51 519.772 -2816.77 531.2 -2811.76 544.692C-2805.53 561.427 -2782.75 567.439 -2758.23 573.338C-2752.01 574.814 -2745.83 576.352 -2740.19 578.052C-2529.32 641.39 -2322.28 643.423 -2118.34 586.325C-1981.5 547.997 -1866.52 477.556 -1776.17 368.628C-1759.51 348.54 -1741.17 341.061 -1713.73 345.056C-1458.04 382.492 -1243.69 310.308 -1073.94 127.58C-902.006 -57.4804 -690.519 -142.982 -429.34 -106.937C-273.123 -85.4126 -136.254 -8.82674 -5.61779 82.8121C-2.47732 85.0666 0.599697 87.5356 3.60708 89.9726C6.80274 92.561 9.94939 95.0619 13.2988 97.4124C21.3847 103.075 30.8081 107.728 44.7297 108.616L44.7762 112.438L41.4541 113.917C17.3466 63.3265 -16.9334 26.4996 -55.335 -5.82068C-137.635 -75.1946 -227.365 -129.627 -330.074 -150.908C-407.729 -167.034 -470.719 -205.936 -527.672 -264.628C-652.403 -393.154 -802.122 -437.812 -966.956 -421.032C-1009.47 -416.694 -1048.08 -401.569 -1075.49 -367.918C-1085.42 -355.684 -1093.36 -342.857 -1084.33 -330.345C-1077.82 -321.348 -1070.8 -324.456 -1060.42 -329.825C-1057.5 -331.326 -1054.45 -332.933 -1051.38 -333.958C-884.852 -390.778 -729.368 -359.211 -585.691 -235.855C-583.764 -234.239 -581.768 -232.591 -579.702 -230.911C-577.65 -229.238 -575.54 -227.457 -573.425 -225.69C-563.605 -217.281 -553.711 -207.052 -547.996 -190.231L-546.897 -187.047L-549.742 -185.755C-568.092 -177.144 -588.204 -176.733 -607.217 -176.207C-616.347 -175.949 -625.304 -175.759 -633.923 -174.682C-821.337 -151.948 -979.114 -74.6379 -1103.76 64.3079C-1182.72 152.251 -1275.41 219.058 -1389.04 256.53C-1475.18 284.879 -1564.11 295.559 -1656.45 288.281C-1686.67 285.836 -1704.3 283.748 -1704.31 264.513C-1704.34 256.052 -1700.81 244.37 -1695.52 228.381C-1636.39 48.5596 -1653.9 -127.837 -1759.56 -298.882C-1783.84 -338.099 -1812.94 -373.704 -1842.41 -409.715C-1869.64 -442.901 -1897.02 -476.411 -1920.6 -512.889C-2027.69 -678.988 -2098.25 -855.739 -2116.44 -1050.22C-2116.54 -1051.24 -2116.63 -1052.34 -2116.73 -1053.36C-2116.84 -1054.38 -2116.93 -1055.48 -2117.04 -1056.49C-2125.57 -1147.47 -2133.71 -1238.59 -2103.15 -1331.09L-2100.85 -1338.16L-2096.64 -1331.51C-2088.62 -1318.91 -2080.83 -1306.56 -2073.12 -1294.43C-2065.76 -1282.68 -2058.49 -1271.14 -2051.22 -1259.78C-2042.57 -1246.24 -2033.92 -1232.93 -2025.09 -1219.88C-1903.44 -1039.7 -1742.38 -908.762 -1559.38 -798.923C-1314.97 -652.268 -1215.15 -358.381 -1312.19 -102.656C-1313.63 -98.7857 -1316.09 -94.7994 -1318.33 -90.9572C-1320.75 -86.8695 -1323.06 -83.0732 -1324.42 -79.3967C-1326.66 -73.6018 -1326.37 -69.3424 -1321.62 -65.4549C-1308.99 -54.9453 -1295.97 -64.7863 -1282.26 -76.0137C-1280.85 -77.156 -1279.55 -78.2609 -1278.17 -79.3338C-1233.54 -114.823 -1223.47 -169.745 -1216.23 -225.575C-1184.13 -473.542 -1330.87 -748.16 -1555.43 -872.393C-1804.02 -1010.02 -1984.57 -1212.94 -2095.81 -1479.2C-2098.02 -1484.44 -2100.02 -1489.82 -2102.02 -1495.13C-2104.13 -1500.63 -2106.15 -1506.18 -2108.49 -1511.72C-2114.67 -1526.4 -2122.52 -1541.22 -2136.08 -1555.79L-2133.5 -1558.34L-2129.98 -1556.89ZM-2137.03 -1559.8L-2135.18 -1565.44L-2130.85 -1560.86C-2116.38 -1545.28 -2108.07 -1529.46 -2101.67 -1514.28C-2099.31 -1508.56 -2097.2 -1502.88 -2095.09 -1497.37C-2093.09 -1492 -2091.11 -1486.79 -2088.99 -1481.75C-1978.49 -1217.28 -1799.27 -1015.78 -1552.27 -879.144C-1324.93 -753.391 -1176.24 -475.521 -1208.78 -224.105C-1216 -168.345 -1226.22 -110.649 -1273.27 -73.2654C-1274.55 -72.2298 -1275.86 -71.1249 -1277.23 -70.052C-1289.07 -60.3182 -1307.46 -44.5935 -1325.85 -59.7659C-1334.37 -66.8466 -1333.99 -75.3425 -1331.16 -82.7328C-1329.53 -87.103 -1326.85 -91.4596 -1324.56 -95.4406C-1322.26 -99.4215 -1320.17 -102.848 -1318.99 -106.025C-1223.2 -358.426 -1321.77 -648.003 -1562.58 -792.515C-1746.27 -902.687 -1908.47 -1034.46 -2031.04 -1215.95C-2039.98 -1229.13 -2048.6 -1242.51 -2057.32 -1256.08C-2064.57 -1267.45 -2071.84 -1279.06 -2079.29 -1290.76C-2086.92 -1302.86 -2094.72 -1315.22 -2102.74 -1327.82L-2099.66 -1329.73L-2096.13 -1328.27C-2126.15 -1237.48 -2118.23 -1147.91 -2109.68 -1056.76C-2109.57 -1055.74 -2109.49 -1054.64 -2109.38 -1053.62C-2109.29 -1052.6 -2109.2 -1051.52 -2109.09 -1050.5C-2091.04 -857.613 -2021.08 -682.124 -1914.54 -516.911C-1891.29 -480.847 -1864.18 -447.781 -1836.89 -414.473C-1807.53 -378.609 -1777.94 -342.54 -1753.39 -302.771C-1646.35 -129.488 -1628.7 49.3291 -1688.47 231.131C-1693.85 247.568 -1696.92 258.015 -1696.89 264.915C-1696.86 274.918 -1690.76 277.802 -1656.48 280.47C-1565.1 287.711 -1477.12 277.165 -1391.82 249.083C-1279.43 212.097 -1187.65 146.025 -1109.37 58.8106C-983.524 -81.3734 -824.347 -159.421 -635.326 -182.311C-626.287 -183.422 -617.069 -183.655 -607.96 -183.857C-588.717 -184.342 -570.104 -184.89 -553.237 -192.801L-551.512 -189.328L-554.983 -188.324C-560.012 -203.043 -568.61 -212.108 -577.965 -220.059C-580.005 -221.808 -582.057 -223.482 -584.123 -225.161C-586.189 -226.841 -588.185 -228.489 -590.225 -230.238C-731.754 -351.698 -884.482 -382.828 -1048.55 -326.65C-1051.05 -325.849 -1053.68 -324.475 -1056.7 -322.937C-1065.56 -318.399 -1079.1 -310.905 -1090.14 -326.112C-1103.34 -344.277 -1090.42 -361.941 -1081.36 -373.132C-1052.52 -408.646 -1011.94 -424.247 -968.339 -428.716C-801.632 -445.709 -649.44 -400.466 -522.697 -269.895C-466.682 -212.188 -405.078 -174.165 -329.203 -158.467C-224.853 -136.822 -133.877 -81.5737 -50.9668 -11.6921C-12.0855 21.0921 23.1885 58.7979 47.9589 110.895L50.6749 116.527L44.7736 116.172C29.2477 115.214 18.3618 109.889 9.37836 103.571C5.77621 101.023 2.40258 98.2553 -0.744074 95.7544C-3.82109 93.2854 -6.60563 90.9508 -9.53305 88.9566C-139.777 -2.42103 -275.432 -78.1079 -429.867 -99.3826C-688.554 -135.111 -897.894 -50.5569 -1068.46 133.019C-1239.79 317.361 -1456.38 390.304 -1714.3 352.509C-1739.18 348.862 -1755.27 355.343 -1770.48 373.678C-1861.74 483.731 -1977.97 554.899 -2115.99 593.579C-2321.11 651.011 -2529.54 649.004 -2741.81 585.266C-2747.25 583.662 -2753.22 582.219 -2759.41 580.675C-2781.9 575.202 -2810.61 568.755 -2818.69 546.872C-2825.5 528.408 -2814.72 513.885 -2802.47 502.39C-2797.86 498.094 -2792.83 494.003 -2788.02 490.042C-2783.46 486.289 -2779.16 482.839 -2775.49 479.327C-2513.61 233.751 -2200.88 151.091 -1835.37 244.571C-1799.44 253.763 -1782.73 245.617 -1769.92 211.82C-1695.31 15.1014 -1732.22 -167.786 -1873.87 -336.455C-2129.66 -641.357 -2235.19 -982.564 -2185.3 -1362.5C-2176.57 -1428.74 -2158.85 -1491.92 -2137.03 -1559.8Z" fill="white"/>
</mask>
<g mask="url(#mask9_201_755)">
<path d="M266.342 -462.726L-2136.83 -1566.45L-2912 518.356L-508.832 1622.08L266.342 -462.726Z" fill="#FFF4DE"/>
</g>
</g>
</g>
</g>
</g>
<mask id="mask10_201_755" style="mask-type:luminance" maskUnits="userSpaceOnUse" x="-895" y="-103" width="1348" height="1353">
<path d="M-564.967 -102.384L452.889 364.871L123.551 1249.77L-894.306 782.511L-564.967 -102.384Z" fill="white"/>
</mask>
<g mask="url(#mask10_201_755)">
<mask id="mask11_201_755" style="mask-type:luminance" maskUnits="userSpaceOnUse" x="-657" y="137" width="1108" height="1092">
<path d="M57.0027 1177.52C61.282 1171.05 59.0334 1164.82 58.2807 1158.95C51.0471 1103.3 34.4483 1050.24 6.83883 999.823C-27.6438 936.847 -73.6613 884.719 -131.564 843.505C-147.605 832.093 -149.955 833.369 -149.407 853.162C-149.099 866.542 -147.981 880.197 -145.222 893.387C-126.17 985.142 -76.7914 1060.24 -9.94637 1124.94C10.5391 1144.74 30.925 1165.3 57.0027 1177.52ZM450.194 366.4C438.451 394.03 426.75 418.918 411.609 441.657C324.335 572.294 200.822 639.634 41.9427 646.111C-46.802 649.729 -107.846 692.775 -138.679 777.44C-144.228 792.581 -141.114 801.483 -127.183 811.114C7.62938 904.609 79.2221 1033.23 91.6677 1194.01C92.5954 1205.55 97.7386 1222.36 87.2807 1227.29C77.9308 1231.61 65.3257 1219.73 55.2529 1213.31C-25.5712 1161.91 -88.6606 1093.25 -134.752 1007.82C-165.772 950.401 -181.398 890.562 -179.218 827.304C-178.841 816.204 -182.107 808.369 -191.025 800.78C-278.473 726.456 -323.773 632.717 -325.51 520.666C-327.315 408.097 -367.683 312.318 -455.623 236.469C-508.169 191.153 -569.736 168.561 -633.704 152.647C-640.575 150.954 -648.214 151.588 -656.588 143.193C-635.312 135.925 -614.824 136.255 -594.399 139.382C-550.75 145.964 -508.736 159.575 -471.765 187.666C-444.316 208.476 -415.244 217.686 -382.506 219.013C-309.657 221.966 -252.122 258.689 -206.75 319.13C-194.994 334.828 -187.178 352.615 -188.039 372.426C-188.326 379.117 -189.289 387.186 -196.81 388.118C-204.482 389.061 -205.02 380.205 -207.452 375.125C-241.944 302.966 -296.814 261.05 -372.748 250.345C-379.793 249.383 -387.118 247.156 -395.533 251.413C-390.993 263.716 -380.73 272.247 -373.4 282.354C-322.892 351.96 -296.193 428.239 -296.147 511.996C-296.15 564.575 -286.276 615.372 -262.348 664.242C-244.206 701.31 -220.453 734.034 -190.776 762.446C-174.93 777.667 -173.359 777.171 -165.346 757.817C-134.412 683.578 -81.1923 635.965 -2.69272 619.6C32.0189 612.331 68.543 615.315 103.605 608.856C180.506 594.6 249.17 565.044 306.899 512.761C334.66 487.614 362.356 462.861 378.325 424.258C360.184 427.703 343.456 431.293 326.638 434.03C241.078 447.72 156.954 433.432 72.0728 405.395C-40.2937 368.308 -148.886 423.107 -188.449 531.686C-190.468 537.337 -189.613 548.191 -197.229 546.967C-206.214 545.52 -206.778 534.54 -207.995 526.851C-211.92 500.617 -199.776 480.238 -186.949 461.049C-129.24 375.099 -10.235 341.148 91.5527 378.882C203.159 420.249 311.88 419.389 416.961 376.444C426.672 372.474 435.897 366.477 450.325 366.704" fill="white"/>
</mask>
<g mask="url(#mask11_201_755)">
<mask id="mask12_201_755" style="mask-type:luminance" maskUnits="userSpaceOnUse" x="-896" y="-104" width="1349" height="1354">
<path d="M452.938 365.341L-566.797 -103.004L-895.619 781.346L124.116 1249.69L452.938 365.341Z" fill="white"/>
</mask>
<g mask="url(#mask12_201_755)">
<mask id="mask13_201_755" style="mask-type:luminance" maskUnits="userSpaceOnUse" x="-895" y="-101" width="1347" height="1351">
<path d="M-565.936 -100.936L451.13 366.179L122.83 1249.13L-894.235 782.013L-565.936 -100.936Z" fill="white"/>
</mask>
<g mask="url(#mask13_201_755)">
<mask id="mask14_201_755" style="mask-type:luminance" maskUnits="userSpaceOnUse" x="-657" y="137" width="1108" height="1092">
<path d="M57.0717 1177.5C61.3506 1171.03 59.1016 1164.8 58.3484 1158.93C51.1107 1103.27 34.5077 1050.22 6.89408 999.804C-27.5937 936.829 -73.6157 884.701 -131.523 843.488C-147.565 832.076 -149.914 833.352 -149.365 853.144C-149.056 866.523 -147.937 880.178 -145.177 893.367C-126.118 985.12 -76.7331 1060.22 -9.88229 1124.92C10.605 1144.72 30.9927 1165.27 57.0717 1177.5ZM450.21 366.412C438.47 394.041 426.77 418.928 411.63 441.666C324.364 572.296 200.854 639.632 41.9728 646.104C-46.7731 649.72 -107.815 692.762 -138.642 777.424C-144.19 792.564 -141.075 801.467 -127.143 811.097C7.67771 904.593 79.281 1033.21 91.7385 1193.99C92.667 1205.52 97.8115 1222.34 87.3538 1227.27C78.0041 1231.58 65.3979 1219.7 55.3245 1213.29C-25.5047 1161.89 -88.6001 1093.23 -134.699 1007.8C-165.723 950.379 -181.354 890.542 -179.179 827.286C-178.802 816.186 -182.069 808.351 -190.988 800.763C-278.442 726.439 -323.75 632.701 -325.495 520.654C-327.309 408.088 -367.684 312.312 -455.631 236.462C-508.181 191.147 -569.75 168.554 -633.721 152.639C-640.592 150.945 -648.231 151.579 -656.606 143.185C-635.331 135.917 -614.842 136.248 -594.416 139.375C-550.766 145.958 -508.751 159.569 -471.777 187.66C-444.326 208.471 -415.252 217.681 -382.514 219.009C-309.664 221.963 -252.125 258.687 -206.748 319.127C-194.99 334.825 -187.173 352.611 -188.033 372.422C-188.319 379.113 -189.281 387.182 -196.802 388.113C-204.474 389.056 -205.013 380.2 -207.446 375.12C-241.944 302.963 -296.818 261.047 -372.754 250.34C-379.799 249.379 -387.124 247.151 -395.539 251.408C-390.998 263.71 -380.734 272.241 -373.403 282.348C-322.889 351.953 -296.185 428.23 -296.133 511.985C-296.131 564.563 -286.254 615.358 -262.322 664.227C-244.176 701.294 -220.421 734.018 -190.742 762.43C-174.893 777.651 -173.323 777.154 -165.312 757.801C-134.383 683.566 -81.165 635.955 -2.66529 619.593C32.0464 612.325 68.5713 615.31 103.634 608.852C180.534 594.598 249.198 565.045 306.924 512.765C334.683 487.62 362.378 462.868 378.345 424.267C360.204 427.711 343.476 431.301 326.658 434.037C241.097 447.724 156.971 433.435 72.0859 405.397C-40.2851 368.308 -148.876 423.103 -188.431 531.677C-190.45 537.328 -189.594 548.181 -197.21 546.957C-206.195 545.51 -206.76 534.531 -207.978 526.841C-211.905 500.609 -199.762 480.23 -186.936 461.042C-129.232 375.097 -10.2279 341.149 91.5642 378.885C203.175 420.253 311.898 419.396 416.978 376.455C426.689 372.485 435.914 366.489 450.342 366.716" fill="white"/>
</mask>
<g mask="url(#mask14_201_755)">
<path d="M452.943 365.335L-566.796 -103.006L-895.616 781.343L124.122 1249.68L452.943 365.335Z" fill="#FFF4DE"/>
</g>
</g>
</g>
</g>
</g>
<mask id="mask15_201_755" style="mask-type:luminance" maskUnits="userSpaceOnUse" x="-911" y="-119" width="1375" height="1380">
<path d="M-574.971 -118.851L463.876 358.037L128.12 1260.17L-910.727 783.283L-574.971 -118.851Z" fill="white"/>
</mask>
<g mask="url(#mask15_201_755)">
<mask id="mask16_201_755" style="mask-type:luminance" maskUnits="userSpaceOnUse" x="-671" y="129" width="1133" height="1107">
<path d="M50.9161 1172.91C52.7475 1170.18 52.464 1167.87 51.6107 1162.93C51.4328 1161.88 51.2508 1160.66 51.0548 1159.43C43.9413 1104.72 27.6416 1052.61 0.579701 1003.18C-33.3342 941.26 -78.444 890.198 -135.316 849.718C-141.371 845.393 -143.908 844.147 -144.795 843.902C-144.256 843.987 -142.429 843.852 -141.461 842.347C-141.41 842.208 -141.384 842.139 -141.384 842.139C-141.694 842.971 -142.143 845.933 -141.87 853.53C-141.535 866.662 -140.445 879.736 -137.824 892.375C-119.145 982.108 -70.9445 1055.77 -4.9452 1119.68C-3.87233 1120.74 -2.81339 1121.79 -1.71474 1122.78C-0.616071 1123.78 0.430995 1124.91 1.52966 1125.9C19.9324 1143.67 37.8339 1160.34 59.7036 1170.55L57.0594 1177.44L50.8026 1172.78M63.2584 1181.99L59.967 1186.9L54.3662 1184.24C29.6672 1172.66 10.0121 1154.13 -8.27719 1136.48C-9.33613 1135.43 -10.409 1134.37 -11.5515 1133.27C-12.694 1132.18 -13.6972 1131.15 -14.7959 1130.16C-82.5309 1064.57 -132.979 988.002 -152.453 894.266C-155.353 880.361 -156.437 866.218 -156.825 852.574C-157.013 845.844 -157.038 839.335 -155.179 834.991C-154.946 834.367 -154.619 833.705 -154.247 833.145C-151.619 828.926 -147.157 827.89 -142.922 828.779C-138.313 829.759 -132.978 833.346 -127.637 837.18C-68.7052 879.093 -21.8097 932.193 13.2507 996.247C41.3802 1047.63 58.2473 1101.72 65.634 1158.33C65.7242 1159.18 65.8841 1160.07 66.1316 1161.16C66.9968 1166.02 68.5747 1174.06 63.2842 1181.92L63.2584 1181.99ZM457.054 369.686C445.26 397.456 433.379 422.829 417.81 446.103C329.3 578.528 203.844 646.926 42.7286 653.497C-43.285 657.005 -101.934 698.389 -131.786 780.419C-136.071 792.16 -134.323 797.106 -123.394 804.724C13.5668 899.678 86.3888 1030.65 99.0314 1193.79C99.1783 1195.81 99.5263 1198.16 99.9104 1200.86C100.294 1203.55 100.759 1206.69 100.993 1209.79C101.582 1217.37 101.346 1229.18 90.7879 1234.16C78.7634 1239.75 64.8324 1228.8 58.0325 1223.89C55.7062 1222.25 53.6533 1220.76 51.8066 1219.58C-30.2583 1167.36 -94.3305 1097.61 -141.108 1010.96C-172.755 952.369 -188.804 891.036 -186.552 826.267C-186.233 817.561 -188.492 812.235 -195.44 806.364C-284.675 730.487 -331.085 634.516 -332.903 520.007C-334.643 409.498 -374.138 316.15 -460.082 241.948C-511.207 197.854 -571.299 175.679 -634.873 159.8C-636.065 159.497 -637.282 159.262 -638.899 159.007C-640.516 158.752 -642.507 158.406 -644.517 157.889C-649.747 156.607 -655.564 154.098 -661.527 148.208L-670.393 139.426L-659.459 135.676C-636.792 127.91 -615.035 128.335 -593.975 131.51C-549.552 138.203 -506.143 152.228 -467.783 181.363C-441.857 201.051 -414.329 209.812 -382.881 211.099C-307.359 214.142 -247.682 252.516 -201.152 314.447C-188.632 331.162 -179.832 350.863 -180.821 373.036C-181.061 378.286 -181.636 393.599 -195.552 395.33C-201.015 395.988 -205.597 393.884 -208.767 389.91C-211.255 386.737 -212.514 382.666 -213.168 380.742C-213.66 379.216 -213.985 378.336 -214.318 377.696L-207.719 374.814L-214.344 377.765C-247.659 308.096 -300.159 267.918 -373.472 257.621C-374.62 257.419 -375.78 257.292 -376.762 257.085C-377.745 256.877 -378.849 256.776 -379.831 256.568C-384.335 255.962 -387.984 255.91 -392.098 257.984L-395.731 251.134L-388.819 248.948C-386.326 255.616 -381.769 261.12 -375.965 267.831C-373.355 270.897 -370.448 274.263 -367.784 277.842C-316.306 348.787 -289.001 426.725 -288.992 512.333C-288.963 563.953 -279.343 613.415 -255.976 660.988C-238.249 697.199 -215.087 729.1 -186.137 756.837C-179.549 763.193 -177.065 765.065 -176.039 765.374C-176.621 765.187 -177.663 765.358 -178.123 765.716C-178.123 765.716 -178.097 765.646 -178.001 765.609C-176.877 764.339 -175.316 761.238 -172.36 754.166C-140.594 677.953 -85.6507 628.775 -4.82444 611.855C13.7965 607.997 32.8316 606.929 51.2692 605.976C68.5462 605.074 85.2636 604.143 101.564 601.088C177.423 587.002 244.934 557.875 301.572 506.552C301.835 506.283 302.173 506.032 302.441 505.749C302.709 505.466 303.047 505.215 303.315 504.933C330.591 480.213 356.299 456.642 371.284 420.511L378.13 423.98L379.984 431.491C374.106 432.609 368.482 433.746 362.864 434.82C357.412 435.89 352.069 436.928 346.712 437.96C340.483 439.144 334.288 440.279 328.062 441.236C241.008 455.215 155.628 440.578 70.0191 412.304C-38.4326 376.528 -143.416 429.249 -181.74 534.498C-182.049 535.331 -182.253 536.537 -182.697 538.607C-183.063 540.469 -183.499 543.177 -184.402 545.605C-184.841 546.784 -185.375 548.001 -186.239 549.228C-188.736 552.873 -192.797 555.069 -198.182 554.203C-213.401 551.762 -214.725 534.276 -215.344 529.363C-215.46 528.579 -215.581 527.808 -215.64 527.132C-220.086 497.654 -206.273 475.198 -193.458 456.084C-133.932 367.396 -11.5063 332.578 93.2787 371.462C203.168 412.187 310.043 411.291 413.477 369.051C415.366 368.31 417.257 367.392 419.313 366.468C421.368 365.544 423.641 364.476 426.052 363.472C432.498 360.828 439.995 358.603 449.553 358.769L461.453 358.955L456.812 369.9M443.131 362.886L449.991 366.361L450.394 374.002C443.37 373.862 437.781 375.519 432.32 377.705C430.221 378.528 428.235 379.484 426.098 380.451C424.042 381.375 421.891 382.336 419.74 383.298C313.11 426.897 202.504 427.784 89.0993 385.77C-9.69534 349.15 -125.35 382.204 -181.124 465.404C-194.086 484.694 -204.535 502.928 -201.104 525.929C-200.988 526.714 -200.898 527.567 -200.782 528.352C-199.414 538.222 -198.212 538.937 -197.134 539.107C-197.508 539.017 -198.463 539.39 -198.739 539.913C-198.739 539.913 -198.592 539.737 -198.437 539.321C-198.05 538.281 -197.769 536.867 -197.4 534.778C-197.085 533.055 -196.625 530.504 -195.8 528.284C-155.048 416.288 -42.7876 359.519 73.4386 397.891C157.589 425.657 240.491 439.725 324.584 426.254C330.645 425.302 336.688 424.179 342.813 423.012C348.069 422.031 353.426 420.999 358.809 419.898C364.439 418.748 370.152 417.635 376.025 416.532L390.467 413.825L384.8 427.531C368.463 466.858 340.483 492.375 313.38 516.849C313.112 517.131 312.774 517.382 312.506 517.665C312.237 517.948 311.9 518.199 311.631 518.482C252.816 571.713 182.92 601.775 105.047 616.234C87.7178 619.467 70.0359 620.361 52.8981 621.327C34.2696 622.355 16.2369 623.315 -1.15123 626.927C-77.2859 642.851 -128.822 688.785 -158.978 761.108C-161.56 767.394 -164.006 773.093 -167.055 776.468C-167.496 776.997 -167.981 777.424 -168.561 777.888C-171.864 780.676 -175.937 781.323 -180.2 779.852C-185.255 778.099 -190.657 772.938 -196.117 767.669C-226.492 738.546 -250.824 704.97 -269.392 667.074C-294.064 616.871 -304.03 564.83 -304.066 511.258C-304.122 429.282 -330.166 354.75 -379.719 286.476C-381.815 283.564 -384.254 280.738 -386.977 277.538C-392.455 271.221 -399.257 263.468 -402.937 253.412L-405.235 247.094L-399.633 244.306C-391.923 240.456 -384.886 240.781 -379.165 241.622C-377.991 241.755 -376.774 241.989 -375.696 242.159C-374.618 242.329 -373.635 242.537 -372.696 242.643C-294.076 253.754 -236.861 297.477 -201.221 372.031C-200.406 373.786 -199.739 375.718 -199.334 377.041C-198.411 379.82 -198.011 380.718 -197.74 381.086C-198.194 380.553 -198.994 380.511 -198.638 380.43C-197.627 380.342 -196.213 379.611 -195.854 371.41C-195.084 353.993 -201.863 338.064 -212.871 323.424C-257.008 264.703 -312.478 229.399 -382.603 226.576C-416.636 225.224 -447.339 215.573 -476.24 193.625C-511.764 166.686 -552.416 153.359 -595.291 146.889C-615.039 143.911 -634.333 143.659 -654.133 150.467L-656.985 143.228L-652.079 137.928C-648.677 141.278 -645.657 142.583 -642.54 143.365C-641.114 143.696 -639.731 143.924 -638.044 144.212C-636.523 144.505 -634.676 144.8 -632.876 145.221C-568.458 161.244 -505.47 184.18 -451.537 230.766C-361.613 308.339 -320.337 406.501 -318.501 521.18C-316.808 630.937 -272.59 722.328 -186.956 795.17C-176.012 804.501 -171.674 814.761 -172.155 828.331C-174.351 890.056 -159.078 948.433 -128.7 1004.73C-83.2652 1088.9 -21.1736 1156.52 58.4748 1207.13C60.783 1208.6 63.2228 1210.37 65.4098 1211.94C75.7818 1219.31 80.7042 1221.81 83.4537 1220.56L86.948 1227.6L83.4279 1220.63C85.0065 1219.89 86.4097 1217.87 85.7809 1210.35C85.5938 1207.83 85.2536 1205.24 84.8256 1202.44C84.4802 1199.86 84.0523 1197.07 83.8771 1194.47C71.5746 1036.11 1.26951 909.77 -131.419 817.753C-148.302 806.019 -152.866 793.3 -146.123 774.728C-114.284 687.357 -50.8606 642.561 40.5812 638.882C197.315 632.476 318.874 566.268 404.887 437.488C419.713 415.334 431.138 390.969 442.855 363.408L443.131 362.886Z" fill="white"/>
</mask>
<g mask="url(#mask16_201_755)">
<mask id="mask17_201_755" style="mask-type:luminance" maskUnits="userSpaceOnUse" x="-913" y="-121" width="1378" height="1382">
<path d="M464.128 357.997L-576.988 -120.163L-912.411 781.932L128.705 1260.09L464.128 357.997Z" fill="white"/>
</mask>
<g mask="url(#mask17_201_755)">
<mask id="mask18_201_755" style="mask-type:luminance" maskUnits="userSpaceOnUse" x="-911" y="-118" width="1373" height="1378">
<path d="M-575.292 -117.211L461.857 359.128L127.116 1259.4L-910.032 783.064L-575.292 -117.211Z" fill="white"/>
</mask>
<g mask="url(#mask18_201_755)">
<mask id="mask19_201_755" style="mask-type:luminance" maskUnits="userSpaceOnUse" x="-671" y="129" width="1133" height="1107">
<path d="M50.9797 1172.89C52.8109 1170.15 52.5272 1167.85 51.6735 1162.91C51.4955 1161.85 51.3134 1160.63 51.1174 1159.4C43.9998 1104.69 27.6959 1052.59 0.629964 1003.16C-33.289 941.238 -78.4034 890.176 -135.279 849.696C-141.335 845.372 -143.872 844.126 -144.759 843.88C-144.22 843.966 -142.393 843.83 -141.425 842.326C-141.374 842.187 -141.348 842.117 -141.348 842.117C-141.657 842.95 -142.106 845.911 -141.833 853.508C-141.498 866.64 -140.407 879.713 -137.785 892.352C-119.098 982.082 -70.8916 1055.74 -4.88649 1119.65C-3.81352 1120.71 -2.75449 1121.76 -1.65574 1122.76C-0.556986 1123.75 0.490181 1124.88 1.58893 1125.87C19.9933 1143.65 37.8963 1160.32 59.7671 1170.52L57.1234 1177.41L50.8662 1172.75M63.3228 1181.97L60.0317 1186.87L54.4307 1184.22C29.7304 1172.63 10.0736 1154.1 -8.2173 1136.46C-9.27634 1135.4 -10.3493 1134.34 -11.4919 1133.25C-12.6345 1132.15 -13.6378 1131.12 -14.7366 1130.13C-82.4775 1064.54 -132.932 987.976 -152.413 894.242C-155.315 880.338 -156.399 866.196 -156.789 852.552C-156.977 845.822 -157.003 839.313 -155.143 834.969C-154.911 834.345 -154.584 833.683 -154.212 833.123C-151.584 828.905 -147.122 827.868 -142.887 828.758C-138.278 829.738 -132.942 833.325 -127.601 837.159C-68.6652 879.072 -21.765 932.172 13.3007 996.225C41.4344 1047.61 58.3057 1101.7 65.6968 1158.3C65.787 1159.16 65.9469 1160.04 66.1946 1161.13C67.0601 1165.99 68.6386 1174.03 63.3486 1181.9L63.3228 1181.97ZM457.066 369.695C445.273 397.463 433.393 422.835 417.826 446.108C329.325 578.527 203.872 646.92 42.7539 653.486C-43.2608 656.992 -101.908 698.373 -131.755 780.4C-136.039 792.141 -134.29 797.086 -123.36 804.704C13.6097 899.658 86.4425 1030.63 99.0973 1193.77C99.2443 1195.78 99.5925 1198.14 99.9768 1200.83C100.361 1203.53 100.825 1206.66 101.06 1209.76C101.65 1217.34 101.415 1229.15 90.8567 1234.13C78.8323 1239.72 64.9003 1228.77 58.0999 1223.86C55.7734 1222.22 53.7204 1220.73 51.8736 1219.56C-30.1965 1167.33 -94.2749 1097.58 -141.06 1010.93C-172.711 952.343 -188.765 891.012 -186.518 826.245C-186.199 817.539 -188.459 812.213 -195.407 806.342C-284.649 730.466 -331.067 634.496 -332.894 519.991C-334.642 409.485 -374.144 316.139 -460.095 241.937C-511.224 197.843 -571.319 175.668 -634.895 159.788C-636.087 159.484 -637.304 159.25 -638.921 158.994C-640.539 158.739 -642.53 158.393 -644.539 157.876C-649.77 156.595 -655.587 154.085 -661.551 148.195L-670.417 139.413L-659.484 135.663C-636.817 127.898 -615.059 128.324 -593.999 131.5C-549.574 138.194 -506.164 152.219 -467.801 181.354C-441.873 201.042 -414.344 209.804 -382.895 211.091C-307.372 214.136 -247.691 252.51 -201.155 314.441C-188.634 331.155 -179.832 350.856 -180.82 373.028C-181.06 378.278 -181.634 393.591 -195.55 395.321C-201.013 395.979 -205.595 393.875 -208.765 389.901C-211.254 386.728 -212.513 382.658 -213.167 380.733C-213.659 379.207 -213.984 378.327 -214.317 377.687L-207.718 374.806L-214.343 377.756C-247.663 308.089 -300.167 267.911 -373.483 257.612C-374.631 257.41 -375.79 257.283 -376.773 257.076C-377.756 256.868 -378.86 256.767 -379.842 256.559C-384.346 255.953 -387.995 255.901 -392.109 257.975L-395.742 251.125L-388.831 248.939C-386.337 255.607 -381.779 261.111 -375.975 267.821C-373.364 270.888 -370.458 274.253 -367.793 277.832C-316.309 348.776 -288.998 426.713 -288.982 512.319C-288.95 563.936 -279.326 613.397 -255.955 660.969C-238.225 697.18 -215.06 729.08 -186.108 756.817C-179.519 763.173 -177.035 765.045 -176.009 765.354C-176.592 765.167 -177.634 765.338 -178.093 765.696C-178.093 765.696 -178.067 765.627 -177.972 765.589C-176.847 764.319 -175.287 761.219 -172.331 754.146C-140.57 677.937 -85.6294 628.762 -4.80296 611.844C13.8181 607.987 32.8533 606.919 51.2912 605.966C68.5684 605.065 85.286 604.135 101.587 601.08C177.446 586.997 244.955 557.873 301.591 506.553C301.854 506.284 302.192 506.033 302.46 505.75C302.728 505.467 303.066 505.216 303.334 504.933C330.609 480.215 356.315 456.645 371.297 420.516L378.144 423.985L379.999 431.496C374.121 432.614 368.496 433.75 362.879 434.825C357.426 435.894 352.083 436.932 346.726 437.964C340.497 439.148 334.303 440.282 328.077 441.24C241.023 455.216 155.64 440.576 70.0272 412.302C-38.4289 376.524 -143.41 429.241 -181.727 534.486C-182.036 535.318 -182.24 536.524 -182.684 538.594C-183.05 540.456 -183.486 543.164 -184.389 545.591C-184.827 546.771 -185.361 547.987 -186.225 549.215C-188.722 552.86 -192.783 555.055 -198.168 554.19C-213.387 551.748 -214.713 534.263 -215.332 529.349C-215.448 528.565 -215.57 527.795 -215.628 527.118C-220.077 497.641 -206.265 475.186 -193.452 456.074C-133.93 367.389 -11.5054 332.576 93.2842 371.461C203.178 412.187 310.055 411.295 413.487 369.058C415.377 368.318 417.268 367.4 419.323 366.476C421.379 365.552 423.651 364.484 426.063 363.48C432.508 360.837 440.005 358.611 449.564 358.778L461.463 358.964L456.823 369.909M443.141 362.894L450.002 366.37L450.406 374.011C443.381 373.871 437.792 375.527 432.332 377.713C430.232 378.536 428.246 379.491 426.109 380.459C424.054 381.383 421.902 382.344 419.751 383.305C313.123 426.9 202.515 427.785 89.1058 385.769C-9.69321 349.148 -125.347 382.198 -181.116 465.394C-194.077 484.682 -204.525 502.916 -201.092 525.916C-200.976 526.701 -200.886 527.554 -200.77 528.339C-199.401 538.209 -198.199 538.924 -197.121 539.094C-197.495 539.003 -198.45 539.377 -198.726 539.9C-198.726 539.9 -198.579 539.724 -198.424 539.308C-198.037 538.267 -197.756 536.853 -197.387 534.765C-197.072 533.042 -196.613 530.491 -195.788 528.271C-155.044 416.28 -42.7853 359.515 73.4457 397.889C157.6 425.656 240.504 439.726 324.597 426.258C330.659 425.306 336.702 424.183 342.826 423.016C348.083 422.036 353.44 421.004 358.823 419.903C364.452 418.752 370.165 417.64 376.038 416.537L390.481 413.831L384.814 427.536C368.48 466.861 340.501 492.377 313.4 516.849C313.132 517.132 312.794 517.383 312.526 517.666C312.257 517.949 311.919 518.199 311.651 518.482C252.839 571.71 182.943 601.769 105.07 616.226C87.7414 619.459 70.0592 620.352 52.9213 621.317C34.2925 622.345 16.2596 623.305 -1.12859 626.916C-77.2634 642.837 -128.797 688.769 -158.948 761.088C-161.53 767.374 -163.975 773.073 -167.024 776.448C-167.465 776.977 -167.95 777.404 -168.53 777.868C-171.833 780.655 -175.906 781.303 -180.169 779.832C-185.224 778.078 -190.627 772.917 -196.087 767.648C-226.465 738.526 -250.8 704.95 -269.371 667.055C-294.047 616.853 -304.017 564.813 -304.057 511.243C-304.119 429.27 -330.169 354.739 -379.727 286.466C-381.824 283.554 -384.263 280.728 -386.987 277.528C-392.465 271.211 -399.268 263.458 -402.949 253.403L-405.247 247.084L-399.645 244.297C-391.935 240.448 -384.898 240.772 -379.177 241.613C-378.003 241.746 -376.786 241.98 -375.708 242.151C-374.63 242.321 -373.647 242.529 -372.708 242.635C-294.085 253.747 -236.867 297.471 -201.221 372.023C-200.406 373.778 -199.738 375.709 -199.333 377.032C-198.409 379.812 -198.01 380.71 -197.739 381.078C-198.193 380.545 -198.992 380.502 -198.636 380.422C-197.625 380.334 -196.212 379.603 -195.853 371.402C-195.085 353.986 -201.865 338.057 -212.874 323.417C-257.016 264.697 -312.49 229.393 -382.617 226.568C-416.65 225.215 -447.354 215.564 -476.257 193.616C-511.784 166.676 -552.437 153.349 -595.314 146.878C-615.062 143.899 -634.356 143.647 -654.156 150.455L-657.009 143.216L-652.103 137.916C-648.701 141.265 -645.681 142.571 -642.563 143.353C-641.137 143.683 -639.755 143.912 -638.068 144.2C-636.546 144.493 -634.699 144.788 -632.899 145.209C-568.479 161.233 -505.488 184.17 -451.551 230.756C-361.62 308.329 -320.336 406.489 -318.492 521.164C-316.79 630.918 -272.565 722.307 -186.924 795.148C-175.979 804.48 -171.641 814.74 -172.12 828.309C-174.312 890.032 -159.035 948.408 -128.652 1004.71C-83.21 1088.87 -21.1124 1156.49 58.5409 1207.11C60.8494 1208.57 63.2893 1210.34 65.4765 1211.92C75.8491 1219.28 80.7719 1221.78 83.5213 1220.53L87.0162 1227.58L83.4955 1220.6C85.074 1219.86 86.4771 1217.84 85.8478 1210.32C85.6605 1207.8 85.3201 1205.21 84.8919 1202.41C84.5463 1199.84 84.1182 1197.04 83.9428 1194.44C71.6285 1036.09 1.31294 909.75 -131.384 817.733C-148.269 805.999 -152.834 793.279 -146.092 774.708C-114.259 687.341 -50.8376 642.548 40.6054 638.872C197.341 632.47 318.898 566.267 404.903 437.493C419.727 415.341 431.151 390.977 442.865 363.417L443.141 362.894Z" fill="white"/>
</mask>
<g mask="url(#mask19_201_755)">
<path d="M464.125 357.994L-576.994 -120.165L-912.413 781.929L128.705 1260.09L464.125 357.994Z" fill="#FFF4DE"/>
</g>
</g>
</g>
</g>
</g>
</g>
<defs>
<clipPath id="clip0_201_755">
<rect width="602" height="1358" fill="white"/>
</clipPath>
</defs>
</svg>
