<svg width="450" height="396" viewBox="0 0 450 396" fill="none" xmlns="http://www.w3.org/2000/svg">
<mask id="mask0_339_481" style="mask-type:luminance" maskUnits="userSpaceOnUse" x="42" y="0" width="307" height="287">
<path d="M42.4338 0.466797H348.969V286.974H42.4338V0.466797Z" fill="white"/>
</mask>
<g mask="url(#mask0_339_481)">
<mask id="mask1_339_481" style="mask-type:luminance" maskUnits="userSpaceOnUse" x="42" y="0" width="307" height="287">
<path d="M66.1939 275.554C65.7057 273.203 66.8978 271.77 67.6461 270.242C74.8288 255.734 84.1657 243.139 96.0756 232.683C110.967 219.611 127.771 211.038 146.596 206.996C151.803 205.877 152.302 206.527 150.272 211.945C148.902 215.605 147.316 219.248 145.351 222.553C131.67 245.557 111.811 260.083 88.4297 269.515C81.2809 272.401 74.0626 275.497 66.1939 275.554ZM42.6699 0.754883C43.0441 9.91104 43.666 18.2924 45.4015 26.5188C55.3531 73.8243 80.6679 108.19 120.907 130.198C143.384 142.488 154.944 162.195 154.786 189.583C154.759 194.486 153.102 196.541 148.599 197.448C105.003 206.183 74.3031 232.731 55.7273 275.688C54.3927 278.774 51.4545 282.778 53.68 285.455C55.665 287.844 60.0448 286.153 63.2485 285.656C88.9535 281.69 111.731 270.689 131.75 252.886C145.208 240.921 154.953 226.328 160.429 208.515C161.389 205.391 162.982 203.631 166.001 202.676C195.587 193.214 216.192 173.011 227.362 142.164C238.586 111.201 258.124 89.8026 287.986 79.9596C305.824 74.0825 323.812 75.6781 341.784 79.3953C343.716 79.797 345.603 80.9449 348.575 79.6918C343.814 74.9721 338.5 72.4583 332.962 70.7193C321.107 66.9926 309.002 65.4142 296.826 68.4924C287.79 70.7767 279.425 69.6097 270.879 65.816C251.875 57.3581 233.558 60.2259 216.13 71.188C211.6 74.0347 207.896 77.9815 206.231 83.5811C205.672 85.4732 205.146 87.834 206.989 89.0393C208.885 90.2809 209.854 87.8914 210.976 86.7837C226.741 71.1784 244.853 66.543 265.405 73.2427C267.31 73.8625 269.402 74.1878 271.164 76.4242C268.823 79.2633 265.369 80.3231 262.522 82.1865C242.886 95.0503 228.724 112.777 220.705 135.991C215.675 150.563 208.297 163.379 197.456 173.872C189.24 181.833 180.001 187.873 169.668 191.982C164.132 194.18 163.784 193.836 163.57 187.461C162.715 162.949 153.574 142.976 134.963 128.449C126.738 122.029 117.044 118.205 108.661 111.945C90.2543 98.2126 75.4239 81.2701 65.581 59.4415C60.8359 48.9576 56.0837 38.5618 55.665 25.8511C60.0002 29.1187 63.9417 32.2447 68.0275 35.1392C88.713 49.8281 111.722 56.5661 136.217 59.6041C168.643 63.6274 191.332 92.6225 191.118 127.763C191.109 129.597 189.846 132.482 191.92 133.114C194.377 133.86 195.578 130.887 196.609 128.909C200.136 122.142 198.96 114.956 197.483 107.998C190.868 76.8355 163.508 52.2941 133.735 49.7994C101.086 47.056 73.2091 32.9698 50.3158 7.71287C48.1972 5.37122 46.4082 2.53216 42.6699 0.764448" fill="white"/>
</mask>
<g mask="url(#mask1_339_481)">
<mask id="mask2_339_481" style="mask-type:luminance" maskUnits="userSpaceOnUse" x="42" y="0" width="307" height="287">
<path d="M348.969 0.463379H42.4338V286.971H348.969V0.463379Z" fill="white"/>
</mask>
<g mask="url(#mask2_339_481)">
<mask id="mask3_339_481" style="mask-type:luminance" maskUnits="userSpaceOnUse" x="42" y="0" width="307" height="287">
<path d="M42.6158 0.683105H348.604V286.975H42.6158V0.683105Z" fill="white"/>
</mask>
<g mask="url(#mask3_339_481)">
<mask id="mask4_339_481" style="mask-type:luminance" maskUnits="userSpaceOnUse" x="42" y="0" width="307" height="287">
<path d="M66.1939 275.554C65.7057 273.203 66.8978 271.77 67.6461 270.242C74.8288 255.734 84.1657 243.139 96.0756 232.683C110.967 219.611 127.771 211.038 146.596 206.996C151.803 205.877 152.302 206.527 150.272 211.945C148.902 215.605 147.316 219.248 145.351 222.553C131.67 245.557 111.811 260.083 88.4297 269.515C81.2809 272.401 74.0626 275.497 66.1939 275.554ZM42.6699 0.754883C43.0441 9.91104 43.666 18.2924 45.4015 26.5188C55.3531 73.8243 80.6679 108.19 120.907 130.198C143.384 142.488 154.944 162.195 154.786 189.583C154.759 194.486 153.102 196.541 148.599 197.448C105.003 206.183 74.3031 232.731 55.7273 275.688C54.3927 278.774 51.4545 282.778 53.68 285.455C55.665 287.844 60.0448 286.153 63.2485 285.656C88.9535 281.69 111.731 270.689 131.75 252.886C145.208 240.921 154.953 226.328 160.429 208.515C161.389 205.391 162.982 203.631 166.001 202.676C195.587 193.214 216.192 173.011 227.362 142.164C238.586 111.201 258.124 89.8026 287.986 79.9596C305.824 74.0825 323.812 75.6781 341.784 79.3953C343.716 79.797 345.603 80.9449 348.575 79.6918C343.814 74.9721 338.5 72.4583 332.962 70.7193C321.107 66.9926 309.002 65.4142 296.826 68.4924C287.79 70.7767 279.425 69.6097 270.879 65.816C251.875 57.3581 233.558 60.2259 216.13 71.188C211.6 74.0347 207.896 77.9815 206.231 83.5811C205.672 85.4732 205.146 87.834 206.989 89.0393C208.885 90.2809 209.854 87.8914 210.976 86.7837C226.741 71.1784 244.853 66.543 265.405 73.2427C267.31 73.8625 269.402 74.1878 271.164 76.4242C268.823 79.2633 265.369 80.3231 262.522 82.1865C242.886 95.0503 228.724 112.777 220.705 135.991C215.675 150.563 208.297 163.379 197.456 173.872C189.24 181.833 180.001 187.873 169.668 191.982C164.132 194.18 163.784 193.836 163.57 187.461C162.715 162.949 153.574 142.976 134.963 128.449C126.738 122.029 117.044 118.205 108.661 111.945C90.2543 98.2126 75.4239 81.2701 65.581 59.4415C60.8359 48.9576 56.0837 38.5618 55.665 25.8511C60.0002 29.1187 63.9417 32.2447 68.0275 35.1392C88.713 49.8281 111.722 56.5661 136.217 59.6041C168.643 63.6274 191.332 92.6225 191.118 127.763C191.109 129.597 189.846 132.482 191.92 133.114C194.377 133.86 195.578 130.887 196.609 128.909C200.136 122.142 198.96 114.956 197.483 107.998C190.868 76.8355 163.508 52.2941 133.735 49.7994C101.086 47.056 73.2091 32.9698 50.3158 7.71287C48.1972 5.37122 46.4082 2.53216 42.6699 0.764448" fill="white"/>
</mask>
<g mask="url(#mask4_339_481)">
<path d="M348.969 0.466797H42.4338V286.974H348.969V0.466797Z" fill="#FF0066"/>
</g>
</g>
</g>
</g>
</g>
<mask id="mask5_339_481" style="mask-type:luminance" maskUnits="userSpaceOnUse" x="42" y="0" width="308" height="288">
<path d="M42.1875 0H349.425V287.464H42.1875V0Z" fill="white"/>
</mask>
<g mask="url(#mask5_339_481)">
<mask id="mask6_339_481" style="mask-type:luminance" maskUnits="userSpaceOnUse" x="42" y="0" width="308" height="288">
<path d="M65.7616 275.659C65.3251 273.528 66.1429 272.066 66.8289 270.823C66.9804 270.545 67.123 270.289 67.2566 270.021C74.466 255.457 83.8385 242.813 95.7929 232.319C110.737 219.199 127.613 210.588 146.51 206.536C149.33 205.934 151.449 205.628 151.779 207.416C151.966 208.419 151.485 209.976 150.676 212.127C149.295 215.796 147.702 219.467 145.708 222.821C131.966 245.929 112.018 260.511 88.564 269.973C88.1916 270.126 87.8085 270.279 87.4343 270.432C87.0601 270.584 86.677 270.737 86.2957 270.89C79.8864 273.471 73.3006 275.984 66.1786 276.042H65.824L65.7438 275.669M66.6151 275.458L66.1786 275.563V275.085C73.1224 275.028 79.5656 272.581 85.9838 269.992C86.3669 269.839 86.7394 269.686 87.1225 269.533C87.5055 269.38 87.8797 269.227 88.2539 269.074C111.573 259.671 131.343 245.193 144.961 222.304C146.911 219.027 148.486 215.415 149.847 211.773C150.694 209.527 151.023 208.266 150.898 207.606C150.783 206.976 150.043 206.747 146.67 207.472C127.916 211.495 111.174 220.039 96.3435 233.066C84.4889 243.473 75.1876 256.021 68.021 270.478C67.8785 270.765 67.727 271.043 67.5773 271.32C66.8824 272.571 66.2498 273.738 66.6151 275.468V275.458ZM43.1161 0.735323C43.4903 9.89148 44.1139 18.225 45.8316 26.415C55.7565 73.5752 80.9804 107.826 121.106 129.779C143.723 142.154 155.392 162.013 155.223 189.592C155.196 194.734 153.381 196.98 148.673 197.926C105.219 206.632 74.6441 233.075 56.1218 275.898C55.8456 276.539 55.4982 277.216 55.1596 277.896C54.7943 278.621 54.4219 279.348 54.1101 280.075C53.237 282.091 52.9073 283.83 54.0032 285.148C55.3645 286.782 58.0979 286.258 61.0165 285.626C61.756 285.464 62.4937 285.311 63.1797 285.206C88.7956 281.259 111.502 270.299 131.467 252.541C144.863 240.624 154.566 226.108 160.013 208.39C161.018 205.123 162.717 203.25 165.879 202.236C195.34 192.814 215.829 172.716 226.955 142.011C238.223 110.913 257.859 89.4023 287.864 79.5192C305.809 73.6039 323.877 75.2204 341.876 78.9472C342.31 79.0428 342.747 79.1672 343.174 79.2915C343.629 79.4235 344.074 79.5479 344.536 79.6435C345.649 79.8731 346.868 79.9114 348.426 79.2628L348.586 79.7105L348.283 80.0644C343.593 75.4098 338.351 72.9266 332.842 71.1972C321.03 67.4781 309.013 65.9208 296.925 68.9703C287.784 71.2718 279.32 70.0971 270.712 66.2652C251.86 57.8742 233.685 60.7133 216.355 71.6066C211.886 74.4169 208.281 78.2871 206.653 83.7338C206.065 85.7119 205.719 87.6518 207.214 88.6371C208.29 89.3449 208.932 88.5988 209.847 87.405C210.106 87.0702 210.373 86.7163 210.667 86.4294C226.556 70.7284 244.829 66.0356 265.541 72.7927C265.817 72.8788 266.102 72.9649 266.396 73.051C266.689 73.1371 266.991 73.2327 267.294 73.3264C268.709 73.7856 270.206 74.4552 271.514 76.1272L271.763 76.4429L271.505 76.749C269.85 78.7559 267.669 79.8923 265.612 80.9827C264.625 81.5069 263.654 82.0139 262.756 82.607C243.2 95.4229 229.1 113.064 221.125 136.172C216.07 150.802 208.655 163.685 197.761 174.245C189.501 182.244 180.217 188.312 169.831 192.45C166.429 193.797 164.417 194.505 163.635 192.24C163.288 191.245 163.199 189.678 163.127 187.509C162.283 163.13 153.202 143.3 134.707 128.87C130.461 125.564 125.833 122.945 121.15 120.297C116.826 117.862 112.473 115.396 108.414 112.375C89.9627 98.6044 75.0718 81.6026 65.1825 59.6802C65.1291 59.5654 65.0756 59.4411 65.0221 59.3263C64.9687 59.2115 64.9152 59.0872 64.8618 58.9743C60.2325 48.72 55.6407 38.4275 55.222 25.8794L55.1863 24.9228L55.9169 25.4776C57.3049 26.5279 58.6574 27.561 59.9938 28.573C61.2749 29.5583 62.5382 30.5244 63.7945 31.4695C65.2894 32.5963 66.7755 33.6963 68.2705 34.7562C88.8847 49.3972 111.805 56.1065 136.264 59.1445C168.931 63.1965 191.779 92.4117 191.566 127.781C191.566 128.315 191.459 128.918 191.37 129.492C191.272 130.104 191.174 130.676 191.174 131.183C191.165 131.986 191.37 132.472 192.047 132.673C193.854 133.228 194.876 131.365 195.919 129.3C196.026 129.09 196.124 128.889 196.231 128.688C199.666 122.094 198.534 115.08 197.057 108.113C190.489 77.1699 163.297 52.7624 133.711 50.2773C100.955 47.5147 72.9799 33.3807 50.0065 8.03767C49.5521 7.54026 49.1156 7.01416 48.6808 6.49762C48.2264 5.96386 47.781 5.41862 47.2999 4.89252C46.0276 3.49786 44.5683 2.17781 42.4942 1.19447L42.6724 0.754455L43.1161 0.735323ZM42.2269 0.773586L42.2002 0.0102539L42.8595 0.314439C45.0743 1.36665 46.6245 2.78044 47.9413 4.22293C48.4313 4.76816 48.8928 5.32297 49.3472 5.85864C49.7838 6.38283 50.2114 6.88981 50.648 7.36808C73.4681 32.5408 101.24 46.5792 133.782 49.3112C163.733 51.825 191.272 76.5099 197.93 107.883C199.408 114.841 200.635 122.189 197.013 129.138C196.915 129.329 196.817 129.53 196.71 129.731C195.812 131.518 194.442 134.364 191.815 133.572C190.596 133.199 190.293 132.178 190.302 131.154C190.302 130.551 190.418 129.893 190.507 129.3C190.596 128.707 190.685 128.191 190.685 127.753C190.897 92.8421 168.361 64.067 136.175 60.0724C111.626 57.0325 88.5479 50.2868 67.7805 35.5406C66.2677 34.4711 64.7816 33.3615 63.2777 32.2347C62.0233 31.2877 60.7582 30.3139 59.4681 29.3383C58.1424 28.3262 56.7882 27.2931 55.4002 26.2428L55.6585 25.8507L56.104 25.8315C56.512 38.1501 61.0165 48.2704 65.6547 58.5438C65.7082 58.6586 65.7616 58.783 65.8151 58.8978C65.8667 59.0125 65.9202 59.135 65.9737 59.2498C75.7827 80.9923 90.5579 97.8774 108.913 111.573C112.918 114.564 117.225 116.991 121.56 119.438C126.225 122.074 130.924 124.722 135.224 128.078C153.96 142.698 163.154 162.805 164.009 187.451C164.09 189.678 164.179 191.075 164.462 191.886C164.872 193.062 165.656 193.072 169.51 191.532C179.789 187.442 188.975 181.44 197.155 173.518C207.934 163.082 215.279 150.335 220.289 135.828C228.345 112.509 242.568 94.7055 262.293 81.7843C263.235 81.1645 264.233 80.6384 265.22 80.1218C267.303 79.0237 269.315 77.9524 270.837 76.1081L271.166 76.4238L270.828 76.7299C269.68 75.2683 268.372 74.6656 267.027 74.2352C266.733 74.1395 266.441 74.0534 266.147 73.9673C265.853 73.8813 265.568 73.7952 265.274 73.6995C244.873 67.0495 226.919 71.6448 211.273 87.1372C211.032 87.3668 210.801 87.671 210.533 88.0153C209.749 89.0293 208.575 90.6439 206.751 89.4502C204.57 88.0249 205.265 85.2451 205.799 83.4372C207.508 77.6941 211.309 73.6612 215.892 70.7763C233.418 59.7567 251.887 56.8526 271.042 65.3756C279.507 69.1425 287.784 70.2884 296.713 68.0329C308.995 64.9375 321.181 66.5234 333.08 70.2693C338.661 72.0274 344.048 74.5604 348.871 79.3566L349.397 79.8731L348.737 80.1505C347.002 80.8775 345.596 80.8392 344.358 80.581C343.861 80.4758 343.379 80.3323 342.934 80.2079C342.497 80.0836 342.098 79.9592 341.697 79.8827C323.752 76.1655 305.854 74.5891 288.114 80.4375C258.394 90.2231 238.954 111.506 227.775 142.355C216.542 173.336 195.839 193.644 166.119 203.144C163.252 204.061 161.757 205.695 160.839 208.677C155.339 226.576 145.53 241.246 132.02 253.268C111.938 271.129 89.0807 282.168 63.2955 286.143C62.6362 286.248 61.9253 286.401 61.1858 286.554C58.5059 287.126 55.1061 287.92 53.335 285.779C51.84 283.973 52.428 281.68 53.2993 279.663C53.629 278.908 54.0121 278.154 54.3774 277.427C54.723 276.738 55.0527 276.099 55.3111 275.487C73.9492 232.396 104.765 205.743 148.504 196.98C152.803 196.12 154.298 194.256 154.325 189.582C154.485 162.376 143.021 142.832 120.689 130.628C80.3496 108.553 54.9547 74.0726 44.9692 26.6236C43.2319 18.3493 42.6011 9.94887 42.2269 0.773586Z" fill="white"/>
</mask>
<g mask="url(#mask6_339_481)">
<mask id="mask7_339_481" style="mask-type:luminance" maskUnits="userSpaceOnUse" x="41" y="-1" width="309" height="289">
<path d="M349.425 -0.0244141H41.9772V287.463H349.425V-0.0244141Z" fill="white"/>
</mask>
<g mask="url(#mask7_339_481)">
<mask id="mask8_339_481" style="mask-type:luminance" maskUnits="userSpaceOnUse" x="42" y="0" width="308" height="288">
<path d="M42.1875 0H349.425V287.464H42.1875V0Z" fill="white"/>
</mask>
<g mask="url(#mask8_339_481)">
<mask id="mask9_339_481" style="mask-type:luminance" maskUnits="userSpaceOnUse" x="42" y="0" width="308" height="288">
<path d="M65.7616 275.659C65.3251 273.528 66.1429 272.066 66.8289 270.823C66.9804 270.545 67.123 270.289 67.2566 270.021C74.466 255.457 83.8385 242.813 95.7929 232.319C110.737 219.199 127.613 210.588 146.51 206.536C149.33 205.934 151.449 205.628 151.779 207.416C151.966 208.419 151.485 209.976 150.676 212.127C149.295 215.796 147.702 219.467 145.708 222.821C131.966 245.929 112.018 260.511 88.564 269.973C88.1916 270.126 87.8085 270.279 87.4343 270.432C87.0601 270.584 86.677 270.737 86.2957 270.89C79.8864 273.471 73.3006 275.984 66.1786 276.042H65.824L65.7438 275.669M66.6151 275.458L66.1786 275.563V275.085C73.1224 275.028 79.5656 272.581 85.9838 269.992C86.3669 269.839 86.7394 269.686 87.1225 269.533C87.5055 269.38 87.8797 269.227 88.2539 269.074C111.573 259.671 131.343 245.193 144.961 222.304C146.911 219.027 148.486 215.415 149.847 211.773C150.694 209.527 151.023 208.266 150.898 207.606C150.783 206.976 150.043 206.747 146.67 207.472C127.916 211.495 111.174 220.039 96.3435 233.066C84.4889 243.473 75.1876 256.021 68.021 270.478C67.8785 270.765 67.727 271.043 67.5773 271.32C66.8824 272.571 66.2498 273.738 66.6151 275.468V275.458ZM43.1161 0.735323C43.4903 9.89148 44.1139 18.225 45.8316 26.415C55.7565 73.5752 80.9804 107.826 121.106 129.779C143.723 142.154 155.392 162.013 155.223 189.592C155.196 194.734 153.381 196.98 148.673 197.926C105.219 206.632 74.6441 233.075 56.1218 275.898C55.8456 276.539 55.4982 277.216 55.1596 277.896C54.7943 278.621 54.4219 279.348 54.1101 280.075C53.237 282.091 52.9073 283.83 54.0032 285.148C55.3645 286.782 58.0979 286.258 61.0165 285.626C61.756 285.464 62.4937 285.311 63.1797 285.206C88.7956 281.259 111.502 270.299 131.467 252.541C144.863 240.624 154.566 226.108 160.013 208.39C161.018 205.123 162.717 203.25 165.879 202.236C195.34 192.814 215.829 172.716 226.955 142.011C238.223 110.913 257.859 89.4023 287.864 79.5192C305.809 73.6039 323.877 75.2204 341.876 78.9472C342.31 79.0428 342.747 79.1672 343.174 79.2915C343.629 79.4235 344.074 79.5479 344.536 79.6435C345.649 79.8731 346.868 79.9114 348.426 79.2628L348.586 79.7105L348.283 80.0644C343.593 75.4098 338.351 72.9266 332.842 71.1972C321.03 67.4781 309.013 65.9208 296.925 68.9703C287.784 71.2718 279.32 70.0971 270.712 66.2652C251.86 57.8742 233.685 60.7133 216.355 71.6066C211.886 74.4169 208.281 78.2871 206.653 83.7338C206.065 85.7119 205.719 87.6518 207.214 88.6371C208.29 89.3449 208.932 88.5988 209.847 87.405C210.106 87.0702 210.373 86.7163 210.667 86.4294C226.556 70.7284 244.829 66.0356 265.541 72.7927C265.817 72.8788 266.102 72.9649 266.396 73.051C266.689 73.1371 266.991 73.2327 267.294 73.3264C268.709 73.7856 270.206 74.4552 271.514 76.1272L271.763 76.4429L271.505 76.749C269.85 78.7559 267.669 79.8923 265.612 80.9827C264.625 81.5069 263.654 82.0139 262.756 82.607C243.2 95.4229 229.1 113.064 221.125 136.172C216.07 150.802 208.655 163.685 197.761 174.245C189.501 182.244 180.217 188.312 169.831 192.45C166.429 193.797 164.417 194.505 163.635 192.24C163.288 191.245 163.199 189.678 163.127 187.509C162.283 163.13 153.202 143.3 134.707 128.87C130.461 125.564 125.833 122.945 121.15 120.297C116.826 117.862 112.473 115.396 108.414 112.375C89.9627 98.6044 75.0718 81.6026 65.1825 59.6802C65.1291 59.5654 65.0756 59.4411 65.0221 59.3263C64.9687 59.2115 64.9152 59.0872 64.8618 58.9743C60.2325 48.72 55.6407 38.4275 55.222 25.8794L55.1863 24.9228L55.9169 25.4776C57.3049 26.5279 58.6574 27.561 59.9938 28.573C61.2749 29.5583 62.5382 30.5244 63.7945 31.4695C65.2894 32.5963 66.7755 33.6963 68.2705 34.7562C88.8847 49.3972 111.805 56.1065 136.264 59.1445C168.931 63.1965 191.779 92.4117 191.566 127.781C191.566 128.315 191.459 128.918 191.37 129.492C191.272 130.104 191.174 130.676 191.174 131.183C191.165 131.986 191.37 132.472 192.047 132.673C193.854 133.228 194.876 131.365 195.919 129.3C196.026 129.09 196.124 128.889 196.231 128.688C199.666 122.094 198.534 115.08 197.057 108.113C190.489 77.1699 163.297 52.7624 133.711 50.2773C100.955 47.5147 72.9799 33.3807 50.0065 8.03767C49.5521 7.54026 49.1156 7.01416 48.6808 6.49762C48.2264 5.96386 47.781 5.41862 47.2999 4.89252C46.0276 3.49786 44.5683 2.17781 42.4942 1.19447L42.6724 0.754455L43.1161 0.735323ZM42.2269 0.773586L42.2002 0.0102539L42.8595 0.314439C45.0743 1.36665 46.6245 2.78044 47.9413 4.22293C48.4313 4.76816 48.8928 5.32297 49.3472 5.85864C49.7838 6.38283 50.2114 6.88981 50.648 7.36808C73.4681 32.5408 101.24 46.5792 133.782 49.3112C163.733 51.825 191.272 76.5099 197.93 107.883C199.408 114.841 200.635 122.189 197.013 129.138C196.915 129.329 196.817 129.53 196.71 129.731C195.812 131.518 194.442 134.364 191.815 133.572C190.596 133.199 190.293 132.178 190.302 131.154C190.302 130.551 190.418 129.893 190.507 129.3C190.596 128.707 190.685 128.191 190.685 127.753C190.897 92.8421 168.361 64.067 136.175 60.0724C111.626 57.0325 88.5479 50.2868 67.7805 35.5406C66.2677 34.4711 64.7816 33.3615 63.2777 32.2347C62.0233 31.2877 60.7582 30.3139 59.4681 29.3383C58.1424 28.3262 56.7882 27.2931 55.4002 26.2428L55.6585 25.8507L56.104 25.8315C56.512 38.1501 61.0165 48.2704 65.6547 58.5438C65.7082 58.6586 65.7616 58.783 65.8151 58.8978C65.8667 59.0125 65.9202 59.135 65.9737 59.2498C75.7827 80.9923 90.5579 97.8774 108.913 111.573C112.918 114.564 117.225 116.991 121.56 119.438C126.225 122.074 130.924 124.722 135.224 128.078C153.96 142.698 163.154 162.805 164.009 187.451C164.09 189.678 164.179 191.075 164.462 191.886C164.872 193.062 165.656 193.072 169.51 191.532C179.789 187.442 188.975 181.44 197.155 173.518C207.934 163.082 215.279 150.335 220.289 135.828C228.345 112.509 242.568 94.7055 262.293 81.7843C263.235 81.1645 264.233 80.6384 265.22 80.1218C267.303 79.0237 269.315 77.9524 270.837 76.1081L271.166 76.4238L270.828 76.7299C269.68 75.2683 268.372 74.6656 267.027 74.2352C266.733 74.1395 266.441 74.0534 266.147 73.9673C265.853 73.8813 265.568 73.7952 265.274 73.6995C244.873 67.0495 226.919 71.6448 211.273 87.1372C211.032 87.3668 210.801 87.671 210.533 88.0153C209.749 89.0293 208.575 90.6439 206.751 89.4502C204.57 88.0249 205.265 85.2451 205.799 83.4372C207.508 77.6941 211.309 73.6612 215.892 70.7763C233.418 59.7567 251.887 56.8526 271.042 65.3756C279.507 69.1425 287.784 70.2884 296.713 68.0329C308.995 64.9375 321.181 66.5234 333.08 70.2693C338.661 72.0274 344.048 74.5604 348.871 79.3566L349.397 79.8731L348.737 80.1505C347.002 80.8775 345.596 80.8392 344.358 80.581C343.861 80.4758 343.379 80.3323 342.934 80.2079C342.497 80.0836 342.098 79.9592 341.697 79.8827C323.752 76.1655 305.854 74.5891 288.114 80.4375C258.394 90.2231 238.954 111.506 227.775 142.355C216.542 173.336 195.839 193.644 166.119 203.144C163.252 204.061 161.757 205.695 160.839 208.677C155.339 226.576 145.53 241.246 132.02 253.268C111.938 271.129 89.0807 282.168 63.2955 286.143C62.6362 286.248 61.9253 286.401 61.1858 286.554C58.5059 287.126 55.1061 287.92 53.335 285.779C51.84 283.973 52.428 281.68 53.2993 279.663C53.629 278.908 54.0121 278.154 54.3774 277.427C54.723 276.738 55.0527 276.099 55.3111 275.487C73.9492 232.396 104.765 205.743 148.504 196.98C152.803 196.12 154.298 194.256 154.325 189.582C154.485 162.376 143.021 142.832 120.689 130.628C80.3496 108.553 54.9547 74.0726 44.9692 26.6236C43.2319 18.3493 42.6011 9.94887 42.2269 0.773586Z" fill="white"/>
</mask>
<g mask="url(#mask9_339_481)">
<path d="M349.425 -0.0244141H41.9772V287.463H349.425V-0.0244141Z" fill="#FF0066"/>
</g>
</g>
</g>
</g>
</g>
<mask id="mask10_339_481" style="mask-type:luminance" maskUnits="userSpaceOnUse" x="276" y="89" width="131" height="123">
<path d="M276.62 89.1128H406.9V211.062H276.62V89.1128Z" fill="white"/>
</mask>
<g mask="url(#mask10_339_481)">
<mask id="mask11_339_481" style="mask-type:luminance" maskUnits="userSpaceOnUse" x="276" y="89" width="131" height="122">
<path d="M396.64 206.183C396.845 205.19 396.346 204.578 396.025 203.928C392.973 197.764 389.003 192.413 383.937 187.968C377.61 182.417 370.463 178.766 362.461 177.045C360.244 176.568 360.039 176.846 360.903 179.147C361.481 180.706 362.158 182.254 362.995 183.658C368.806 193.434 377.254 199.608 387.187 203.612C390.231 204.836 393.294 206.154 396.64 206.183ZM406.645 89.3838C406.485 93.2731 406.218 96.8373 405.487 100.334C401.259 120.441 390.498 135.054 373.399 144.411C363.849 149.637 358.927 158.009 358.999 169.648C359.007 171.732 359.71 172.612 361.623 172.993C380.154 176.712 393.205 187.988 401.098 206.25C401.669 207.559 402.914 209.261 401.971 210.407C401.125 211.421 399.265 210.704 397.904 210.493C386.983 208.812 377.298 204.138 368.79 196.57C363.067 191.485 358.927 185.282 356.595 177.714C356.185 176.386 355.51 175.64 354.227 175.229C341.65 171.206 332.891 162.616 328.148 149.513C323.376 136.353 315.072 127.256 302.38 123.079C294.797 120.585 287.151 121.254 279.514 122.84C278.694 123.012 277.885 123.5 276.629 122.965C278.658 120.958 280.911 119.888 283.27 119.152C288.307 117.566 293.451 116.896 298.633 118.205C302.478 119.171 306.029 118.683 309.661 117.068C317.742 113.476 325.521 114.689 332.935 119.353C334.858 120.566 336.435 122.238 337.146 124.618C337.386 125.421 337.609 126.424 336.825 126.94C336.025 127.466 335.606 126.452 335.134 125.985C328.433 119.353 320.733 117.384 312 120.231C311.191 120.499 310.301 120.633 309.554 121.589C310.55 122.792 312.018 123.242 313.23 124.036C321.578 129.502 327.595 137.041 331.004 146.903C333.14 153.096 336.284 158.545 340.884 163.006C344.373 166.39 348.299 168.96 352.696 170.701C355.046 171.636 355.198 171.493 355.287 168.78C355.65 158.363 359.531 149.876 367.445 143.703C370.942 140.969 375.055 139.345 378.624 136.687C386.448 130.849 392.75 123.653 396.934 114.373C398.946 109.91 400.967 105.496 401.143 100.086C399.3 101.473 397.618 102.8 395.892 104.032C387.098 110.273 377.325 113.141 366.91 114.43C353.124 116.141 343.484 128.469 343.573 143.397C343.582 144.172 344.117 145.404 343.235 145.671C342.194 145.987 341.686 144.724 341.241 143.885C339.746 141.007 340.245 137.95 340.866 134.996C343.68 121.752 355.305 111.316 367.961 110.254C381.838 109.089 393.684 103.107 403.422 92.3644C404.322 91.3715 405.086 90.1663 406.672 89.4125" fill="white"/>
</mask>
<g mask="url(#mask11_339_481)">
<mask id="mask12_339_481" style="mask-type:luminance" maskUnits="userSpaceOnUse" x="276" y="89" width="131" height="123">
<path d="M406.901 89.1128H276.441V211.062H406.901V89.1128Z" fill="white"/>
</mask>
<g mask="url(#mask12_339_481)">
<mask id="mask13_339_481" style="mask-type:luminance" maskUnits="userSpaceOnUse" x="276" y="89" width="131" height="123">
<path d="M276.62 89.3047H406.737V211.059H276.62V89.3047Z" fill="white"/>
</mask>
<g mask="url(#mask13_339_481)">
<mask id="mask14_339_481" style="mask-type:luminance" maskUnits="userSpaceOnUse" x="276" y="89" width="131" height="122">
<path d="M396.64 206.18C396.845 205.187 396.346 204.575 396.025 203.924C392.973 197.76 389.003 192.409 383.937 187.965C377.61 182.413 370.463 178.763 362.461 177.041C360.244 176.565 360.039 176.842 360.903 179.144C361.481 180.703 362.158 182.25 362.995 183.655C368.806 193.431 377.254 199.604 387.187 203.608C390.231 204.833 393.294 206.151 396.64 206.18ZM406.645 89.3804C406.485 93.2697 406.218 96.8339 405.487 100.331C401.259 120.438 390.498 135.05 373.399 144.407C363.849 149.634 358.927 158.006 358.999 169.645C359.007 171.728 359.71 172.608 361.623 172.989C380.154 176.708 393.205 187.984 401.098 206.247C401.669 207.555 402.914 209.258 401.971 210.404C401.125 211.418 399.265 210.7 397.904 210.49C386.983 208.808 377.298 204.135 368.79 196.566C363.067 191.481 358.927 185.279 356.595 177.711C356.185 176.383 355.51 175.637 354.227 175.226C341.65 171.202 332.891 162.612 328.148 149.509C323.376 136.349 315.072 127.252 302.38 123.076C294.797 120.581 287.151 121.251 279.514 122.837C278.694 123.009 277.885 123.497 276.629 122.961C278.658 120.954 280.911 119.885 283.27 119.148C288.307 117.562 293.451 116.893 298.633 118.201C302.478 119.168 306.029 118.68 309.661 117.065C317.742 113.472 325.521 114.685 332.935 119.349C334.858 120.562 336.435 122.234 337.146 124.614C337.386 125.418 337.609 126.42 336.825 126.937C336.025 127.463 335.606 126.449 335.134 125.982C328.433 119.349 320.733 117.381 312 120.227C311.191 120.495 310.301 120.629 309.554 121.586C310.55 122.789 312.018 123.239 313.23 124.033C321.578 129.498 327.595 137.038 331.004 146.9C333.14 153.093 336.284 158.541 340.884 163.003C344.373 166.387 348.299 168.956 352.696 170.697C355.046 171.633 355.198 171.489 355.287 168.776C355.65 158.36 359.531 149.873 367.445 143.699C370.942 140.966 375.055 139.341 378.624 136.684C386.448 130.845 392.75 123.65 396.934 114.369C398.946 109.906 400.967 105.493 401.143 100.082C399.3 101.469 397.618 102.797 395.892 104.029C387.098 110.27 377.325 113.137 366.91 114.427C353.124 116.137 343.484 128.465 343.573 143.393C343.582 144.168 344.117 145.4 343.235 145.668C342.194 145.984 341.686 144.721 341.241 143.881C339.746 141.004 340.245 137.947 340.866 134.993C343.68 121.748 355.305 111.312 367.961 110.251C381.838 109.085 393.684 103.103 403.422 92.361C404.322 91.3681 405.086 90.1628 406.672 89.4091" fill="white"/>
</mask>
<g mask="url(#mask14_339_481)">
<path d="M406.901 89.1128H276.441V211.062H406.901V89.1128Z" fill="#FF0066"/>
</g>
</g>
</g>
</g>
</g>
<mask id="mask15_339_481" style="mask-type:luminance" maskUnits="userSpaceOnUse" x="274" y="87" width="134" height="126">
<path d="M274.844 87.7153H407.812V212.043H274.844V87.7153Z" fill="white"/>
</mask>
<g mask="url(#mask15_339_481)">
<mask id="mask16_339_481" style="mask-type:luminance" maskUnits="userSpaceOnUse" x="274" y="87" width="134" height="125">
<path d="M395.777 205.972C395.866 205.552 395.741 205.295 395.447 204.76C395.385 204.645 395.316 204.511 395.244 204.377C392.244 198.318 388.345 193.063 383.379 188.705C377.157 183.247 370.152 179.673 362.292 177.982C361.455 177.8 361.127 177.79 361.02 177.809C361.083 177.79 361.277 177.676 361.321 177.446C361.321 177.427 361.321 177.417 361.321 177.417C361.321 177.532 361.393 177.905 361.731 178.785C362.301 180.314 362.952 181.795 363.752 183.141C369.439 192.699 377.7 198.768 387.509 202.724C387.67 202.791 387.828 202.858 387.989 202.915C388.149 202.973 388.309 203.049 388.47 203.107C391.203 204.205 393.837 205.2 396.641 205.219L396.632 206.173L395.759 205.963M397.495 206.374L397.334 207.13L396.614 207.12C393.445 207.092 390.544 205.972 387.828 204.884C387.67 204.817 387.509 204.75 387.34 204.683C387.171 204.616 387.019 204.549 386.859 204.492C376.791 200.43 368.167 194.142 362.23 184.155C361.348 182.675 360.655 181.068 360.058 179.482C359.764 178.699 359.497 177.934 359.523 177.322C359.523 177.236 359.532 177.14 359.55 177.054C359.666 176.415 360.111 176.051 360.61 175.927C361.154 175.793 361.883 175.927 362.622 176.09C370.765 177.838 378.048 181.555 384.482 187.203C389.644 191.733 393.685 197.191 396.793 203.459C396.837 203.554 396.891 203.65 396.962 203.765C397.254 204.291 397.753 205.152 397.495 206.365V206.374ZM407.518 89.4027C407.357 93.3112 407.09 96.9422 406.334 100.526C402.044 120.91 391.114 135.752 373.775 145.241C364.518 150.307 359.791 158.353 359.862 169.629C359.871 171.244 360.263 171.732 361.767 172.038C380.592 175.812 393.872 187.299 401.883 205.829C401.981 206.059 402.115 206.317 402.267 206.613C402.418 206.91 402.596 207.254 402.748 207.606C403.12 208.467 403.574 209.871 402.623 211.029C401.536 212.337 399.569 211.802 398.626 211.591C398.305 211.524 398.02 211.459 397.771 211.421C386.681 209.709 376.845 204.96 368.212 197.285C362.373 192.097 358.126 185.741 355.741 177.991C355.422 176.949 354.958 176.444 353.961 176.128C341.126 172.019 332.154 163.226 327.302 149.838C322.621 136.917 314.512 128.059 302.105 123.969C294.726 121.541 287.259 122.18 279.666 123.749C279.524 123.777 279.381 123.816 279.194 123.873C279.007 123.931 278.775 123.997 278.535 124.045C277.911 124.177 277.173 124.196 276.282 123.825L274.957 123.27L275.999 122.237C278.161 120.097 280.555 118.97 282.986 118.205C288.112 116.59 293.426 115.894 298.802 117.25C302.435 118.166 305.799 117.709 309.288 116.159C317.664 112.433 325.745 113.724 333.346 118.501C335.394 119.792 337.156 121.637 337.949 124.302C338.136 124.933 338.695 126.768 337.245 127.724C336.675 128.097 336.089 128.097 335.581 127.801C335.18 127.562 334.877 127.15 334.727 126.959C334.611 126.806 334.54 126.72 334.478 126.662L335.082 125.966L334.478 126.672C328.006 120.269 320.636 118.377 312.206 121.13C312.073 121.168 311.941 121.216 311.825 121.245C311.709 121.273 311.585 121.321 311.469 121.35C310.952 121.522 310.551 121.713 310.186 122.18L309.51 121.57L310.177 120.938C310.72 121.589 311.442 121.991 312.349 122.467C312.759 122.687 313.213 122.926 313.65 123.204C322.158 128.775 328.309 136.477 331.789 146.559C333.89 152.637 336.951 157.942 341.438 162.281C344.846 165.587 348.674 168.091 352.964 169.792C353.943 170.184 354.29 170.27 354.415 170.251C354.344 170.26 354.237 170.337 354.201 170.404C354.201 170.404 354.201 170.394 354.21 170.385C354.281 170.174 354.326 169.725 354.361 168.732C354.736 158.037 358.741 149.274 366.886 142.909C368.764 141.447 370.801 140.291 372.777 139.182C374.628 138.141 376.417 137.127 378.074 135.886C385.792 130.123 391.985 123.041 396.089 113.933C396.107 113.887 396.133 113.839 396.151 113.791C396.169 113.743 396.196 113.695 396.214 113.648C398.19 109.261 400.041 105.094 400.21 100.028L401.099 100.066L401.607 100.851C401.01 101.3 400.442 101.738 399.872 102.169C399.319 102.59 398.778 103.001 398.234 103.412C397.602 103.889 396.971 104.357 396.329 104.807C387.384 111.162 377.46 114.057 366.956 115.358C353.65 117.011 344.321 128.899 344.41 143.368C344.41 143.483 344.437 143.636 344.472 143.903C344.508 144.143 344.57 144.485 344.57 144.82C344.57 144.982 344.561 145.155 344.517 145.346C344.392 145.91 344.037 146.389 343.414 146.578C341.651 147.114 340.796 145.126 340.529 144.581C340.484 144.495 340.44 144.41 340.406 144.334C338.722 141.103 339.319 137.711 339.943 134.766C342.844 121.101 354.807 110.378 367.838 109.289C381.501 108.142 393.143 102.255 402.73 91.685C402.906 91.4956 403.075 91.2852 403.263 91.0652C403.45 90.8452 403.655 90.5965 403.877 90.3477C404.474 89.6877 405.203 89.02 406.254 88.5226L407.562 87.9009L407.5 89.4409M405.72 89.3548L406.611 89.3931L406.965 90.2712C406.192 90.6347 405.648 91.1321 405.141 91.685C404.945 91.8955 404.766 92.1155 404.572 92.345C404.385 92.565 404.189 92.7946 403.993 93.0242C394.113 103.927 382.062 110.015 367.962 111.201C355.678 112.232 344.383 122.381 341.669 135.197C341.037 138.17 340.636 140.883 341.945 143.406C341.99 143.492 342.035 143.588 342.079 143.674C342.63 144.762 342.79 144.782 342.915 144.743C342.87 144.753 342.781 144.848 342.772 144.925C342.772 144.925 342.781 144.896 342.781 144.839C342.781 144.695 342.754 144.514 342.71 144.248C342.674 144.028 342.621 143.703 342.621 143.396C342.523 128.002 352.483 115.243 366.744 113.475C377.068 112.194 386.698 109.366 395.34 103.231C395.964 102.791 396.579 102.331 397.201 101.863C397.735 101.463 398.279 101.052 398.822 100.631C399.391 100.191 399.97 99.7507 400.567 99.303L402.035 98.203L401.973 100.124C401.785 105.639 399.765 110.158 397.798 114.507C397.78 114.554 397.753 114.602 397.735 114.65C397.717 114.698 397.691 114.746 397.673 114.793C393.409 124.244 386.992 131.566 379.07 137.481C377.308 138.799 375.412 139.861 373.579 140.902C371.585 142.03 369.653 143.119 367.9 144.485C360.227 150.479 356.462 158.676 356.106 168.826C356.079 169.706 356.044 170.509 355.848 171.072C355.821 171.158 355.785 171.234 355.741 171.32C355.493 171.827 355.074 172.124 354.549 172.181C353.925 172.248 353.125 171.932 352.314 171.607C347.811 169.82 343.788 167.182 340.219 163.723C335.483 159.145 332.279 153.555 330.098 147.248C326.761 137.596 320.886 130.227 312.696 124.866C312.349 124.636 311.968 124.436 311.54 124.206C310.685 123.758 309.626 123.213 308.816 122.228L308.308 121.608L308.807 120.977C309.493 120.106 310.275 119.764 310.934 119.553C311.068 119.505 311.21 119.467 311.335 119.429C311.46 119.391 311.576 119.362 311.683 119.324C320.725 116.379 328.754 118.434 335.679 125.287C335.839 125.45 335.991 125.641 336.089 125.775C336.302 126.052 336.383 126.136 336.427 126.165C336.356 126.127 336.267 126.165 336.302 126.136C336.409 126.071 336.534 125.909 336.24 124.923C335.616 122.83 334.228 121.321 332.43 120.192C325.221 115.664 317.725 114.507 309.947 117.967C306.173 119.649 302.426 120.173 298.376 119.152C293.399 117.9 288.415 118.53 283.467 120.087C281.188 120.804 279.069 121.818 277.182 123.691L276.576 122.993L276.897 122.103C277.405 122.314 277.788 122.304 278.161 122.228C278.33 122.19 278.49 122.142 278.686 122.084C278.864 122.037 279.078 121.971 279.292 121.924C286.983 120.326 294.798 119.62 302.584 122.19C315.563 126.462 324.063 135.79 328.924 149.197C333.569 162.032 342.115 170.404 354.433 174.351C356.008 174.858 356.899 175.831 357.398 177.456C359.666 184.844 363.707 190.893 369.315 195.881C377.7 203.336 387.233 207.941 397.994 209.594C398.305 209.642 398.644 209.718 398.947 209.785C400.38 210.091 401.019 210.12 401.269 209.824L401.937 210.464L401.269 209.833C401.411 209.661 401.482 209.347 401.108 208.496C400.985 208.209 400.843 207.922 400.682 207.616C400.54 207.331 400.38 207.025 400.255 206.728C392.475 188.743 379.658 177.666 361.419 174.006C359.098 173.538 358.082 172.286 358.064 169.734C357.993 157.722 363.103 149.015 372.946 143.636C389.813 134.403 400.406 120.03 404.572 100.21C405.292 96.7988 405.55 93.3112 405.711 89.4314L405.72 89.3548Z" fill="white"/>
</mask>
<g mask="url(#mask16_339_481)">
<mask id="mask17_339_481" style="mask-type:luminance" maskUnits="userSpaceOnUse" x="274" y="87" width="134" height="126">
<path d="M407.812 87.6431H274.615V212.041H407.812V87.6431Z" fill="white"/>
</mask>
<g mask="url(#mask17_339_481)">
<mask id="mask18_339_481" style="mask-type:luminance" maskUnits="userSpaceOnUse" x="274" y="87" width="134" height="126">
<path d="M274.926 87.8975H407.612V212.041H274.926V87.8975Z" fill="white"/>
</mask>
<g mask="url(#mask18_339_481)">
<mask id="mask19_339_481" style="mask-type:luminance" maskUnits="userSpaceOnUse" x="274" y="87" width="134" height="125">
<path d="M395.776 205.972C395.865 205.552 395.741 205.295 395.447 204.76C395.384 204.645 395.315 204.511 395.244 204.377C392.243 198.318 388.344 193.063 383.378 188.705C377.156 183.247 370.151 179.673 362.292 177.982C361.454 177.8 361.126 177.79 361.019 177.809C361.082 177.79 361.276 177.676 361.321 177.446C361.321 177.427 361.321 177.417 361.321 177.417C361.321 177.532 361.392 177.905 361.73 178.785C362.301 180.314 362.951 181.795 363.751 183.141C369.439 192.699 377.699 198.768 387.508 202.724C387.669 202.791 387.827 202.858 387.988 202.915C388.148 202.973 388.309 203.049 388.469 203.107C391.202 204.205 393.836 205.2 396.64 205.219L396.632 206.173L395.758 205.963M397.494 206.374L397.334 207.13L396.614 207.12C393.444 207.092 390.543 205.972 387.827 204.884C387.669 204.817 387.508 204.75 387.339 204.683C387.17 204.616 387.018 204.549 386.858 204.492C376.791 200.43 368.166 194.142 362.229 184.155C361.347 182.675 360.654 181.068 360.057 179.482C359.763 178.699 359.496 177.934 359.523 177.322C359.523 177.236 359.532 177.14 359.549 177.054C359.665 176.415 360.111 176.051 360.61 175.927C361.153 175.793 361.882 175.927 362.621 176.09C370.764 177.838 378.047 181.555 384.481 187.203C389.643 191.733 393.684 197.191 396.792 203.459C396.836 203.554 396.89 203.65 396.961 203.765C397.253 204.291 397.752 205.152 397.494 206.365V206.374ZM407.517 89.4027C407.357 93.3112 407.089 96.9422 406.334 100.526C402.043 120.91 391.113 135.752 373.774 145.241C364.517 150.307 359.79 158.353 359.861 169.629C359.87 171.244 360.262 171.732 361.766 172.038C380.591 175.812 393.871 187.299 401.883 205.829C401.981 206.059 402.114 206.317 402.266 206.613C402.417 206.91 402.595 207.254 402.747 207.606C403.119 208.467 403.574 209.871 402.622 211.029C401.535 212.337 399.568 211.802 398.625 211.591C398.305 211.524 398.02 211.459 397.77 211.421C386.68 209.709 376.844 204.96 368.211 197.285C362.372 192.097 358.126 185.741 355.74 177.991C355.421 176.949 354.958 176.444 353.96 176.128C341.125 172.019 332.153 163.226 327.302 149.838C322.621 136.917 314.511 128.059 302.104 123.969C294.726 121.541 287.258 122.18 279.665 123.749C279.523 123.777 279.38 123.816 279.193 123.873C279.006 123.931 278.775 123.997 278.534 124.045C277.91 124.177 277.173 124.196 276.282 123.825L274.956 123.27L275.998 122.237C278.16 120.097 280.555 118.97 282.985 118.205C288.111 116.59 293.425 115.894 298.801 117.25C302.434 118.166 305.798 117.709 309.287 116.159C317.663 112.433 325.744 113.724 333.346 118.501C335.393 119.792 337.155 121.637 337.948 124.302C338.135 124.933 338.695 126.768 337.244 127.724C336.674 128.097 336.088 128.097 335.58 127.801C335.179 127.562 334.876 127.15 334.726 126.959C334.611 126.806 334.539 126.72 334.477 126.662L335.081 125.966L334.477 126.672C328.005 120.269 320.636 118.377 312.206 121.13C312.072 121.168 311.94 121.216 311.824 121.245C311.709 121.273 311.584 121.321 311.468 121.35C310.951 121.522 310.55 121.713 310.185 122.18L309.51 121.57L310.176 120.938C310.72 121.589 311.441 121.991 312.348 122.467C312.758 122.687 313.212 122.926 313.649 123.204C322.157 128.775 328.308 136.477 331.788 146.559C333.889 152.637 336.95 157.942 341.437 162.281C344.846 165.587 348.673 168.091 352.964 169.792C353.942 170.184 354.289 170.27 354.414 170.251C354.343 170.26 354.236 170.337 354.2 170.404C354.2 170.404 354.2 170.394 354.209 170.385C354.281 170.174 354.325 169.725 354.361 168.732C354.735 158.037 358.74 149.274 366.885 142.909C368.763 141.447 370.8 140.291 372.776 139.182C374.627 138.141 376.416 137.127 378.074 135.886C385.791 130.123 391.984 123.041 396.088 113.933C396.106 113.887 396.133 113.839 396.15 113.791C396.168 113.743 396.195 113.695 396.213 113.648C398.189 109.261 400.04 105.094 400.21 100.028L401.099 100.066L401.606 100.851C401.01 101.3 400.441 101.738 399.871 102.169C399.319 102.59 398.777 103.001 398.233 103.412C397.601 103.889 396.97 104.357 396.329 104.807C387.384 111.162 377.459 114.057 366.955 115.358C353.65 117.011 344.32 128.899 344.409 143.368C344.409 143.483 344.436 143.636 344.471 143.903C344.507 144.143 344.569 144.485 344.569 144.82C344.569 144.982 344.561 145.155 344.516 145.346C344.391 145.91 344.037 146.389 343.413 146.578C341.651 147.114 340.795 145.126 340.528 144.581C340.484 144.495 340.439 144.41 340.405 144.334C338.721 141.103 339.318 137.711 339.942 134.766C342.843 121.101 354.806 110.378 367.837 109.289C381.5 108.142 393.143 102.255 402.729 91.685C402.905 91.4956 403.075 91.2852 403.262 91.0652C403.449 90.8452 403.654 90.5965 403.877 90.3477C404.473 89.6877 405.202 89.02 406.254 88.5226L407.561 87.9009L407.499 89.4409M405.719 89.3548L406.61 89.3931L406.965 90.2712C406.191 90.6347 405.648 91.1321 405.14 91.685C404.944 91.8955 404.766 92.1155 404.571 92.345C404.384 92.565 404.188 92.7946 403.992 93.0242C394.112 103.927 382.061 110.015 367.962 111.201C355.677 112.232 344.382 122.381 341.669 135.197C341.036 138.17 340.635 140.883 341.945 143.406C341.989 143.492 342.034 143.588 342.078 143.674C342.629 144.762 342.789 144.782 342.914 144.743C342.87 144.753 342.78 144.848 342.772 144.925C342.772 144.925 342.78 144.896 342.78 144.839C342.78 144.695 342.754 144.514 342.709 144.248C342.674 144.028 342.62 143.703 342.62 143.396C342.522 128.002 352.483 115.243 366.743 113.475C377.067 112.194 386.698 109.366 395.34 103.231C395.963 102.791 396.578 102.331 397.2 101.863C397.735 101.463 398.278 101.052 398.821 100.631C399.39 100.191 399.969 99.7507 400.566 99.303L402.034 98.203L401.972 100.124C401.785 105.639 399.764 110.158 397.797 114.507C397.779 114.554 397.752 114.602 397.735 114.65C397.717 114.698 397.69 114.746 397.672 114.793C393.408 124.244 386.992 131.566 379.07 137.481C377.307 138.799 375.411 139.861 373.578 140.902C371.584 142.03 369.653 143.119 367.899 144.485C360.227 150.479 356.462 158.676 356.105 168.826C356.078 169.706 356.043 170.509 355.847 171.072C355.82 171.158 355.784 171.234 355.74 171.32C355.492 171.827 355.073 172.124 354.548 172.181C353.924 172.248 353.124 171.932 352.313 171.607C347.811 169.82 343.787 167.182 340.218 163.723C335.482 159.145 332.278 153.555 330.097 147.248C326.76 137.596 320.885 130.227 312.696 124.866C312.348 124.636 311.967 124.436 311.539 124.206C310.684 123.758 309.626 123.213 308.815 122.228L308.307 121.608L308.806 120.977C309.492 120.106 310.274 119.764 310.933 119.553C311.067 119.505 311.21 119.467 311.334 119.429C311.459 119.391 311.575 119.362 311.682 119.324C320.725 116.379 328.754 118.434 335.678 125.287C335.838 125.45 335.99 125.641 336.088 125.775C336.302 126.052 336.382 126.136 336.426 126.165C336.355 126.127 336.266 126.165 336.302 126.136C336.409 126.071 336.533 125.909 336.239 124.923C335.616 122.83 334.228 121.321 332.43 120.192C325.22 115.664 317.724 114.507 309.946 117.967C306.172 119.649 302.425 120.173 298.375 119.152C293.398 117.9 288.414 118.53 283.466 120.087C281.187 120.804 279.069 121.818 277.182 123.691L276.576 122.993L276.896 122.103C277.404 122.314 277.787 122.304 278.16 122.228C278.329 122.19 278.489 122.142 278.685 122.084C278.864 122.037 279.077 121.971 279.291 121.924C286.982 120.326 294.797 119.62 302.584 122.19C315.563 126.462 324.062 135.79 328.923 149.197C333.568 162.032 342.114 170.404 354.432 174.351C356.007 174.858 356.898 175.831 357.397 177.456C359.665 184.844 363.707 190.893 369.314 195.881C377.699 203.336 387.232 207.941 397.993 209.594C398.305 209.642 398.643 209.718 398.946 209.785C400.379 210.091 401.018 210.12 401.268 209.824L401.936 210.464L401.268 209.833C401.41 209.661 401.482 209.347 401.108 208.496C400.985 208.209 400.842 207.922 400.682 207.616C400.539 207.331 400.379 207.025 400.254 206.728C392.475 188.743 379.658 177.666 361.419 174.006C359.097 173.538 358.081 172.286 358.063 169.734C357.992 157.722 363.102 149.015 372.945 143.636C389.812 134.403 400.406 120.03 404.571 100.21C405.291 96.7988 405.55 93.3112 405.71 89.4314L405.719 89.3548Z" fill="white"/>
</mask>
<g mask="url(#mask19_339_481)">
<path d="M407.812 87.6431H274.615V212.041H407.812V87.6431Z" fill="#FF0066"/>
</g>
</g>
</g>
</g>
</g>
<path d="M45.3761 395.417C39.2361 395.417 33.36 394.041 27.7519 391.294C22.148 388.546 17.3236 384.854 13.279 380.219C9.23847 375.579 6.01414 370.044 3.60605 363.615C1.20202 357.181 0 350.446 0 343.411C0 336.371 1.26902 329.635 3.80909 323.206C6.34713 316.773 9.73795 311.248 13.9775 306.637C18.217 302.025 23.2058 298.346 28.9458 295.596C34.6838 292.842 40.6452 291.464 46.8299 291.464C51.642 291.464 56.1232 292.294 60.2714 293.95C64.4236 295.602 67.8246 298.095 70.4722 301.425C73.124 304.757 74.4519 308.638 74.4519 313.066C74.4519 316.375 73.3027 319.195 71.0083 321.526C68.7119 323.858 65.6642 325.024 61.8632 325.024C59.5668 325.024 57.4044 324.464 55.3739 323.344C53.3435 322.225 51.7537 320.616 50.6065 318.518L51.9953 317.609C54.2471 320.965 56.7648 322.641 59.5485 322.641C61.5789 322.641 63.1099 321.535 64.1454 319.323C65.185 317.112 65.7048 315.027 65.7048 313.066C65.7048 310.734 65.3271 308.428 64.5759 306.148C63.8287 303.864 62.716 301.731 61.2378 299.753C59.7597 297.771 57.7719 296.175 55.2765 294.962C52.7791 293.751 49.9649 293.144 46.8299 293.144C41.0899 293.144 35.6909 295.382 30.6352 299.856C25.5774 304.331 21.5145 310.449 18.4444 318.209C15.3785 325.964 13.8475 334.365 13.8475 343.411C13.8475 352.497 15.2465 360.91 18.0465 368.647C20.8505 376.378 24.6819 382.495 29.5387 386.991C34.3955 391.489 39.6746 393.737 45.3761 393.737C52.306 393.737 58.5414 391.617 64.0804 387.376C69.6235 383.137 74.0296 377.45 77.2945 370.318L78.6183 371.09C75.7047 378.176 71.39 384.003 65.6723 388.568C59.9546 393.132 53.1892 395.417 45.3761 395.417Z" fill="#FF0066"/>
<path d="M105.317 319.915C110.97 316.328 117.128 314.532 123.794 314.532C130.458 314.532 136.619 316.328 142.271 319.915C147.924 323.505 152.393 328.41 155.68 334.634C158.972 340.857 160.618 347.629 160.618 354.949C160.618 362.265 158.972 369.033 155.68 375.256C152.393 381.475 147.924 386.389 142.271 390C136.619 393.611 130.458 395.417 123.794 395.417C117.128 395.417 110.97 393.611 105.317 390C99.6647 386.389 95.1917 381.475 91.9003 375.256C88.6131 369.033 86.9705 362.265 86.9705 354.949C86.9705 347.629 88.6131 340.857 91.9003 334.634C95.1917 328.41 99.6647 323.505 105.317 319.915ZM112.229 388.534C115.786 392.004 119.64 393.737 123.794 393.737C127.947 393.737 131.798 392.004 135.352 388.534C138.909 385.06 141.713 380.354 143.766 374.416C145.816 368.474 146.844 361.982 146.844 354.941C146.844 347.952 145.816 341.474 143.766 335.508C141.713 329.542 138.909 324.836 135.352 321.39C131.798 317.94 127.947 316.212 123.794 316.212C119.64 316.212 115.786 317.94 112.229 321.39C108.676 324.836 105.874 329.542 103.823 335.508C101.77 341.474 100.745 347.952 100.745 354.941C100.745 361.982 101.77 368.474 103.823 374.416C105.874 380.354 108.676 385.06 112.229 388.534Z" fill="#FF0066"/>
<path d="M190.889 386.399C190.889 388.216 191.76 389.511 193.504 390.282C195.253 391.049 198.024 391.431 201.821 391.431V393.111H166.183V391.431C169.984 391.431 172.755 391.049 174.5 390.282C176.242 389.511 177.115 388.216 177.115 386.399V320.06C177.115 318.243 176.993 316.649 176.749 315.277C176.506 313.902 176.118 312.781 175.588 311.917C175.062 311.056 174.5 310.344 173.899 309.783C173.302 309.223 172.542 308.814 171.616 308.557C170.69 308.3 169.84 308.137 169.066 308.068C168.29 308 167.33 307.965 166.183 307.965V306.217C181.598 306.217 189.305 301.301 189.305 291.464H190.889V386.399Z" fill="#FF0066"/>
<path d="M233.019 386.398C233.019 388.215 233.89 389.51 235.634 390.281C237.376 391.048 240.146 391.43 243.943 391.43V393.11H208.313V391.43C212.108 391.43 214.877 391.048 216.621 390.281C218.363 389.51 219.236 388.215 219.236 386.398V345.432C219.236 343.615 219.115 342.021 218.871 340.649C218.631 339.273 218.248 338.153 217.718 337.289C217.186 336.428 216.623 335.716 216.028 335.155C215.431 334.595 214.668 334.19 213.738 333.937C212.812 333.68 211.961 333.517 211.188 333.449C210.418 333.376 209.46 333.337 208.313 333.337V331.589C223.722 331.589 231.427 326.675 231.427 316.845H233.019V386.398ZM233.019 304.578C233.019 306.927 232.223 308.941 230.631 310.622C229.043 312.297 227.135 313.133 224.905 313.133C222.674 313.133 220.763 312.297 219.171 310.622C217.584 308.941 216.792 306.927 216.792 304.578C216.792 302.225 217.584 300.207 219.171 298.527C220.763 296.846 222.674 296.006 224.905 296.006C227.135 296.006 229.043 296.846 230.631 298.527C232.223 300.207 233.019 302.225 233.019 304.578Z" fill="#FF0066"/>
<path d="M292.695 314.532C299.316 314.532 305.263 316.34 310.538 319.958C315.817 323.571 319.89 328.452 322.761 334.607C325.636 340.758 327.074 347.534 327.074 354.94C327.074 362.49 325.758 369.296 323.127 375.358C320.499 381.417 316.516 386.275 311.172 389.931C305.828 393.587 299.513 395.417 292.232 395.417C282.827 395.417 276.821 393.319 274.218 389.125L270.441 393.111H249.511V391.431C253.306 391.431 256.076 391.049 257.82 390.282C259.562 389.511 260.435 388.216 260.435 386.399V320.06C260.435 318.243 260.313 316.649 260.07 315.277C259.83 313.902 259.446 312.781 258.916 311.917C258.384 311.056 257.822 310.344 257.227 309.783C256.63 309.223 255.867 308.814 254.937 308.557C254.011 308.3 253.16 308.137 252.387 308.068C251.617 308 250.659 307.965 249.511 307.965V306.217C264.92 306.217 272.626 301.301 272.626 291.464H274.218V322.152C275.674 319.546 277.868 317.626 280.804 316.392C283.738 315.153 287.702 314.532 292.695 314.532ZM289.649 393.737C305.409 393.737 313.291 380.806 313.291 354.94C313.291 347.671 312.441 341.16 310.741 335.404C309.04 329.65 306.412 325.013 302.855 321.492C299.302 317.973 295.034 316.212 290.047 316.212C281.302 316.212 276.025 319.57 274.218 326.284V382.833C274.218 386.286 275.617 388.966 278.417 390.874C281.221 392.783 284.965 393.737 289.649 393.737Z" fill="#FF0066"/>
<path d="M380.323 314.532C388.227 314.532 394.609 316.467 399.466 320.335C404.322 324.206 406.751 329.032 406.751 334.814C406.751 338.448 405.315 341.898 402.446 345.16C399.575 348.417 395.778 350.046 391.052 350.046C388.625 350.046 386.085 349.467 383.433 348.306C380.786 347.14 378.91 345.554 377.805 343.548L379.194 342.64C381.446 345.996 383.963 347.672 386.747 347.672C388.16 347.672 389.372 346.915 390.386 345.4C391.403 343.887 392.087 342.338 392.44 340.754C392.798 339.166 392.976 337.792 392.976 336.631C392.976 334.111 392.785 331.758 392.408 329.567C392.034 327.379 391.405 325.226 390.524 323.104C389.64 320.978 388.327 319.298 386.585 318.064C384.84 316.83 382.753 316.212 380.323 316.212C376.526 316.212 372.707 317.262 368.863 319.358C365.023 321.456 362.398 323.764 360.985 326.284V386.4C360.985 388.217 361.856 389.511 363.6 390.283C365.342 391.05 368.112 391.431 371.909 391.431V393.112H336.279V391.431C340.073 391.431 342.843 391.05 344.587 390.283C346.329 389.511 347.202 388.217 347.202 386.4V345.434C347.202 343.617 347.08 342.023 346.837 340.651C346.597 339.275 346.213 338.154 345.684 337.291C345.152 336.429 344.589 335.718 343.994 335.156C343.397 334.597 342.634 334.192 341.704 333.939C340.778 333.682 339.927 333.519 339.154 333.451C338.384 333.378 337.426 333.339 336.279 333.339V331.59C351.688 331.59 359.393 326.677 359.393 316.847H360.985V323.833C365.488 317.633 371.935 314.532 380.323 314.532Z" fill="#FF0066"/>
<path d="M439.076 386.4C439.076 388.218 439.947 389.512 441.691 390.284C443.433 391.051 446.203 391.432 450 391.432V393.112H414.37V391.432C418.165 391.432 420.934 391.051 422.678 390.284C424.421 389.512 425.294 388.218 425.294 386.4V345.435C425.294 343.618 425.172 342.023 424.928 340.652C424.689 339.276 424.305 338.155 423.775 337.292C423.243 336.43 422.68 335.719 422.086 335.157C421.489 334.598 420.725 334.193 419.795 333.94C418.869 333.683 418.019 333.52 417.245 333.451C416.475 333.379 415.517 333.34 414.37 333.34V331.591C429.779 331.591 437.484 326.677 437.484 316.847H439.076V386.4ZM435.698 309.57H434.106L432.116 295.032H443.113L435.698 309.57Z" fill="#FF0066"/>
</svg>
