<svg width="168" height="1166" viewBox="0 0 168 1166" fill="none" xmlns="http://www.w3.org/2000/svg">
<g clip-path="url(#clip0_201_755)">
<mask id="mask0_201_755" style="mask-type:luminance" maskUnits="userSpaceOnUse" x="25" y="39" width="1160" height="1088">
<path d="M25.9288 39.7705H1184V1126.14H25.9288V39.7705Z" fill="white"/>
</mask>
<g mask="url(#mask0_201_755)">
<mask id="mask1_201_755" style="mask-type:luminance" maskUnits="userSpaceOnUse" x="26" y="40" width="1157" height="1086">
<path d="M115.697 1082.84C113.852 1073.93 118.356 1068.49 121.183 1062.7C148.319 1007.69 183.593 959.93 228.588 920.286C284.845 870.719 348.332 838.213 419.452 822.885C439.122 818.642 441.007 821.108 433.34 841.652C428.163 855.529 422.172 869.341 414.747 881.876C363.061 969.099 288.035 1024.18 199.702 1059.94C172.694 1070.89 145.424 1082.63 115.697 1082.84ZM26.8244 40.8652C28.2381 75.5833 30.5875 107.364 37.1442 138.556C74.7409 317.928 170.378 448.233 322.401 531.684C407.315 578.285 450.99 653.009 450.391 756.859C450.29 775.451 444.03 783.242 427.019 786.68C262.314 819.802 146.333 920.467 76.1545 1083.35C71.1125 1095.05 60.0118 1110.23 68.4198 1120.38C75.9189 1129.44 92.4655 1123.03 104.569 1121.14C201.681 1106.11 287.733 1064.4 363.363 996.889C414.208 951.522 451.024 896.188 471.711 828.645C475.339 816.799 481.357 810.125 492.761 806.506C604.534 770.627 682.38 694.024 724.581 577.059C766.984 459.651 840.797 378.514 953.614 341.192C1021.01 318.907 1088.96 324.957 1156.86 339.052C1164.16 340.575 1171.28 344.928 1182.51 340.176C1164.53 322.28 1144.45 312.749 1123.53 306.155C1078.74 292.024 1033.01 286.039 987.01 297.711C952.874 306.372 921.268 301.947 888.983 287.562C817.189 255.492 747.987 266.366 682.144 307.932C665.032 318.726 651.037 333.691 644.749 354.924C642.636 362.098 640.65 371.05 647.61 375.62C654.773 380.328 658.435 371.267 662.676 367.067C722.232 307.896 790.66 290.319 868.303 315.723C875.499 318.073 883.403 319.306 890.06 327.786C881.215 338.551 868.169 342.57 857.411 349.636C783.228 398.412 729.724 465.629 699.431 553.65C680.428 608.904 652.552 657.499 611.596 697.288C580.556 727.472 545.652 750.374 506.615 765.955C485.699 774.29 484.386 772.985 483.579 748.814C480.347 655.867 445.814 580.134 375.501 525.054C344.427 500.709 307.807 486.208 276.134 462.473C206.595 410.403 150.567 346.161 113.381 263.392C95.4544 223.639 77.5009 184.221 75.9189 136.024C92.2972 148.414 107.188 160.268 122.624 171.243C200.772 226.94 287.699 252.489 380.24 264.008C502.744 279.264 588.459 389.207 587.651 522.45C587.617 529.407 582.845 540.346 590.68 542.74C599.963 545.569 604.501 534.296 608.398 526.795C621.72 501.137 617.277 473.891 611.697 447.508C586.709 329.346 483.343 236.29 370.863 226.831C247.517 216.429 142.199 163.017 55.7103 67.2484C47.7063 58.3694 40.9476 47.6043 26.8244 40.9015" fill="white"/>
</mask>
<g mask="url(#mask1_201_755)">
<mask id="mask2_201_755" style="mask-type:luminance" maskUnits="userSpaceOnUse" x="25" y="39" width="1160" height="1088">
<path d="M1184 39.7693H25.9285V1126.14H1184V39.7693Z" fill="white"/>
</mask>
<g mask="url(#mask2_201_755)">
<mask id="mask3_201_755" style="mask-type:luminance" maskUnits="userSpaceOnUse" x="26" y="40" width="1157" height="1087">
<path d="M26.6155 40.5898H1182.62V1126.14H26.6155V40.5898Z" fill="white"/>
</mask>
<g mask="url(#mask3_201_755)">
<mask id="mask4_201_755" style="mask-type:luminance" maskUnits="userSpaceOnUse" x="26" y="40" width="1157" height="1086">
<path d="M115.696 1082.84C113.852 1073.93 118.355 1068.49 121.182 1062.7C148.318 1007.69 183.592 959.929 228.587 920.285C284.844 870.718 348.331 838.212 419.452 822.884C439.122 818.641 441.007 821.107 433.339 841.651C428.162 855.528 422.171 869.34 414.746 881.875C363.06 969.098 288.035 1024.18 199.701 1059.94C172.694 1070.89 145.423 1082.62 115.696 1082.84ZM26.8238 40.8643C28.2375 75.5823 30.5869 107.363 37.1436 138.555C74.7402 317.927 170.378 448.232 322.4 531.683C407.314 578.284 450.99 653.008 450.391 756.858C450.29 775.45 444.029 783.241 427.018 786.679C262.313 819.801 146.332 920.466 76.1539 1083.35C71.1118 1095.05 60.0112 1110.23 68.4191 1120.38C75.9183 1129.44 92.4649 1123.03 104.568 1121.14C201.68 1106.11 287.732 1064.39 363.363 996.888C414.208 951.521 451.023 896.187 471.71 828.644C475.338 816.798 481.356 810.124 492.76 806.505C604.534 770.626 682.379 694.023 724.58 577.058C766.983 459.65 840.797 378.513 953.614 341.191C1021.01 318.906 1088.96 324.956 1156.86 339.051C1164.16 340.574 1171.28 344.927 1182.51 340.175C1164.53 322.28 1144.45 312.748 1123.53 306.154C1078.74 292.023 1033.01 286.038 987.01 297.71C952.873 306.371 921.268 301.946 888.983 287.561C817.189 255.491 747.987 266.365 682.144 307.931C665.032 318.725 651.036 333.69 644.749 354.923C642.635 362.097 640.649 371.049 647.61 375.619C654.772 380.327 658.434 371.266 662.675 367.066C722.231 307.895 790.659 290.318 868.303 315.722C875.499 318.072 883.402 319.305 890.06 327.785C881.214 338.55 868.168 342.569 857.411 349.635C783.227 398.411 729.723 465.628 699.431 553.649C680.427 608.903 652.551 657.498 611.595 697.287C580.555 727.471 545.651 750.373 506.614 765.954C485.698 774.289 484.386 772.984 483.578 748.813C480.347 655.866 445.813 580.133 375.5 525.053C344.427 500.708 307.806 486.208 276.133 462.472C206.594 410.402 150.566 346.16 113.38 263.391C95.4537 223.638 77.5002 184.22 75.9183 136.023C92.2966 148.413 107.187 160.267 122.623 171.242C200.772 226.939 287.698 252.488 380.239 264.007C502.743 279.263 588.458 389.206 587.65 522.449C587.617 529.406 582.844 540.345 590.68 542.739C599.963 545.568 604.5 534.295 608.398 526.794C621.72 501.136 617.277 473.89 611.696 447.507C586.708 329.345 483.342 236.29 370.862 226.83C247.517 216.428 142.199 163.016 55.7096 67.2474C47.7056 58.3684 40.947 47.6033 26.8238 40.9005" fill="white"/>
</mask>
<g mask="url(#mask4_201_755)">
<path d="M1184 39.769H25.9283V1126.14H1184V39.769Z" fill="#FFF4DE"/>
</g>
</g>
</g>
</g>
</g>
<mask id="mask5_201_755" style="mask-type:luminance" maskUnits="userSpaceOnUse" x="25" y="38" width="1161" height="1090">
<path d="M25 38H1185.72V1128H25V38Z" fill="white"/>
</mask>
<g mask="url(#mask5_201_755)">
<mask id="mask6_201_755" style="mask-type:luminance" maskUnits="userSpaceOnUse" x="25" y="38" width="1161" height="1089">
<path d="M114.054 1083.24C112.404 1075.16 115.494 1069.62 118.086 1064.9C118.658 1063.85 119.197 1062.88 119.702 1061.86C146.938 1006.64 182.347 958.697 227.51 918.908C283.969 869.159 347.725 836.509 419.115 821.144C429.771 818.859 437.775 817.699 439.021 824.481C439.728 828.282 437.91 834.187 434.854 842.341C429.637 856.254 423.619 870.175 416.086 882.891C364.171 970.513 288.809 1025.8 200.199 1061.68C198.793 1062.26 197.345 1062.84 195.932 1063.42C194.518 1064 193.071 1064.58 191.63 1065.16C167.416 1074.94 142.536 1084.48 115.629 1084.69H114.289L113.986 1083.28M117.278 1082.48L115.629 1082.88V1081.07C141.862 1080.85 166.204 1071.57 190.452 1061.76C191.899 1061.18 193.306 1060.59 194.754 1060.01C196.201 1059.43 197.615 1058.85 199.028 1058.27C287.126 1022.62 361.815 967.721 413.265 880.933C420.63 868.506 426.581 854.811 431.724 840.999C434.921 832.483 436.167 827.702 435.695 825.199C435.258 822.813 432.464 821.942 419.721 824.692C348.87 839.947 285.618 872.344 229.59 921.737C184.804 961.199 149.664 1008.78 122.589 1063.6C122.051 1064.69 121.479 1065.74 120.913 1066.79C118.288 1071.53 115.898 1075.96 117.278 1082.52V1082.48ZM28.5002 40.7928C29.9139 75.5108 32.27 107.11 38.7593 138.164C76.255 316.985 171.549 446.855 323.141 530.096C408.587 577.022 452.673 652.32 452.033 756.895C451.932 776.394 445.073 784.91 427.287 788.494C263.121 821.507 147.611 921.773 77.635 1084.15C76.5916 1086.58 75.2789 1089.15 73.9999 1091.72C72.6199 1094.47 71.213 1097.23 70.0349 1099.98C66.7364 1107.63 65.491 1114.22 69.631 1119.22C74.7741 1125.42 85.1005 1123.43 96.1271 1121.04C98.9207 1120.42 101.708 1119.84 104.299 1119.44C201.075 1104.47 286.857 1062.92 362.286 995.584C412.895 950.398 449.549 895.354 470.128 828.174C473.925 815.784 480.347 808.682 492.289 804.837C603.591 769.111 680.999 692.907 723.032 576.478C765.604 458.563 839.787 376.998 953.143 339.524C1020.94 317.094 1089.2 323.224 1157.19 337.355C1158.84 337.717 1160.49 338.189 1162.1 338.66C1163.82 339.161 1165.5 339.632 1167.25 339.995C1171.45 340.866 1176.06 341.011 1181.94 338.551L1182.55 340.249L1181.4 341.591C1163.68 323.942 1143.88 314.526 1123.06 307.968C1078.44 293.866 1033.04 287.961 987.373 299.524C952.84 308.251 920.864 303.797 888.343 289.267C817.121 257.451 748.458 268.216 682.985 309.521C666.102 320.177 652.484 334.852 646.331 355.504C644.109 363.005 642.803 370.361 648.451 374.097C652.517 376.781 654.941 373.951 658.401 369.425C659.377 368.155 660.387 366.813 661.497 365.725C721.524 306.191 790.558 288.397 868.808 314.018C869.851 314.345 870.928 314.671 872.039 314.997C873.143 315.324 874.287 315.687 875.432 316.042C880.777 317.783 886.431 320.322 891.372 326.662L892.315 327.859L891.339 329.02C885.085 336.629 876.845 340.938 869.077 345.073C865.347 347.061 861.679 348.983 858.286 351.232C784.405 399.827 731.137 466.717 701.006 554.339C681.908 609.811 653.897 658.66 612.74 698.703C581.531 729.032 546.459 752.042 507.22 767.733C494.369 772.839 486.769 775.523 483.814 766.935C482.501 763.162 482.164 757.221 481.895 748.995C478.704 656.556 444.399 581.368 374.524 526.65C358.482 514.115 341 504.184 323.309 494.144C306.971 484.91 290.526 475.56 275.191 464.105C205.484 411.89 149.227 347.423 111.866 264.299C111.664 263.863 111.462 263.392 111.26 262.957C111.058 262.521 110.856 262.05 110.654 261.622C93.1651 222.74 75.8175 183.713 74.2355 136.133L74.1009 132.506L76.8609 134.61C82.1049 138.592 87.2143 142.51 92.2631 146.347C97.1032 150.083 101.876 153.746 106.622 157.33C112.27 161.602 117.884 165.774 123.532 169.792C201.411 225.308 288.001 250.748 380.408 262.267C503.82 277.632 590.141 388.409 589.333 522.523C589.333 524.546 588.93 526.831 588.593 529.008C588.223 531.329 587.852 533.498 587.852 535.42C587.819 538.467 588.593 540.31 591.151 541.071C597.977 543.175 601.841 536.109 605.779 528.282C606.183 527.484 606.553 526.723 606.957 525.961C619.936 500.956 615.661 474.363 610.081 447.943C585.267 330.615 482.535 238.068 370.761 228.645C247.012 218.17 141.324 164.577 54.5318 68.4816C52.8152 66.5956 51.1659 64.6007 49.5234 62.6421C47.8068 60.6182 46.1238 58.5508 44.3063 56.5559C39.4998 51.2677 33.9865 46.2623 26.1508 42.5337L26.824 40.8653L28.5002 40.7928ZM25.1411 40.9378L25.0401 38.0435L27.5308 39.1969C35.8984 43.1866 41.755 48.5474 46.7297 54.017C48.5809 56.0844 50.3244 58.1881 52.041 60.2192C53.6903 62.2068 55.3059 64.1292 56.9552 65.9427C143.168 161.392 248.089 214.623 371.03 224.981C484.184 234.513 588.223 328.113 613.379 447.073C618.96 473.456 623.598 501.319 609.912 527.666C609.542 528.391 609.172 529.153 608.768 529.914C605.375 536.69 600.198 547.484 590.276 544.481C585.671 543.066 584.527 539.192 584.561 535.311C584.561 533.026 584.998 530.531 585.335 528.282C585.671 526.033 586.008 524.075 586.008 522.414C586.809 390.041 501.666 280.932 380.071 265.786C287.328 254.259 200.139 228.681 121.681 172.766C115.965 168.711 110.351 164.504 104.67 160.231C99.9305 156.641 95.151 152.948 90.2772 149.249C85.2688 145.411 80.1527 141.494 74.9087 137.512L75.8848 136.024L77.5677 135.952C79.1093 182.661 96.1271 221.035 113.65 259.99C113.852 260.425 114.054 260.896 114.256 261.332C114.451 261.767 114.653 262.231 114.855 262.666C151.913 345.109 207.732 409.134 277.076 461.066C292.209 472.404 308.479 481.609 324.858 490.887C342.481 500.884 360.233 510.923 376.476 523.647C447.26 579.083 481.996 655.323 485.227 748.778C485.53 757.221 485.867 762.517 486.937 765.593C488.485 770.054 491.447 770.09 506.008 764.251C544.843 748.741 579.545 725.985 610.451 695.946C651.171 656.375 678.919 608.041 697.849 553.033C728.283 464.613 782.016 397.107 856.536 348.112C860.097 345.762 863.867 343.767 867.596 341.809C875.465 337.645 883.065 333.582 888.814 326.589L890.06 327.786L888.781 328.947C884.445 323.405 879.504 321.12 874.422 319.488C873.311 319.125 872.207 318.799 871.096 318.472C869.986 318.146 868.909 317.819 867.798 317.457C790.726 292.241 722.898 309.666 663.786 368.409C662.877 369.28 662.002 370.433 660.993 371.739C658.031 375.584 653.594 381.706 646.701 377.18C638.462 371.775 641.087 361.235 643.106 354.38C649.562 332.603 663.921 317.311 681.235 306.372C747.448 264.589 817.222 253.577 889.588 285.894C921.571 300.177 952.84 304.523 986.572 295.97C1032.97 284.233 1079.01 290.246 1123.97 304.45C1145.05 311.116 1165.4 320.721 1183.62 338.907L1185.61 340.866L1183.12 341.917C1176.56 344.674 1171.25 344.529 1166.57 343.55C1164.69 343.151 1162.88 342.607 1161.19 342.135C1159.54 341.663 1158.04 341.192 1156.52 340.902C1088.73 326.807 1021.11 320.83 954.085 343.005C841.807 380.11 768.364 460.812 726.129 577.784C683.692 695.257 605.476 772.259 493.198 808.283C482.366 811.758 476.718 817.953 473.252 829.262C452.471 897.131 415.413 952.755 364.373 998.34C288.506 1066.06 202.152 1107.92 104.737 1122.99C102.246 1123.39 99.5603 1123.97 96.7666 1124.55C86.6421 1126.72 73.798 1129.73 67.1066 1121.62C61.4587 1114.77 63.6802 1106.07 66.972 1098.42C68.2174 1095.56 69.6647 1092.7 71.0447 1089.94C72.3506 1087.33 73.596 1084.91 74.5721 1082.59C144.986 919.198 261.404 818.134 426.648 784.91C442.892 781.646 448.539 774.58 448.64 756.859C449.246 653.698 405.934 579.59 321.566 533.317C169.166 449.612 73.2258 318.871 35.5012 138.955C28.9378 107.581 26.5547 75.7285 25.1411 40.9378Z" fill="white"/>
</mask>
<g mask="url(#mask6_201_755)">
<mask id="mask7_201_755" style="mask-type:luminance" maskUnits="userSpaceOnUse" x="24" y="37" width="1162" height="1091">
<path d="M1185.72 37.9131H24.2051V1128H1185.72V37.9131Z" fill="white"/>
</mask>
<g mask="url(#mask7_201_755)">
<mask id="mask8_201_755" style="mask-type:luminance" maskUnits="userSpaceOnUse" x="24" y="38" width="1162" height="1091">
<path d="M24.9998 38.0002H1185.72V1128H24.9998V38.0002Z" fill="white"/>
</mask>
<g mask="url(#mask8_201_755)">
<mask id="mask9_201_755" style="mask-type:luminance" maskUnits="userSpaceOnUse" x="25" y="38" width="1161" height="1089">
<path d="M114.054 1083.24C112.404 1075.16 115.494 1069.62 118.086 1064.9C118.658 1063.85 119.197 1062.88 119.701 1061.86C146.938 1006.64 182.347 958.697 227.51 918.908C283.969 869.159 347.725 836.509 419.115 821.144C429.771 818.859 437.775 817.699 439.021 824.481C439.727 828.282 437.91 834.187 434.854 842.341C429.637 856.254 423.618 870.175 416.086 882.891C364.171 970.513 288.809 1025.8 200.199 1061.68C198.792 1062.26 197.345 1062.84 195.931 1063.42C194.518 1064 193.07 1064.58 191.63 1065.16C167.416 1074.94 142.535 1084.48 115.629 1084.69H114.289L113.986 1083.28M117.278 1082.48L115.629 1082.88V1081.07C141.862 1080.85 166.204 1071.57 190.452 1061.76C191.899 1061.18 193.306 1060.59 194.753 1060.01C196.201 1059.43 197.614 1058.85 199.028 1058.27C287.126 1022.62 361.815 967.721 413.265 880.933C420.63 868.506 426.58 854.811 431.723 840.999C434.921 832.483 436.166 827.702 435.695 825.199C435.258 822.813 432.464 821.942 419.721 824.692C348.869 839.947 285.618 872.344 229.59 921.737C184.804 961.199 149.664 1008.78 122.589 1063.6C122.051 1064.69 121.479 1065.74 120.913 1066.79C118.288 1071.53 115.898 1075.96 117.278 1082.52V1082.48ZM28.5 40.7928C29.9137 75.5108 32.2698 107.11 38.7592 138.164C76.2549 316.985 171.549 446.855 323.141 530.096C408.587 577.022 452.673 652.32 452.033 756.895C451.932 776.394 445.072 784.91 427.287 788.494C263.121 821.507 147.611 921.773 77.6349 1084.15C76.5915 1086.58 75.2788 1089.15 73.9998 1091.72C72.6198 1094.47 71.2128 1097.23 70.0348 1099.98C66.7362 1107.63 65.4909 1114.22 69.6309 1119.22C74.7739 1125.42 85.1004 1123.43 96.1269 1121.04C98.9206 1120.42 101.708 1119.84 104.299 1119.44C201.074 1104.47 286.857 1062.92 362.286 995.584C412.895 950.398 449.549 895.354 470.128 828.174C473.925 815.784 480.347 808.682 492.289 804.837C603.591 769.111 680.999 692.907 723.032 576.478C765.603 458.563 839.787 376.998 953.142 339.524C1020.94 317.094 1089.2 323.224 1157.19 337.355C1158.84 337.717 1160.49 338.189 1162.1 338.66C1163.82 339.161 1165.5 339.632 1167.24 339.995C1171.45 340.866 1176.06 341.011 1181.94 338.551L1182.55 340.249L1181.4 341.591C1163.68 323.942 1143.88 314.526 1123.06 307.968C1078.44 293.866 1033.04 287.961 987.373 299.524C952.84 308.251 920.864 303.797 888.343 289.267C817.121 257.451 748.458 268.216 682.985 309.521C666.102 320.177 652.484 334.852 646.331 355.504C644.109 363.005 642.803 370.361 648.451 374.097C652.517 376.781 654.941 373.951 658.401 369.425C659.377 368.155 660.387 366.813 661.497 365.725C721.524 306.191 790.558 288.397 868.807 314.018C869.851 314.345 870.928 314.671 872.039 314.997C873.143 315.324 874.287 315.687 875.431 316.042C880.776 317.783 886.431 320.322 891.372 326.662L892.315 327.859L891.339 329.02C885.085 336.629 876.845 340.938 869.077 345.073C865.347 347.061 861.679 348.983 858.286 351.232C784.405 399.827 731.137 466.717 701.006 554.339C681.908 609.811 653.897 658.66 612.739 698.703C581.531 729.032 546.459 752.042 507.22 767.733C494.369 772.839 486.769 775.523 483.814 766.935C482.501 763.162 482.164 757.221 481.895 748.995C478.704 656.556 444.399 581.368 374.524 526.65C358.482 514.115 341 504.184 323.309 494.144C306.971 484.91 290.526 475.56 275.191 464.105C205.484 411.89 149.227 347.423 111.866 264.299C111.664 263.863 111.462 263.392 111.26 262.957C111.058 262.521 110.856 262.05 110.654 261.622C93.165 222.74 75.8173 183.713 74.2354 136.133L74.1007 132.506L76.8607 134.61C82.1047 138.592 87.2141 142.51 92.2629 146.347C97.103 150.083 101.876 153.746 106.622 157.33C112.27 161.602 117.884 165.774 123.532 169.792C201.411 225.308 288.001 250.748 380.408 262.267C503.82 277.632 590.141 388.409 589.333 522.523C589.333 524.546 588.929 526.831 588.593 529.008C588.223 531.329 587.852 533.498 587.852 535.42C587.819 538.467 588.593 540.31 591.151 541.071C597.977 543.175 601.841 536.109 605.779 528.282C606.183 527.484 606.553 526.723 606.957 525.961C619.936 500.956 615.661 474.363 610.08 447.943C585.267 330.615 482.535 238.068 370.761 228.645C247.012 218.17 141.324 164.577 54.5316 68.4816C52.815 66.5956 51.1658 64.6007 49.5232 62.6421C47.8066 60.6182 46.1237 58.5508 44.3061 56.5559C39.4997 51.2677 33.9864 46.2623 26.1507 42.5337L26.8238 40.8653L28.5 40.7928ZM25.1409 40.9378L25.0399 38.0435L27.5307 39.1969C35.8982 43.1866 41.7548 48.5474 46.7295 54.017C48.5808 56.0844 50.3243 58.1881 52.0409 60.2192C53.6902 62.2068 55.3058 64.1292 56.955 65.9427C143.168 161.392 248.089 214.623 371.03 224.981C484.184 234.513 588.223 328.113 613.379 447.073C618.96 473.456 623.598 501.319 609.912 527.666C609.542 528.391 609.172 529.153 608.768 529.914C605.375 536.69 600.198 547.484 590.276 544.481C585.671 543.066 584.527 539.192 584.56 535.311C584.56 533.026 584.998 530.531 585.335 528.282C585.671 526.033 586.008 524.075 586.008 522.414C586.809 390.041 501.666 280.932 380.071 265.786C287.328 254.259 200.139 228.681 121.681 172.766C115.965 168.711 110.351 164.504 104.669 160.231C99.9303 156.641 95.1508 152.948 90.2771 149.249C85.2687 145.411 80.1526 141.494 74.9085 137.512L75.8846 136.024L77.5676 135.952C79.1091 182.661 96.1269 221.035 113.65 259.99C113.852 260.425 114.054 260.896 114.255 261.332C114.451 261.767 114.653 262.231 114.855 262.666C151.913 345.109 207.732 409.134 277.076 461.066C292.209 472.404 308.479 481.609 324.857 490.887C342.481 500.884 360.233 510.923 376.476 523.647C447.26 579.083 481.996 655.323 485.227 748.778C485.53 757.221 485.867 762.517 486.937 765.593C488.485 770.054 491.447 770.09 506.008 764.251C544.843 748.741 579.545 725.985 610.451 695.946C651.171 656.375 678.919 608.041 697.849 553.033C728.283 464.613 782.015 397.107 856.536 348.112C860.097 345.762 863.866 343.767 867.596 341.809C875.465 337.645 883.065 333.582 888.814 326.589L890.059 327.786L888.78 328.947C884.445 323.405 879.504 321.12 874.422 319.488C873.311 319.125 872.207 318.799 871.096 318.472C869.985 318.146 868.908 317.819 867.798 317.457C790.726 292.241 722.897 309.666 663.786 368.409C662.877 369.28 662.002 370.433 660.992 371.739C658.03 375.584 653.594 381.706 646.701 377.18C638.461 371.775 641.087 361.235 643.106 354.38C649.562 332.603 663.921 317.311 681.235 306.372C747.448 264.589 817.222 253.577 889.588 285.894C921.571 300.177 952.84 304.523 986.572 295.97C1032.97 284.233 1079.01 290.246 1123.97 304.45C1145.05 311.116 1165.4 320.721 1183.62 338.907L1185.61 340.866L1183.12 341.917C1176.56 344.674 1171.25 344.529 1166.57 343.55C1164.69 343.151 1162.88 342.607 1161.19 342.135C1159.54 341.663 1158.04 341.192 1156.52 340.902C1088.73 326.807 1021.11 320.83 954.085 343.005C841.807 380.11 768.363 460.812 726.129 577.784C683.692 695.257 605.476 772.259 493.198 808.283C482.366 811.758 476.718 817.953 473.251 829.262C452.471 897.131 415.413 952.755 364.373 998.34C288.506 1066.06 202.152 1107.92 104.737 1122.99C102.246 1123.39 99.5601 1123.97 96.7664 1124.55C86.6419 1126.72 73.7978 1129.73 67.1065 1121.62C61.4586 1114.77 63.68 1106.07 66.9718 1098.42C68.2172 1095.56 69.6645 1092.7 71.0445 1089.94C72.3505 1087.33 73.5959 1084.91 74.572 1082.59C144.986 919.198 261.404 818.134 426.648 784.91C442.891 781.646 448.539 774.58 448.64 756.859C449.246 653.698 405.934 579.59 321.566 533.317C169.166 449.612 73.2256 318.871 35.501 138.955C28.9376 107.581 26.5546 75.7285 25.1409 40.9378Z" fill="white"/>
</mask>
<g mask="url(#mask9_201_755)">
<path d="M1185.72 37.9133H24.205V1128H1185.72V37.9133Z" fill="#FFF4DE"/>
</g>
</g>
</g>
</g>
</g>
</g>
<defs>
<clipPath id="clip0_201_755">
<rect width="168" height="1166" fill="white"/>
</clipPath>
</defs>
</svg>
